<svg width="40" height="40" viewBox="0 0 40 40" fill="none" xmlns="http://www.w3.org/2000/svg">
<path d="M40 0L0 40V0H40Z" fill="#E9C693"/>
<path d="M18.0915 11.6793L16.2742 11.16C15.4558 10.9293 14.7103 10.4924 14.109 9.89114C13.5078 9.28989 13.0709 8.5444 12.8402 7.726L12.3208 5.90867C12.2947 5.84509 12.2503 5.79071 12.1932 5.75243C12.1361 5.71416 12.0689 5.69373 12.0002 5.69373C11.9314 5.69373 11.8642 5.71416 11.8071 5.75243C11.75 5.79071 11.7056 5.84509 11.6795 5.90867L11.1602 7.726C10.9294 8.5444 10.4925 9.28989 9.89129 9.89114C9.29004 10.4924 8.54455 10.9293 7.72615 11.16L5.90882 11.6793C5.83904 11.6991 5.77763 11.7412 5.7339 11.799C5.69016 11.8569 5.6665 11.9275 5.6665 12C5.6665 12.0725 5.69016 12.1431 5.7339 12.201C5.77763 12.2588 5.83904 12.3009 5.90882 12.3207L7.72615 12.84C8.54455 13.0707 9.29004 13.5076 9.89129 14.1089C10.4925 14.7101 10.9294 15.4556 11.1602 16.274L11.6795 18.0913C11.6993 18.1611 11.7413 18.2225 11.7992 18.2663C11.8571 18.31 11.9276 18.3337 12.0002 18.3337C12.0727 18.3337 12.1432 18.31 12.2011 18.2663C12.259 18.2225 12.301 18.1611 12.3208 18.0913L12.8402 16.274C13.0709 15.4556 13.5078 14.7101 14.109 14.1089C14.7103 13.5076 15.4558 13.0707 16.2742 12.84L18.0915 12.3207C18.1613 12.3009 18.2227 12.2588 18.2664 12.201C18.3101 12.1431 18.3338 12.0725 18.3338 12C18.3338 11.9275 18.3101 11.8569 18.2664 11.799C18.2227 11.7412 18.1613 11.6991 18.0915 11.6793Z" fill="white"/>
</svg>
