<svg width="400" height="67" viewBox="0 0 400 67" fill="none" xmlns="http://www.w3.org/2000/svg">
<g clip-path="url(#clip0_16_25)">
<path d="M39.3043 38.9938C39.3043 43.7143 38.2112 47.3416 36.0248 49.8758C33.8385 52.4099 30.7577 53.7019 26.6832 53.7019C22.6087 53.7019 19.5279 52.4099 17.3416 49.8758C15.1553 47.3416 14.0621 43.7143 14.0621 38.9938V1.47827H0.149048V40.087C0.149048 45.2547 1.19252 49.8261 3.22979 53.9503C5.26706 58.0249 8.29812 61.205 12.323 63.4907C16.3478 65.7764 21.118 66.9193 26.7329 66.9193C32.3478 66.9193 37.118 65.7764 41.1428 63.4907C45.1677 61.205 48.1987 58.0249 50.236 53.9503C52.2733 49.8758 53.3167 45.2547 53.3167 40.087V1.47827H39.354L39.3043 38.9938Z" fill="white"/>
<path d="M124.621 1.47827H110.658V65.8261H124.621V1.47827Z" fill="white"/>
<path d="M93.7143 30.795C96.3478 29.7019 98.4348 28.0124 99.9254 25.677C101.416 23.3913 102.161 20.5093 102.161 16.9814C102.161 12.2112 100.273 8.43479 96.5466 5.65218C92.8199 2.86958 87.8012 1.47827 81.5404 1.47827H60.1242V65.8261H82.3851C86.9565 65.8261 90.9813 65.0311 94.4099 63.3913C97.8385 61.7516 100.472 59.5155 102.36 56.5839C104.248 53.6522 105.143 50.3727 105.143 46.6957C105.242 38.9938 101.416 33.677 93.7143 30.795ZM74.1366 13.8013H81.4907C83.677 13.8013 85.4658 14.3975 86.7577 15.5901C88.0497 16.7826 88.7453 18.4721 88.7453 20.6087C88.7453 22.7454 88.0994 24.4348 86.7577 25.6273C85.4658 26.8199 83.677 27.4162 81.4907 27.4162H74.1366V13.8013ZM88.795 51.4162C87.1553 52.8075 84.8695 53.5031 81.8385 53.5031H74.1366V37.3044H81.8385C84.8199 37.3044 87.1553 38 88.795 39.3913C90.4348 40.7826 91.2298 42.7702 91.2298 45.4037C91.2298 48.0373 90.4348 50.0745 88.795 51.4162Z" fill="white"/>
<path d="M158.36 27.4658C153.441 25.7763 150.012 24.1863 148.124 22.8446C146.186 21.4533 145.242 19.8633 145.242 18.0248C145.242 16.385 145.938 15.0434 147.329 13.9999C148.72 12.9564 150.46 12.4099 152.596 12.4099C157.366 12.4099 160.845 14.8943 163.081 19.8633L174.211 12.1614C172.422 8.28563 169.739 5.35395 166.062 3.36638C162.435 1.3788 158.112 0.38501 153.143 0.38501C149.118 0.38501 145.491 1.18004 142.311 2.72041C139.13 4.31047 136.646 6.44712 134.857 9.22973C133.068 12.0123 132.174 15.0931 132.174 18.5217C132.174 23.4906 133.665 27.4161 136.646 30.3477C139.627 33.2794 143.901 35.7142 149.466 37.7515C153.938 39.3415 157.019 40.8322 158.658 42.2732C160.298 43.7142 161.143 45.354 161.143 47.3415C161.143 49.3291 160.398 50.9689 158.957 52.1614C157.466 53.354 155.578 53.9502 153.242 53.9502C150.559 53.9502 148.025 53.1055 145.689 51.3664C143.354 49.6769 141.714 47.3912 140.721 44.5589L129.59 52.8074C131.379 57.3291 134.261 60.8571 138.335 63.2918C142.36 65.7266 147.23 66.9689 152.845 66.9689C156.969 66.9689 160.696 66.1738 164.075 64.5341C167.453 62.8943 170.137 60.5092 172.124 57.4285C174.112 54.3477 175.106 50.5713 175.106 46.2981C175.106 41.5279 173.764 37.7018 171.081 34.8695C168.348 31.9378 164.124 29.503 158.36 27.4658Z" fill="white"/>
<path d="M228.671 4.75768C223.702 1.826 218.037 0.38501 211.776 0.38501C206.758 0.38501 202.087 1.22973 197.814 2.91917C193.54 4.60861 190.112 6.74526 187.528 9.42849L189.714 11.6148C186.385 14.3974 183.801 17.7763 181.913 21.8508C180.025 25.9254 179.081 30.5962 179.081 35.8633C179.081 41.5279 180.472 46.6956 183.205 51.4658C185.938 56.2359 189.814 59.9627 194.783 62.7949C199.752 65.6272 205.416 66.9689 211.776 66.9689C218.137 66.9689 223.652 65.5279 228.671 62.5962C233.689 59.6645 237.565 55.6894 240.348 50.621C243.13 45.5527 244.522 39.8881 244.522 33.6769C244.522 27.4658 243.13 21.8508 240.348 16.7328C237.565 11.6148 233.64 7.63967 228.671 4.75768ZM228.075 44.0123C226.534 47.0434 224.348 49.4285 221.565 51.1179C218.733 52.8074 215.503 53.7018 211.826 53.7018C208.149 53.7018 204.82 52.8571 201.988 51.2173C199.155 49.5776 197.019 47.3415 195.528 44.5589C194.037 41.7763 193.292 38.6956 193.292 35.4161C193.292 32.1366 193.888 29.4533 195.031 27.267C196.174 25.0807 197.764 23.1925 199.702 21.503L197.516 19.3167C199.106 17.6272 201.093 16.2359 203.528 15.1925C205.963 14.149 208.745 13.6024 211.826 13.6024C215.503 13.6024 218.733 14.4471 221.565 16.1863C224.398 17.9254 226.534 20.2608 228.075 23.2918C229.615 26.3229 230.36 29.8012 230.36 33.6272C230.36 37.4533 229.615 40.9316 228.075 44.0123Z" fill="white"/>
<path d="M250.236 65.8261H264.199V40.1863H291.528V29.5031H264.199V14.6957H294.261V1.47827H250.236V65.8261Z" fill="white"/>
<path d="M299.578 14.6957H317.714V65.8261H331.677V14.6957H349.714V1.47827H299.578V14.6957Z" fill="white"/>
<path d="M381.963 16.4347V0.38501H371.13V16.4347H367.006H355.031V27.267H363.975H367.006H371.081H371.13V43.3167H381.963V27.267H395.329L399.851 16.4347H381.963Z" fill="#006EF5"/>
</g>
<defs>
<clipPath id="clip0_16_25">
<rect width="400" height="67" fill="white"/>
</clipPath>
</defs>
</svg>
