<svg xmlns="http://www.w3.org/2000/svg" viewBox="0 0 487.63 447.98"><defs><style>.cls-1{fill:#fff;}</style></defs><g id="圖層_2" data-name="圖層 2"><g id="Ubisoft_Mark" data-name="Ubisoft Mark"><path id="SWIRL" class="cls-1" d="M401.19,163.46c-3.44-167.63-226.1-230.11-311.83-73,3.79,2.74,9,6.45,12.82,9.19a159.53,159.53,0,0,0-13.34,41.85,157.53,157.53,0,1,0,312.49,28.29C401.33,167.66,401.27,165.56,401.19,163.46Zm-276,28.14c-2.07,17.06-.77,22.39-.78,24.41l-3.79,1.38c-1.43-2.8-5.07-12.69-6.68-26C109.83,140.69,144.39,95,197,86.47c48.26-7.1,94.4,22.87,105.2,64.82l-3.8,1.39a110.51,110.51,0,0,0-10.44-12C229.78,82.18,138.31,109,125.18,191.6ZM275.06,220a43,43,0,1,1-38.42-67.33h0a34.93,34.93,0,0,1,26.82,59.25Zm89.58,1.66c-22.72,51.58-69.49,78.58-119.43,77.95-95.81-4.75-123.68-115.39-59.65-155.33l2.81,2.81c-1.09,1.44-4.81,4.45-10.79,16.16-7,14.24-9.11,28.43-8.28,37.3,5,77.34,113.19,93.07,150.46,16.62,47.44-104.88-78.31-211.39-189.95-130l-2.58-2.58C156.59,38.5,214,17.87,268.78,31.65,352.59,52.61,397.58,140,364.64,221.63Z"/><path id="UBISOFT" class="cls-1" d="M74.13,356.66v53.87C74.13,432,61.05,448,37.07,448S0,432,0,410.53V356.66H19.49V409c0,13.08,6.16,20.52,17.58,20.52S54.64,422.07,54.64,409V356.66Zm72.5,63.11c0,15.51-12.19,26.67-31.81,26.67h-31V356.66h29.89c17.31,0,28.72,8.34,28.72,21.68,0,10.13-4.74,16.29-11.8,19.24C140.09,401.17,146.63,407.71,146.63,419.77Zm-43.35-45.92v19h10.26c6,0,10.13-3.46,10.13-9.49s-4.11-9.49-10.13-9.49Zm10.77,55.41c8.34,0,13.08-3.85,13.08-11.29s-4.74-11.29-13.08-11.29H103.28v22.58Zm40.13-72.6h19.49v89.78H154.18ZM220.79,393c15.39,5.39,23.34,12.31,23.34,26.16,0,18.6-14.24,28.86-31,28.86-15.52,0-27.45-6.92-32.45-19.75l15.52-11.54c2.82,8.08,10.13,13.08,17.44,13.08,6.42,0,11-3.46,11-9.23,0-5.39-3.46-8.73-16.28-13.34-13.86-5-24.12-11.93-24.12-26.81,0-14.36,11.93-25.27,29.25-25.27,13.72,0,24.37,5.52,29.37,16.42l-15.52,10.77c-3-6.66-7.57-10.38-14.62-10.38-5.9,0-10.26,3.2-10.26,7.82C202.45,385,207.32,388.21,220.79,393Zm120.08,8.59c0,26.42-19,46.43-45.66,46.43-27.32,0-45.66-19.62-45.66-43.35,0-15.39,6-26.55,14.88-33.86l-3.08-3.08c6.8-7.05,19.24-12.57,33.86-12.57C321.88,355.12,340.87,375.39,340.87,401.55Zm-19.75,0c0-16.16-10.27-28-25.91-28-9.11,0-15.91,3.47-20,8l3.08,3.07c-4.75,4-9,9.49-9,19.37,0,13.6,9.62,25.52,25.91,25.52C310.85,429.51,321.12,417.71,321.12,401.55Zm47.19-26.42v20.78H406.4v14.88H368.31v35.65h-19.5V356.66h61.44v18.47Zm119.32,0H462.49v71.31H443V375.13H417.73V356.66h69.9Z"/></g></g></svg>