<?xml version="1.0" encoding="utf-8"?>
<!-- Generator: Adobe Illustrator 23.1.0, SVG Export Plug-In . SVG Version: 6.00 Build 0)  -->
<svg version="1.1" id="圖層_1" xmlns="http://www.w3.org/2000/svg" xmlns:xlink="http://www.w3.org/1999/xlink" x="0px" y="0px"
	 viewBox="0 0 65 65" style="enable-background:new 0 0 65 65;" xml:space="preserve">
<style type="text/css">
	.st0{fill:none;stroke:#231916;stroke-width:2;stroke-linejoin:bevel;}
	.st1{filter:url(#Adobe_OpacityMaskFilter);}
	.st2{fill-rule:evenodd;clip-rule:evenodd;fill:#FFFFFF;}
	.st3{mask:url(#mask-4_1_);fill-rule:evenodd;clip-rule:evenodd;fill:#FF6700;}
</style>
<title>business</title>
<desc>Created with Sketch.</desc>
<g id="business">
	<g transform="translate(10.000000, 15.000000)">
		<g id="Group-27" transform="translate(3.000000, 1.000000)">
			<g id="Group-3" transform="translate(0.000000, 31.943700)">
				<g id="Clip-2">
				</g>
				<path id="Stroke-1" class="st0" d="M0,1h34.5"/>
			</g>
			<path id="Stroke-4" class="st0" d="M3.2,33V4c1.6-1.6,2.4-2.4,4-4h15.4c1.6,1.6,2.4,2.4,4,4v8.2"/>
			<path id="Stroke-6" class="st0" d="M9.6,5.3v4.9"/>
			<path id="Stroke-8" class="st0" d="M20.2,5.3v4.9"/>
			<path id="Stroke-10" class="st0" d="M15,5.3v4.9"/>
			<path id="Stroke-12" class="st0" d="M9.6,14.3v5.4"/>
			<path id="Stroke-14" class="st0" d="M15,14.3v5.4"/>
			<path id="Stroke-16" class="st0" d="M9.6,23.7v5.4"/>
			<path id="Stroke-18" class="st0" d="M20.2,23.7v5.4"/>
			<path id="Stroke-20" class="st0" d="M15,23.7v5.4"/>
			<path id="Stroke-22" class="st0" d="M26.6,22.5V33"/>
			<g id="Group-26" transform="translate(18.000000, 6.943700)">
				<g id="Clip-25">
				</g>
				<defs>
					<filter id="Adobe_OpacityMaskFilter" filterUnits="userSpaceOnUse" x="0.8" y="0.3" width="20.1" height="18.1">
						<feColorMatrix  type="matrix" values="1 0 0 0 0  0 1 0 0 0  0 0 1 0 0  0 0 0 1 0"/>
					</filter>
				</defs>
				<mask maskUnits="userSpaceOnUse" x="0.8" y="0.3" width="20.1" height="18.1" id="mask-4_1_">
					<g class="st1">
						<polygon id="path-3_1_" class="st2" points="0.8,0.3 20.9,0.3 20.9,18.4 0.8,18.4 						"/>
					</g>
				</mask>
				<path id="Fill-24" class="st3" d="M10,13.1H8.6L5.2,9.8l1.4-1.4L9.3,11l5.8-5.8l1.4,1.4L10,13.1z M20.9,8.8l-4.6-7.8
					c-0.4-0.2-0.7-0.4-1.1-0.6H6.3C5.9,0.5,5.6,0.7,5.2,1L0.8,8.7c0,0.5,0,0.8,0,1.3l4.6,7.8c0.4,0.2,0.7,0.4,1.1,0.6h8.8
					c0.4-0.2,0.7-0.4,1.1-0.6l4.5-7.7C20.9,9.6,20.9,9.2,20.9,8.8z"/>
			</g>
		</g>
	</g>
</g>
</svg>
