<?xml version="1.0" encoding="utf-8"?>
<!-- Generator: Adobe Illustrator 23.1.0, SVG Export Plug-In . SVG Version: 6.00 Build 0)  -->
<svg version="1.1" id="圖層_1" xmlns="http://www.w3.org/2000/svg" xmlns:xlink="http://www.w3.org/1999/xlink" x="0px" y="0px"
	 viewBox="0 0 65 65" style="enable-background:new 0 0 65 65;" xml:space="preserve">
<style type="text/css">
	.st0{fill-rule:evenodd;clip-rule:evenodd;fill:#231815;}
	.st1{fill:#FF6700;}
</style>
<title>e-bill</title>
<desc>Created with Sketch.</desc>
<g>
	<g transform="translate(14.000000, 15.000000)">
		<g id="e-bill" transform="translate(1.000000, 1.000000)">
			<rect id="Rectangle" x="7" y="15" class="st0" width="16.3" height="2"/>
			<rect x="7" y="8.1" class="st0" width="16.3" height="2"/>
			<rect x="7" y="21.9" class="st0" width="16.3" height="2"/>
			<polygon id="Path" class="st0" points="1.6,34.2 0,33.4 0,5.6 0.3,4.9 4.9,0.3 5.7,0 23.9,0 24.6,0.3 29.3,4.9 29.6,5.6 
				29.6,9.7 27.6,9.7 27.6,6.1 23.5,2 6.1,2 2,6.1 2,31.4 5.4,28.8 6.7,28.9 10.6,32.1 14.1,28.9 15.4,28.8 19.6,32.2 23.8,28.8 
				25.1,28.9 27.6,31.2 27.6,24.7 29.6,24.7 29.6,33.4 27.9,34.2 24.4,30.9 20.2,34.2 19,34.2 14.8,30.9 11.3,34.2 10,34.2 6,30.9 
							"/>
			<path id="Shape" class="st1" d="M20.1,17.7c0-5.6,3.9-9.1,8.1-9.1c4.8,0,7.3,3.5,7.3,8.3L33.4,19h-8.8c0.1,1.2,0.6,2.4,1.5,3.2
				c0.9,0.8,2.1,1.2,3.3,1.2c1.3,0,2.5-0.5,3.4-1.5l2,2.2c-1.5,1.7-3.7,2.8-6,2.8C23.9,26.8,20.1,23.5,20.1,17.7z M31.5,15.8
				c0-2.4-1-3.7-3.3-3.7c-1.8,0-3.4,1.1-3.8,3.7H31.5z"/>
		</g>
	</g>
</g>
</svg>
