<?xml version="1.0" encoding="utf-8"?>
<!-- Generator: Adobe Illustrator 23.1.0, SVG Export Plug-In . SVG Version: 6.00 Build 0)  -->
<svg version="1.1" id="圖層_1" xmlns="http://www.w3.org/2000/svg" xmlns:xlink="http://www.w3.org/1999/xlink" x="0px" y="0px"
	 viewBox="0 0 65 65" style="enable-background:new 0 0 65 65;" xml:space="preserve">
<style type="text/css">
	.st0{fill:#FF6700;}
	.st1{fill:#040000;}
</style>
<title>business</title>
<desc>Created with Sketch.</desc>
<g>
	<rect x="19.2" y="20.2" class="st0" width="26.5" height="8.4"/>
	<rect x="37.3" y="31.7" class="st1" width="3.6" height="12.1"/>
	<rect x="24.1" y="38.9" class="st1" width="3.6" height="4.9"/>
	<rect x="24.1" y="31.7" class="st1" width="3.6" height="4.9"/>
	<rect x="30.7" y="38.9" class="st1" width="3.6" height="4.9"/>
	<rect x="30.7" y="31.7" class="st1" width="3.6" height="4.9"/>
	<polygon class="st1" points="45.6,48.6 45.6,47.6 20.4,47.6 20.4,17.4 44.6,17.4 44.6,48.6 45.6,48.6 45.6,47.6 45.6,48.6 
		46.6,48.6 46.6,16.4 45.6,15.4 19.4,15.4 18.4,16.4 18.4,48.6 19.4,49.6 45.6,49.6 46.6,48.6 	"/>
</g>
</svg>
