<?xml version="1.0" encoding="utf-8"?>
<!-- Generator: Adobe Illustrator 23.1.0, SVG Export Plug-In . SVG Version: 6.00 Build 0)  -->
<svg version="1.1" id="圖層_1" xmlns="http://www.w3.org/2000/svg" xmlns:xlink="http://www.w3.org/1999/xlink" x="0px" y="0px"
	 viewBox="0 0 65 65" style="enable-background:new 0 0 65 65;" xml:space="preserve">
<style type="text/css">
	.st0{fill:#231815;}
	.st1{fill:#FF6700;}
</style>
<title>business</title>
<desc>Created with Sketch.</desc>
<g>
	<path class="st0" d="M48.5,26.2L41,13.1l-1-0.4H25l-0.9,0.5l-7.5,13.1v1l7.5,13.1l0.9,0.5h11.4L42.7,52l1.4,0.4l4-2.3l0.4-1.4
		L42.3,38l6.2-10.7V26.2z M46.2,48.8L44,50.1l-5.7-9.8l2.2-1.3L46.2,48.8z M40.8,36.5l-4,2.3H25.5l-7-12.1l7-12.1h13.9l7,12.1
		L40.8,36.5z"/>
	<polyline class="st1" points="25.8,27.8 39.8,27.8 39.8,25.8 25.8,25.8 	"/>
	<polyline class="st1" points="25.8,33.4 39.8,33.4 39.8,31.4 25.8,31.4 	"/>
	<polyline class="st1" points="25.8,22.3 39.8,22.3 39.8,20.3 25.8,20.3 	"/>
</g>
</svg>
