<?xml version="1.0" encoding="utf-8"?>
<!-- Generator: Adobe Illustrator 23.1.0, SVG Export Plug-In . SVG Version: 6.00 Build 0)  -->
<svg version="1.1" id="圖層_1" xmlns="http://www.w3.org/2000/svg" xmlns:xlink="http://www.w3.org/1999/xlink" x="0px" y="0px"
	 viewBox="0 0 65 65" style="enable-background:new 0 0 65 65;" xml:space="preserve">
<style type="text/css">
	.st0{fill:#231815;}
	.st1{fill:#FF6700;}
	.st2{fill:#FFFFFF;}
</style>
<title>business</title>
<desc>Created with Sketch.</desc>
<g>
	<rect x="22.5" y="23.5" class="st0" width="15.9" height="2"/>
	<rect x="22.5" y="28.9" class="st0" width="15.9" height="2"/>
	<polygon class="st0" points="32.3,36.3 22.5,36.3 22.5,34.3 34.3,34.3 	"/>
	<polygon class="st0" points="37.1,41.6 22.5,41.6 22.5,39.6 36.1,39.6 	"/>
	<path class="st0" d="M45.4,20l-3.9-3.9l-0.7-0.3H20l-0.7,0.3L15.4,20l-0.3,0.7V31v13.3l0.3,0.7l3.9,3.9l0.7,0.3h8h4.7h8l0.7-0.3
		l3.9-3.9l0.3-0.7V31V20.7L45.4,20z M43.7,43.9l-3.3,3.3H32h-3.2h-8.4l-3.3-3.3V31v-9.9l3.3-3.3h19.9l3.3,3.3V31v12.9H43.7z"/>
	<path class="st1" d="M49.9,32l-4.6-7.8c-0.4-0.2-0.7-0.4-1.1-0.6h-8.9c-0.4,0.2-0.7,0.4-1.1,0.6L29.8,32c0,0.5,0,0.8,0,1.3l4.6,7.8
		c0.4,0.2,0.7,0.4,1.1,0.6h8.8c0.4-0.2,0.7-0.4,1.1-0.6l4.5-7.7C49.9,32.8,49.9,32.4,49.9,32z"/>
	<path class="st2" d="M44.3,33.1c0,1.1-0.5,2.2-1.2,2.9s-1.8,1.2-2.9,1.2c-1.7,0-3.1-1-3.8-2.5l-1.1,0.5c0.8,1.9,2.7,3.2,4.9,3.2
		c2.9,0,5.3-2.4,5.3-5.3L44.3,33.1L44.3,33.1z"/>
	<polygon class="st2" points="43.2,34.8 44.9,33.7 46,35.4 47,34.7 45.5,32.5 44.7,32.4 42.6,33.9 	"/>
	<path class="st2" d="M36.3,32.9c0-1.1,0.5-2.2,1.2-2.9c0.7-0.7,1.8-1.2,2.9-1.2c1.7,0,3.1,1,3.8,2.5l1.1-0.5
		c-0.8-1.9-2.7-3.2-4.9-3.2c-2.9,0-5.3,2.4-5.3,5.3H36.3L36.3,32.9z"/>
	<polygon class="st2" points="37.4,31.1 35.8,32.3 34.6,30.6 33.6,31.3 35.1,33.4 35.9,33.6 38.1,32.1 	"/>
</g>
</svg>
