<?xml version="1.0" encoding="utf-8"?>
<!-- Generator: Adobe Illustrator 23.1.0, SVG Export Plug-In . SVG Version: 6.00 Build 0)  -->
<svg version="1.1" id="Main-bolder" xmlns="http://www.w3.org/2000/svg" xmlns:xlink="http://www.w3.org/1999/xlink" x="0px"
	 y="0px" viewBox="0 0 60 60" style="enable-background:new 0 0 60 60;" xml:space="preserve">
<style type="text/css">
	.st0{fill:#231815;}
</style>
<title>index-bill</title>
<g>
	<path class="st0" d="M12.5,37l6-14.1h1.9l6,14.1h-2.8l-1.3-3.1h-5.7L15.3,37H12.5z M17.7,31.5h3.6l-1.8-4.2L17.7,31.5z"/>
	<path class="st0" d="M28.9,33.4c0.6,0.8,1.5,1.4,2.6,1.4c1.3,0,2.6-1,2.6-2.6c0-1.5-1.2-2.6-2.8-2.6c-0.6,0-1.2,0.1-1.7,0.4v-1.6
		l2.6-3.1h-4.7V23h8.5v1.6l-2.6,3.1c1.9,0.7,3.3,2.4,3.3,4.6c0,3-2.3,5-5.2,5c-1.7,0-3.4-0.8-4.7-2.2L28.9,33.4z"/>
	<path class="st0" d="M38.5,26c0.6-1.9,2.4-3.3,4.4-3.3c2.4,0,4.5,1.8,4.5,4.3c0,1.7-0.9,3-1.8,4l-3,3.5h4.9V37h-9.1v-1.6l4.9-5.6
		c1.1-1.2,1.4-2,1.4-2.8c0-1-0.8-1.9-1.8-1.9c-0.9,0-1.6,0.6-1.9,1.6L38.5,26z"/>
</g>
</svg>
