<?xml version="1.0" encoding="utf-8"?>
<!-- Generator: Adobe Illustrator 26.4.1, SVG Export Plug-In . SVG Version: 6.00 Build 0)  -->
<svg version="1.1" id="Main-bolder" xmlns="http://www.w3.org/2000/svg" xmlns:xlink="http://www.w3.org/1999/xlink" x="0px"
	 y="0px" viewBox="0 0 60 60" style="enable-background:new 0 0 60 60;" xml:space="preserve">
<style type="text/css">
	.st0{display:none;}
	.st1{display:inline;fill:#FFC303;}
	.st2{display:inline;fill:url(#SVGID_1_);}
	.st3{display:inline;fill:url(#SVGID_00000077318596346859428370000018187685147688816552_);}
	.st4{fill:#E40080;}
</style>
<g class="st0">
	<path class="st1" d="M37.1,30.3c-0.3-0.6-0.8-1.1-1.5-1.5S34,28,32.7,27.5c-1.1-0.4-1.8-0.8-2.1-1c-0.3-0.2-0.4-0.4-0.4-0.6
		c0-0.6,0.4-1,1.3-1c1.5,0,2.9,0.8,4,2.4l1.8-5.1c-1.7-0.6-3.5-1-5.4-1.1v-2h-4v2.2c-1.2,0.2-2.2,0.6-3,1.1c-1.3,0.9-2,2.3-2,4.1
		c0,0.9,0.2,1.7,0.6,2.3c0.4,0.6,0.9,1.1,1.5,1.4s1.3,0.7,2.2,1c1,0.4,1.6,0.7,1.8,0.9c0.2,0.2,0.3,0.5,0.3,0.7
		c0,0.3-0.1,0.5-0.3,0.7c-0.2,0.2-0.5,0.3-0.9,0.3c-0.7,0-1.4-0.2-2.2-0.7c-0.8-0.5-1.4-1.1-1.9-1.9l-1.8,5.4c1.6,0.6,3.5,1,5.6,1.2
		v2.1h4v-2.1c1.5-0.2,2.7-0.6,3.7-1.2c1.3-0.9,2-2.2,2-4C37.7,31.7,37.5,30.9,37.1,30.3z"/>
	
		<linearGradient id="SVGID_1_" gradientUnits="userSpaceOnUse" x1="29.8892" y1="-761.9494" x2="29.8892" y2="-741.207" gradientTransform="matrix(1 0 0 -1 0 -722.11)">
		<stop  offset="0" style="stop-color:#000000"/>
		<stop  offset="1" style="stop-color:#FFFFFF"/>
	</linearGradient>
	<path class="st2" d="M37.1,30.3c-0.3-0.6-0.8-1.1-1.5-1.5S34,28,32.7,27.5c-1.1-0.4-1.8-0.8-2.1-1c-0.3-0.2-0.4-0.4-0.4-0.6
		c0-0.6,0.4-1,1.3-1c1.5,0,2.9,0.8,4,2.4l1.8-5.1c-1.7-0.6-3.5-1-5.4-1.1v-2h-4v2.2c-1.2,0.2-2.2,0.6-3,1.1c-1.3,0.9-2,2.3-2,4.1
		c0,0.9,0.2,1.7,0.6,2.3c0.4,0.6,0.9,1.1,1.5,1.4s1.3,0.7,2.2,1c1,0.4,1.6,0.7,1.8,0.9c0.2,0.2,0.3,0.5,0.3,0.7
		c0,0.3-0.1,0.5-0.3,0.7c-0.2,0.2-0.5,0.3-0.9,0.3c-0.7,0-1.4-0.2-2.2-0.7c-0.8-0.5-1.4-1.1-1.9-1.9l-1.8,5.4c1.6,0.6,3.5,1,5.6,1.2
		v2.1h4v-2.1c1.5-0.2,2.7-0.6,3.7-1.2c1.3-0.9,2-2.2,2-4C37.7,31.7,37.5,30.9,37.1,30.3z"/>
	<path class="st1" d="M31.2,39v-2l0.7-0.1c1.4-0.2,2.5-0.5,3.3-1.1c1.1-0.8,1.6-1.8,1.6-3.3c0-0.7-0.1-1.3-0.4-1.8
		c-0.3-0.5-0.7-0.9-1.2-1.2c-0.6-0.4-1.6-0.8-2.8-1.3c-1.6-0.6-2.1-0.9-2.3-1.1c-0.5-0.4-0.7-0.8-0.7-1.2c0-0.4,0.1-1.8,2.1-1.8
		c1.4,0,2.6,0.5,3.7,1.6l1.1-3.1C35,22.2,33.5,22,32,21.9h-0.8V20h-2.4v2l-0.7,0.1c-1.1,0.2-2,0.5-2.7,1c-1.1,0.8-1.6,1.9-1.6,3.4
		c0,0.8,0.2,1.4,0.5,1.9s0.8,0.9,1.2,1.2c0.5,0.3,1.2,0.6,2.1,1c1.4,0.6,1.8,0.9,2,1.1c0.5,0.5,0.6,0.9,0.6,1.3
		c0,0.4-0.1,0.9-0.7,1.3c-0.4,0.3-0.8,0.4-1.3,0.4c-0.8,0-1.7-0.3-2.6-0.8c-0.4-0.3-0.8-0.6-1.2-0.9l-1.1,3.3c1.4,0.5,3,0.7,4.7,0.9
		h0.7v2h2.5V39z"/>
</g>
<g class="st0">
	<path class="st1" d="M56.2-27c-0.3-0.6-0.8-1.1-1.5-1.5s-1.6-0.8-2.9-1.3c-1.1-0.4-1.8-0.8-2.1-1s-0.4-0.4-0.4-0.6
		c0-0.6,0.4-1,1.3-1c1.5,0,2.9,0.8,4,2.4l1.8-5.1c-1.7-0.6-3.5-1-5.4-1.1v-2h-4v2.2c-1.2,0.2-2.2,0.6-3,1.1c-1.3,0.9-2,2.3-2,4.1
		c0,0.9,0.2,1.7,0.6,2.3c0.4,0.6,0.9,1.1,1.5,1.4s1.3,0.7,2.2,1c1,0.4,1.6,0.7,1.8,0.9c0.2,0.2,0.3,0.5,0.3,0.7
		c0,0.3-0.1,0.5-0.3,0.7s-0.5,0.3-0.9,0.3c-0.7,0-1.4-0.2-2.2-0.7s-1.4-1.1-1.9-1.9l-1.8,5.4c1.6,0.6,3.5,1,5.6,1.2v2.1h4v-2.1
		c1.5-0.2,2.7-0.6,3.7-1.2c1.3-0.9,2-2.2,2-4C56.7-25.7,56.6-26.4,56.2-27z"/>
	
		<linearGradient id="SVGID_00000157268578661850929100000003411318234618925709_" gradientUnits="userSpaceOnUse" x1="48.968" y1="-704.5965" x2="48.968" y2="-683.8541" gradientTransform="matrix(1 0 0 -1 0 -722.11)">
		<stop  offset="0" style="stop-color:#000000"/>
		<stop  offset="1" style="stop-color:#FFFFFF"/>
	</linearGradient>
	<path style="display:inline;fill:url(#SVGID_00000157268578661850929100000003411318234618925709_);" d="M56.2-27
		c-0.3-0.6-0.8-1.1-1.5-1.5s-1.6-0.8-2.9-1.3c-1.1-0.4-1.8-0.8-2.1-1s-0.4-0.4-0.4-0.6c0-0.6,0.4-1,1.3-1c1.5,0,2.9,0.8,4,2.4
		l1.8-5.1c-1.7-0.6-3.5-1-5.4-1.1v-2h-4v2.2c-1.2,0.2-2.2,0.6-3,1.1c-1.3,0.9-2,2.3-2,4.1c0,0.9,0.2,1.7,0.6,2.3
		c0.4,0.6,0.9,1.1,1.5,1.4s1.3,0.7,2.2,1c1,0.4,1.6,0.7,1.8,0.9c0.2,0.2,0.3,0.5,0.3,0.7c0,0.3-0.1,0.5-0.3,0.7s-0.5,0.3-0.9,0.3
		c-0.7,0-1.4-0.2-2.2-0.7s-1.4-1.1-1.9-1.9l-1.8,5.4c1.6,0.6,3.5,1,5.6,1.2v2.1h4v-2.1c1.5-0.2,2.7-0.6,3.7-1.2c1.3-0.9,2-2.2,2-4
		C56.7-25.7,56.6-26.4,56.2-27z"/>
	<path class="st1" d="M50.3-18.3v-2l0.7-0.1c1.4-0.2,2.5-0.5,3.3-1.1c1.1-0.8,1.6-1.8,1.6-3.3c0-0.7-0.1-1.3-0.4-1.8
		c-0.3-0.5-0.7-0.9-1.2-1.2c-0.6-0.4-1.6-0.8-2.8-1.3c-1.6-0.6-2.1-0.9-2.3-1.1c-0.5-0.4-0.7-0.8-0.7-1.2c0-0.4,0.1-1.8,2.1-1.8
		c1.4,0,2.6,0.5,3.7,1.6l1.1-3.1c-1.4-0.4-2.8-0.7-4.4-0.8h-0.8v-1.9h-2.4v2l-0.7,0.1c-1.1,0.2-2,0.5-2.7,1
		c-1.1,0.8-1.6,1.9-1.6,3.4c0,0.8,0.2,1.4,0.5,1.9s0.8,0.9,1.2,1.2c0.5,0.3,1.2,0.6,2.1,1c1.4,0.6,1.8,0.9,2,1.1
		c0.5,0.5,0.6,0.9,0.6,1.3s-0.1,0.9-0.7,1.3c-0.4,0.3-0.8,0.4-1.3,0.4c-0.8,0-1.7-0.3-2.6-0.8c-0.4-0.3-0.8-0.6-1.2-0.9l-1.1,3.3
		c1.4,0.5,3,0.7,4.7,0.9h0.7v2L50.3-18.3L50.3-18.3z"/>
</g>
<g>
	<g>
		<path class="st4" d="M29.7,27.1V17c0-0.8-0.2-1.7-0.9-2.2c-0.8-0.6-2-0.7-3-0.4c-1.1,0.4-1.9,1.1-2.5,2.1v10.5h-2.5V16.9
			c0-1.1-0.6-2.1-1.7-2.5c-1-0.4-1.9-0.2-2.8,0.3c-1,0.5-1.6,1.4-1.8,2.5V27h-2.3V12.7h2.5v1.7c0.8-0.9,1.6-1.6,2.8-1.9
			c1-0.3,2.1-0.2,3.2,0.3c0.9,0.4,1.7,1,2.2,1.8c1-1.2,2.3-1.8,3.8-2c1.5-0.3,3.2,0,4.4,1.1c1,0.9,1.3,2,1.3,3.5v10.2H29.7z"/>
		<path class="st4" d="M43.9,26.9c-1.7,0.7-3.9,0.6-5.6-0.1c-1.7-0.7-2.9-2-3.5-3.8c-0.6-2-0.6-4.9,0.3-6.8c0.8-1.8,2.2-3,4-3.5
			c1.8-0.5,3.9-0.4,5.5,0.5c1.7,0.9,2.5,2,3,3.9c0.5,1.8,0.5,3.9,0.1,5.8C47.1,24.6,45.6,26.2,43.9,26.9z M40.8,14.3
			c-1.5,0.1-3.1,1.1-3.6,2.6c-0.5,1.8-0.4,3.8-0.1,5.6c0.3,1.4,1.7,2.6,3.1,2.8c1.6,0.3,3.6-0.3,4.4-1.8c1-2,0.9-4.9,0.1-6.9
			C44.2,14.9,42.5,14.2,40.8,14.3z"/>
		<path class="st4" d="M12.7,33c-0.4-0.5-0.8-1.4-0.9-2h1.8c0.3,0.7,0.6,1.5,1.1,2H12.7z M25.7,40c-0.4-0.4-1.1-1-1.4-1.3
			c-0.4,0.4-0.9,1-1.3,1.3h-2.6c1.1-0.8,2.3-1.8,2.8-2.6c-0.4-0.5-1.1-1.7-1.5-2.4h-1.6v3.6c0,0.4-0.2,0.7-0.4,1
			c-0.3,0.3-0.6,0.4-1.1,0.4h-1.1l-0.5-1.3h0.9c0.2,0,0.4-0.2,0.4-0.4v-2.9c0-0.4-0.3-0.5-0.6-0.5h-1.1v5.2H15v-5.2h-1.2
			c-0.2,0-0.4,0.2-0.4,0.4V40h-1.6v-5.3c0-0.4,0.2-0.7,0.4-1s0.6-0.4,1.1-0.4H15v-2.9h1.8v2.9h1.8c0.4,0,0.8,0.2,1,0.4
			c0.3,0.3,0.4,0.6,0.4,1.1c0.9-1.1,1.5-2.8,1.9-4.4h1.8c-0.1,0.4-0.3,1.1-0.4,1.5h5.3v1.3h-1.1c-0.4,1.2-1.2,2.8-2,3.9
			c0.8,0.8,2.3,2.1,3.2,2.6L25.7,40L25.7,40z M27.1,46.5c-0.4,0.3-0.8,0.4-1.3,0.4h-1.9l-0.5-1.4h2c0.3,0,0.4-0.2,0.4-0.5v-1.8
			c0-0.3-0.3-0.5-0.4-0.5h-4.4v5.1h-1.7v-5.1h-4.4c-0.2,0-0.4,0.2-0.4,0.4v3.8h-1.7v-3.9c0-0.5,0.2-1,0.5-1.1
			c0.4-0.3,0.7-0.4,1.1-0.4h4.8v-1h1.7v1h5c0.5,0,1,0.2,1.2,0.4c0.3,0.3,0.4,0.6,0.4,1.1v2.5C27.5,46,27.3,46.3,27.1,46.5z
			 M14.6,38.7h-1c0.2-0.9,0.3-2.1,0.4-3.2h0.8C14.8,36.5,14.7,37.8,14.6,38.7z M17.3,38.3c-0.1-0.8-0.2-1.9-0.3-2.7h0.9
			c0,0.9,0.2,2,0.3,2.7H17.3z M19.3,33h-1.9c0.4-0.5,0.7-1.2,0.9-2H20C19.9,31.6,19.5,32.5,19.3,33z M22.9,33.5
			c-0.2,0.4-0.4,0.9-0.6,1.3h1.1c0.2,0.4,0.5,1,0.9,1.3c0.4-0.7,1.1-1.9,1.3-2.6H22.9z"/>
		<path class="st4" d="M47.9,41.5c-2.5,2.8-6.4,4.7-10.2,6.2h-6c2.3-0.6,4.9-1.5,7.2-2.4c-0.8-0.9-1.5-1.8-2.1-2.9h2.1
			c0.4,0.7,1.1,1.5,1.6,2.1c1.9-0.9,3.8-2.1,5.5-3.6h-7.4c-1.1,0.8-2.1,1.6-3.2,2.3h-3.9c3.6-1.7,5.8-3.2,8.2-5.5
			c-0.9,0.4-2.1,0.7-2.7,1h-5.7c2.5-0.6,5-1.4,7.4-2.2C38,35.8,37.4,35,37,34.2h2.1c0.4,0.6,0.8,1.1,1.3,1.7
			c1.7-0.7,3.2-1.5,4.8-2.5h-7.4C37,34.2,36,35,35,35.7h-3.2c2.7-1.6,4.6-3.3,6.2-5.3h2.3C40,31,39.5,31.5,39.2,32h7.3
			c0.5,0,0.9,0.3,1,0.6c0.2,0.4,0.1,0.9-0.2,1.1c-1.5,1.4-5.2,3.2-7.3,3.9h2.5c-0.5,0.6-1.2,1.3-1.9,1.9h6.8c0.4,0,0.8,0.3,1,0.6
			C48.2,40.6,48.2,41.2,47.9,41.5z"/>
	</g>
</g>
</svg>
