<?xml version="1.0" encoding="utf-8"?>
<!-- Generator: Adobe Illustrator 23.1.0, SVG Export Plug-In . SVG Version: 6.00 Build 0)  -->
<svg version="1.1" id="Main-bolder" xmlns="http://www.w3.org/2000/svg" xmlns:xlink="http://www.w3.org/1999/xlink" x="0px"
	 y="0px" viewBox="0 0 60 60" style="enable-background:new 0 0 60 60;" xml:space="preserve">
<style type="text/css">
	.st0{fill:#FF6700;}
	.st1{fill:none;stroke:#231815;stroke-width:2;stroke-linejoin:bevel;stroke-miterlimit:10;}
</style>
<title>index-bill</title>
<g>
	<g>
		<path class="st0" d="M22.3,18.9c0.8,0.7,1.5,1.5,2.2,2.2L24,21.6c-0.2-0.2-0.4-0.5-0.6-0.7c-2.2,0.1-4,0.2-5.2,0.2
			c-0.3,0-0.5,0.1-0.8,0.1l-0.2-0.6c0.2-0.1,0.4-0.2,0.6-0.4c0.9-0.7,1.6-1.5,2.4-2.4l0.6,0.3c-0.8,0.9-1.5,1.7-2.4,2.4
			c1.5,0,3-0.1,4.5-0.2c-0.3-0.4-0.7-0.7-1-1.1L22.3,18.9z M23.4,21.9v3.4h-0.6v-0.5h-4.1v0.5H18v-3.4H23.4z M22.8,22.5h-4.1v1.8
			h4.1V22.5z"/>
		<path class="st0" d="M26.6,20c0.5,0.4,0.9,0.7,1.3,1l-0.4,0.5c-0.4-0.4-0.8-0.7-1.2-1.1L26.6,20z M27.3,22.2
			c0.1,0.1,0.3,0.2,0.6,0.3c-0.3,0.8-0.5,1.7-0.8,2.8L26.4,25C26.8,24.1,27.1,23.2,27.3,22.2z M26.9,18.1c0.4,0.3,0.8,0.6,1.2,1
			l-0.4,0.5c-0.4-0.4-0.8-0.7-1.2-1L26.9,18.1z M29.3,19.4l0.4,0.4c-0.5,0.4-1,0.8-1.4,1.2c-0.1-0.2-0.2-0.3-0.3-0.4
			C28.4,20.2,28.8,19.8,29.3,19.4z M31.2,20.8v-1.6h-0.8v1.6h-0.5v-1.6h-1.5v-0.5h2.2c-0.1-0.2-0.2-0.4-0.3-0.6l0.5-0.2
			c0.1,0.2,0.2,0.5,0.3,0.8h2.4v0.5h-1.8v1.6C31.7,20.8,31.2,20.8,31.2,20.8z M28.5,21h4.3v1.7h-0.6v-0.2h-3l-0.1,0.6h4
			c0,0.4-0.1,0.8-0.1,1.3c-0.1,0.6-0.4,0.9-1.1,0.9c-0.6,0-1.2,0-1.6,0c0-0.2-0.1-0.4-0.1-0.6c0.6,0,1.1,0.1,1.6,0.1
			c0.4,0,0.6-0.1,0.7-0.4c0-0.2,0.1-0.4,0.1-0.7h-3.9V23l0.3-1h3.5v-0.6h-3.7V21H28.5z M31.9,19.8l0.3-0.4c0.6,0.4,1,0.7,1.4,1
			l-0.4,0.4C32.9,20.5,32.4,20.2,31.9,19.8z"/>
		<path class="st0" d="M35.5,24.8c2.1-0.9,3.2-2.3,3.3-4.1h-3.2V20h3.2c0-0.7,0-1.4,0-2h0.7c0,0.7,0,1.4,0,2h3.3v0.6h-3.3
			c0.4,2,1.5,3.3,3.5,4c-0.3,0.2-0.4,0.4-0.6,0.6c-1.6-0.7-2.7-1.8-3.2-3.5c-0.4,1.5-1.5,2.7-3.3,3.7C35.8,25.2,35.7,25,35.5,24.8z"
			/>
	</g>
	<g>
		<path class="st0" d="M18.6,37.4v-3.8c-0.3,0.1-0.7,0.1-1,0.2c-0.2-0.5-0.4-0.9-0.6-1.3c1.6-0.2,2.9-0.4,4-0.7
			c-0.4-0.2-0.8-0.5-1.1-0.8c-0.5,0.3-0.9,0.6-1.5,0.9c-0.3-0.4-0.6-0.7-0.8-1c1.3-0.5,2.3-1.2,3.1-2.1h1.7
			c-0.1,0.2-0.2,0.3-0.4,0.4h4.2v-0.7H19V30h-1.5v-2.7h4.4l-0.3-0.8l1.9-0.2c0.1,0.3,0.2,0.6,0.4,1h4V30h-1.3v0.4
			C26,31,25.3,31.5,24.5,32c1.1,0.2,2.4,0.4,3.9,0.5l-0.6,1.4c-0.4-0.1-0.7-0.1-1-0.2v3.8h-1.5V37h-4.9v0.5L18.6,37.4L18.6,37.4z
			 M22.6,32.6c-0.9,0.3-2,0.6-3.2,0.9h6.7C24.7,33.3,23.6,33,22.6,32.6z M25.1,34.8h-4.9v0.8h4.9V34.8z M22.7,31.4
			c0.6-0.3,1.2-0.6,1.7-1H21C21.5,30.8,22,31.1,22.7,31.4z"/>
		<path class="st0" d="M29.5,37.5c-0.3-0.5-0.7-0.9-1-1.3c0.3-0.6,0.5-1.3,0.6-2s0.1-1.9,0.1-3.6v-3.8h3.6v9.1c0,0.4-0.1,0.8-0.3,1
			c-0.2,0.3-0.8,0.4-1.8,0.4c-0.1-0.5-0.2-1.1-0.4-1.5c0.2,0,0.5,0.1,0.7,0.1c0.4,0,0.5-0.2,0.5-0.7v-1.4h-1
			C30.4,35.4,30.1,36.6,29.5,37.5z M30.5,32.4h1V31h-1C30.5,31.5,30.5,32,30.5,32.4z M31.5,28.2h-1v1.4h1V28.2z M39.4,30.8v1.3
			c-0.3,1.1-0.7,2-1.3,2.8c0.5,0.4,1,0.7,1.6,0.9c-0.3,0.4-0.6,0.9-0.9,1.5c-0.6-0.3-1.1-0.7-1.6-1.2c-0.5,0.5-1,0.9-1.6,1.3
			c-0.2-0.4-0.4-0.8-0.7-1.2v1.1h-1.4V26.8h5.8c0,1.1,0,1.9-0.1,2.2c-0.1,0.3-0.2,0.6-0.4,0.8s-0.4,0.3-0.7,0.4s-1,0.1-2.2,0.1
			c-0.1-0.4-0.2-0.9-0.3-1.4c0.6,0,1.1,0.1,1.4,0.1c0.2,0,0.4,0,0.5-0.1s0.2-0.3,0.2-0.7h-2.8v2.7h4.5V30.8z M36.2,32.2
			c0.2,0.6,0.5,1.2,0.9,1.7c0.3-0.5,0.6-1.1,0.8-1.7h-3v3.7c0.5-0.2,0.9-0.5,1.3-0.9c-0.5-0.7-0.9-1.4-1.2-2.2L36.2,32.2z"/>
	</g>
	<path class="st0" d="M28.6,41.3c-4.5,0-7.7-2.6-7.7-2.6v1.8c3.9,2.8,7.7,2.5,7.7,2.5s3.7,0.3,7.7-2.5v-1.8
		C36.2,38.8,33,41.3,28.6,41.3z"/>
</g>
<polygon class="st1" points="19,13.4 13.4,19 13.4,41 19,46.6 41,46.6 46.6,41 46.6,19 41,13.4 "/>
</svg>
