<?xml version="1.0" encoding="utf-8"?>
<!-- Generator: Adobe Illustrator 27.0.1, SVG Export Plug-In . SVG Version: 6.00 Build 0)  -->
<svg version="1.1" id="Main-bolder" xmlns="http://www.w3.org/2000/svg" xmlns:xlink="http://www.w3.org/1999/xlink" x="0px"
	 y="0px" viewBox="0 0 60 60" style="enable-background:new 0 0 60 60;" xml:space="preserve">
<style type="text/css">
	.st0{display:none;}
	.st1{display:inline;fill:#FFC303;}
	.st2{display:inline;fill:url(#SVGID_1_);}
	.st3{display:inline;fill:url(#SVGID_00000051373928871681012480000010535234633143467938_);}
	.st4{fill:#E3007F;}
	.st5{fill:#FFFFFF;}
	.st6{fill:url(#SVGID_00000026134897267294439170000007390964894113976498_);}
	.st7{fill:url(#SVGID_00000083081470249242351110000008508410376467623862_);}
	.st8{fill:#FFDC00;}
	.st9{fill:#F19000;}
	.st10{fill:#EB6300;}
</style>
<g class="st0">
	<path class="st1" d="M37.1,30.3c-0.3-0.6-0.8-1.1-1.5-1.5S34,28,32.7,27.5c-1.1-0.4-1.8-0.8-2.1-1c-0.3-0.2-0.4-0.4-0.4-0.6
		c0-0.6,0.4-1,1.3-1c1.5,0,2.9,0.8,4,2.4l1.8-5.1c-1.7-0.6-3.5-1-5.4-1.1v-2h-4v2.2c-1.2,0.2-2.2,0.6-3,1.1c-1.3,0.9-2,2.3-2,4.1
		c0,0.9,0.2,1.7,0.6,2.3c0.4,0.6,0.9,1.1,1.5,1.4s1.3,0.7,2.2,1c1,0.4,1.6,0.7,1.8,0.9c0.2,0.2,0.3,0.5,0.3,0.7
		c0,0.3-0.1,0.5-0.3,0.7c-0.2,0.2-0.5,0.3-0.9,0.3c-0.7,0-1.4-0.2-2.2-0.7c-0.8-0.5-1.4-1.1-1.9-1.9l-1.8,5.4c1.6,0.6,3.5,1,5.6,1.2
		v2.1h4v-2.1c1.5-0.2,2.7-0.6,3.7-1.2c1.3-0.9,2-2.2,2-4C37.7,31.7,37.5,30.9,37.1,30.3z"/>
	
		<linearGradient id="SVGID_1_" gradientUnits="userSpaceOnUse" x1="29.8892" y1="-799.9494" x2="29.8892" y2="-779.207" gradientTransform="matrix(1 0 0 -1 0 -760.11)">
		<stop  offset="0" style="stop-color:#000000"/>
		<stop  offset="1" style="stop-color:#FFFFFF"/>
	</linearGradient>
	<path class="st2" d="M37.1,30.3c-0.3-0.6-0.8-1.1-1.5-1.5S34,28,32.7,27.5c-1.1-0.4-1.8-0.8-2.1-1c-0.3-0.2-0.4-0.4-0.4-0.6
		c0-0.6,0.4-1,1.3-1c1.5,0,2.9,0.8,4,2.4l1.8-5.1c-1.7-0.6-3.5-1-5.4-1.1v-2h-4v2.2c-1.2,0.2-2.2,0.6-3,1.1c-1.3,0.9-2,2.3-2,4.1
		c0,0.9,0.2,1.7,0.6,2.3c0.4,0.6,0.9,1.1,1.5,1.4s1.3,0.7,2.2,1c1,0.4,1.6,0.7,1.8,0.9c0.2,0.2,0.3,0.5,0.3,0.7
		c0,0.3-0.1,0.5-0.3,0.7c-0.2,0.2-0.5,0.3-0.9,0.3c-0.7,0-1.4-0.2-2.2-0.7c-0.8-0.5-1.4-1.1-1.9-1.9l-1.8,5.4c1.6,0.6,3.5,1,5.6,1.2
		v2.1h4v-2.1c1.5-0.2,2.7-0.6,3.7-1.2c1.3-0.9,2-2.2,2-4C37.7,31.7,37.5,30.9,37.1,30.3z"/>
	<path class="st1" d="M31.2,39v-2l0.7-0.1c1.4-0.2,2.5-0.5,3.3-1.1c1.1-0.8,1.6-1.8,1.6-3.3c0-0.7-0.1-1.3-0.4-1.8
		c-0.3-0.5-0.7-0.9-1.2-1.2c-0.6-0.4-1.6-0.8-2.8-1.3c-1.6-0.6-2.1-0.9-2.3-1.1c-0.5-0.4-0.7-0.8-0.7-1.2c0-0.4,0.1-1.8,2.1-1.8
		c1.4,0,2.6,0.5,3.7,1.6l1.1-3.1C35,22.2,33.5,22,32,21.9h-0.8V20h-2.4v2l-0.7,0.1c-1.1,0.2-2,0.5-2.7,1c-1.1,0.8-1.6,1.9-1.6,3.4
		c0,0.8,0.2,1.4,0.5,1.9s0.8,0.9,1.2,1.2c0.5,0.3,1.2,0.6,2.1,1c1.4,0.6,1.8,0.9,2,1.1c0.5,0.5,0.6,0.9,0.6,1.3
		c0,0.4-0.1,0.9-0.7,1.3c-0.4,0.3-0.8,0.4-1.3,0.4c-0.8,0-1.7-0.3-2.6-0.8c-0.4-0.3-0.8-0.6-1.2-0.9l-1.1,3.3c1.4,0.5,3,0.7,4.7,0.9
		h0.7v2h2.5V39z"/>
</g>
<g class="st0">
	<path class="st1" d="M56.2-27c-0.3-0.6-0.8-1.1-1.5-1.5s-1.6-0.8-2.9-1.3c-1.1-0.4-1.8-0.8-2.1-1s-0.4-0.4-0.4-0.6
		c0-0.6,0.4-1,1.3-1c1.5,0,2.9,0.8,4,2.4l1.8-5.1c-1.7-0.6-3.5-1-5.4-1.1v-2h-4v2.2c-1.2,0.2-2.2,0.6-3,1.1c-1.3,0.9-2,2.3-2,4.1
		c0,0.9,0.2,1.7,0.6,2.3c0.4,0.6,0.9,1.1,1.5,1.4s1.3,0.7,2.2,1c1,0.4,1.6,0.7,1.8,0.9c0.2,0.2,0.3,0.5,0.3,0.7
		c0,0.3-0.1,0.5-0.3,0.7s-0.5,0.3-0.9,0.3c-0.7,0-1.4-0.2-2.2-0.7s-1.4-1.1-1.9-1.9l-1.8,5.4c1.6,0.6,3.5,1,5.6,1.2v2.1h4v-2.1
		c1.5-0.2,2.7-0.6,3.7-1.2c1.3-0.9,2-2.2,2-4C56.7-25.7,56.6-26.4,56.2-27z"/>
	
		<linearGradient id="SVGID_00000116212652681285092540000013302308590537150628_" gradientUnits="userSpaceOnUse" x1="48.968" y1="-742.5965" x2="48.968" y2="-721.8541" gradientTransform="matrix(1 0 0 -1 0 -760.11)">
		<stop  offset="0" style="stop-color:#000000"/>
		<stop  offset="1" style="stop-color:#FFFFFF"/>
	</linearGradient>
	<path style="display:inline;fill:url(#SVGID_00000116212652681285092540000013302308590537150628_);" d="M56.2-27
		c-0.3-0.6-0.8-1.1-1.5-1.5s-1.6-0.8-2.9-1.3c-1.1-0.4-1.8-0.8-2.1-1s-0.4-0.4-0.4-0.6c0-0.6,0.4-1,1.3-1c1.5,0,2.9,0.8,4,2.4
		l1.8-5.1c-1.7-0.6-3.5-1-5.4-1.1v-2h-4v2.2c-1.2,0.2-2.2,0.6-3,1.1c-1.3,0.9-2,2.3-2,4.1c0,0.9,0.2,1.7,0.6,2.3
		c0.4,0.6,0.9,1.1,1.5,1.4s1.3,0.7,2.2,1c1,0.4,1.6,0.7,1.8,0.9c0.2,0.2,0.3,0.5,0.3,0.7c0,0.3-0.1,0.5-0.3,0.7s-0.5,0.3-0.9,0.3
		c-0.7,0-1.4-0.2-2.2-0.7s-1.4-1.1-1.9-1.9l-1.8,5.4c1.6,0.6,3.5,1,5.6,1.2v2.1h4v-2.1c1.5-0.2,2.7-0.6,3.7-1.2c1.3-0.9,2-2.2,2-4
		C56.7-25.7,56.6-26.4,56.2-27z"/>
	<path class="st1" d="M50.3-18.3v-2l0.7-0.1c1.4-0.2,2.5-0.5,3.3-1.1c1.1-0.8,1.6-1.8,1.6-3.3c0-0.7-0.1-1.3-0.4-1.8
		c-0.3-0.5-0.7-0.9-1.2-1.2c-0.6-0.4-1.6-0.8-2.8-1.3c-1.6-0.6-2.1-0.9-2.3-1.1c-0.5-0.4-0.7-0.8-0.7-1.2c0-0.4,0.1-1.8,2.1-1.8
		c1.4,0,2.6,0.5,3.7,1.6l1.1-3.1c-1.4-0.4-2.8-0.7-4.4-0.8h-0.8v-1.9h-2.4v2l-0.7,0.1c-1.1,0.2-2,0.5-2.7,1
		c-1.1,0.8-1.6,1.9-1.6,3.4c0,0.8,0.2,1.4,0.5,1.9s0.8,0.9,1.2,1.2c0.5,0.3,1.2,0.6,2.1,1c1.4,0.6,1.8,0.9,2,1.1
		c0.5,0.5,0.6,0.9,0.6,1.3s-0.1,0.9-0.7,1.3c-0.4,0.3-0.8,0.4-1.3,0.4c-0.8,0-1.7-0.3-2.6-0.8c-0.4-0.3-0.8-0.6-1.2-0.9l-1.1,3.3
		c1.4,0.5,3,0.7,4.7,0.9h0.7v2L50.3-18.3L50.3-18.3z"/>
</g>
<g>
	<g>
		<g>
			<path class="st4" d="M48.6,39.8c0,0.4,0.1,1.1-0.3,1.7l0,0c-2.9,3.5-4.3,4.1-7.5,5.6c-2.1,0.8-3.4,1.4-5.7,1.6
				c-0.3,0-1.1-0.2-1.3-0.4c-0.4-0.5-0.5-1.8,0.3-1.9c1.9-0.3,3.9-0.7,6.1-1.6c0-0.1,0-0.1,0-0.2c-0.7-0.6-1-0.9-1.8-1.5l0,0
				c-1,0.5-1.9,0.8-3,1.2c-0.6,0.2-1.3-0.2-1.4-0.8l0,0c-0.2-0.6,0.2-1.3,0.8-1.4c2.8-0.6,4.2-1.4,5.8-3.3c0.1-0.1,0-0.2-0.1-0.2
				c-2,1.2-3.5,1.6-6.1,2.2C33.7,41,33,40.6,32.8,40l0,0c-0.3-0.6,0.1-1.3,0.7-1.4c1.4-0.3,4.1-1.4,4.2-1.6
				c-0.6-0.5-0.9-0.8-1.6-1.3l0,0c-0.5,0.3-1,0.5-1.5,0.8c-0.6,0.3-1.2,0-1.5-0.6c0,0,0,0,0-0.1c-0.3-0.7,0-1.5,0.7-1.8
				c1.2-0.6,2.4-1.3,3.2-2c0.9-0.7,1.1-1.3,1.6-1.7c0.2-0.2,0.4-0.3,0.7-0.4s1.4,0,1.4,0c0.6,0,1,0.7,0.6,1.3
				c-0.1,0.1-0.2,0.2-0.2,0.3l0,0h3.1c0.1,0,0.2,0,0.3,0c0.9,0,1.6,0.1,1.9,0.6l0,0c0,0,0.1,0.3,0.2,0.4c0.2,0.7-0.3,1.3-0.5,1.6
				c-1,1.2-1.8,1.9-3.3,3l0,0l0.7,0.2c0.8,0.2,1.1,1.2,0.5,1.8l0,0l0,0h2.5c0.5,0,0.3,0,0.9,0C48.1,39,48.6,39.4,48.6,39.8z
				 M38.7,33.6c-0.3,0.3-0.4,0.3-0.6,0.5l0,0c0.8,0.5,1.3,0.9,1.9,1.3l0,0c1.1-0.6,1.5-1,2.5-1.9l0,0L38.7,33.6L38.7,33.6z M41.7,41
				c-0.3,0.3-0.5,0.4-0.9,0.6l0,0c0.8,0.5,1.3,1,1.9,1.5l0,0c1-0.6,1.5-1.1,2.5-2.2l0,0L41.7,41L41.7,41z"/>
			<path class="st4" d="M27.6,30c-0.1,0.2-0.1,0.5-0.2,0.8c-0.1,0.5,0,1.2,0.5,1.2h1.2l0,0c1,0,2,0.5,1.8,1.5
				c-0.1,0.4-0.2,0.7-0.6,1.5c-0.6,1-1,1.6-1.6,2.4c0.6,0.3,1.1,0.7,1.9,0.9c0.4,0.1,0.4,0.5,0.4,0.8c-0.1,0.3-0.4,1.2-0.8,1.5
				c-0.3,0.3-0.9,0.3-1.1,0.1c-0.7-0.7-1.3-1.5-1.9-1.5c-0.9,0-1.5,1.1-2.3,1.5c-0.3,0.2-0.8,0-1-0.3c-0.5-0.7-0.5-0.8-0.9-1.3l0,0
				c-0.1,0.9-0.5,1.4-1.3,1.5h1.9c0,0.5,0,0.5,0,1.1c0.1,0,4.1,0,4.1,0c0.1,0,0.3,0,0.4,0c0.7,0,1.3,0.6,1.4,1.3c0,0,0-0.1,0,0v2.4
				c0,1.1-0.2,1.5-0.7,1.9c-0.4,0.3-2.5,0.4-3.1,0.3c-0.4-0.1-0.3-0.6-0.5-1.4c-0.1-0.4,0.2-0.7,0.5-0.7c0.4,0,0.5-0.1,0.8-0.1
				c0.5,0,0.6-0.1,0.6-0.6v-0.6h-3.5l0,0c0,0,0,1.6,0,2.9c0,0.9-0.7,1.5-1.5,1.5H22c-0.8,0-1.5-0.7-1.5-1.5c0-1.3,0-2.9,0-2.9l0,0
				h-3.1l0,0c0,0,0,1.4,0,2.5c0,0.6-0.5,1.2-1.1,1.2H16c-0.7,0-1.2-0.6-1.2-1.2c0-1.8,0-4.9,0-4.9l0,0c0,0,0.9,0,1.7,0h4
				c0-0.4,0-0.8,0-1l0,0l0,0c-0.2,0-0.7-0.1-0.7-0.5c0-0.5,0-0.3,0-0.8c0-0.3,0.2-0.5,0.4-0.5l0,0c0.3,0,0.4-0.1,0.4-0.3v-0.6
				l-0.1,0.1c-0.3,0.2-0.8,0.1-1-0.3c-0.1-0.3-0.2-0.5-0.3-0.7v2.2c0,0.8,0,0.8,0,1.4h-2.1c0-0.7,0-0.5,0-1.4v-1.6
				c-0.1,0.6-0.2,1-0.4,1.4c-0.1,0.4-0.6,0.6-1,0.3c-0.1,0-0.1-0.1-0.2-0.1v0.3c0,1.2-0.9,1.3-0.9,1.3h-0.2c-0.5,0-1-0.4-1-1
				c0-0.2,0-0.3,0-0.6v-4.6c0-0.1,0-0.3,0-0.4c0-0.5,0.6-0.9,1.1-0.9l0,0l0,0c-0.2-0.4-0.2-0.6-0.4-1c-0.3-0.8,0.1-1.6,0.9-1.6l0,0
				c0.3,0,0.6,0.1,1,0.4c0.5,0.7,0.3,0.4,0.7,1.1v-0.8c0-0.1,0-0.4,0-0.6c0-0.5,0.2-0.9,0.7-0.9h1c0.5,0,0.6,0.5,0.6,1
				c0,0.2,0,0.4,0,0.6v0.7c0.7-1,0.7-1.2,1.5-1.7c0.2-0.1,0.8-0.1,0.8-0.1c0.4,0.1,0.9,0.6,0.7,1.2c-0.2,0.7-0.2,0.7-0.6,1.5
				c0.5,0,1.2,0.2,1.2,0.5c0.9-1.2,1.8-2.7,2-3.7 M17.2,32.3L16,33.2l0,0h1.2l0,0V32.3L17.2,32.3z M15.8,35.6v2.3l0,0
				c0.2-0.6,0.5-1.1,0.7-1.9l0,0c0.1,0.1,0.7,0.4,0.8,0.5l0,0v-0.9l0,0H16C16,35.6,15.8,35.6,15.8,35.6z M20.8,35.6h-1.3l0,0v0.8
				l0,0l0.7-0.5l0,0c0.2,0.3,0.2,0.3,0.6,1.2C20.8,36.9,20.8,35.8,20.8,35.6L20.8,35.6z M20.2,33.2h0.5l-1.3-0.9l0,0v0.8l0,0h0.8
				V33.2z M23,38.7c0.7-0.3,1.3-0.6,2-1.1l0,0c-0.3-0.4-1.7-2.1-2-2.5l0,0C23,35.5,23,38.4,23,38.7L23,38.7z M25.6,34.4L25.6,34.4
				c0.1,0.8,0.7,1.5,1.2,2l0,0c0.4-0.5,1-1.2,1.1-2l0,0H25.6z"/>
		</g>
		<path class="st5" d="M39.7,14.3c-0.8,0-1,0.1-1.4,0.9c0-0.9,0-1.1-0.8-1.4c0.8,0,1-0.1,1.4-0.9C38.9,13.7,39,13.9,39.7,14.3z"/>
	</g>
	<g>
		<g>
			<path class="st4" d="M15.7,25.1L15.7,25.1c-1.1,0-1.9-0.9-1.9-1.9v-9.8c0-1.1,0.9-1.9,1.9-1.9l0,0c1.1,0,1.9,0.9,1.9,1.9v9.8
				C17.7,24.2,16.8,25.1,15.7,25.1z"/>
			<g>
				
					<linearGradient id="SVGID_00000047740529962267156500000012118253643684787596_" gradientUnits="userSpaceOnUse" x1="1058.5521" y1="-115.8785" x2="1071.1989" y2="-115.8785" gradientTransform="matrix(1 0 0 -1 -1044.7856 -97.2785)">
					<stop  offset="0.3184" style="stop-color:#E3007F"/>
					<stop  offset="1" style="stop-color:#574B9C"/>
				</linearGradient>
				<path style="fill:url(#SVGID_00000047740529962267156500000012118253643684787596_);" d="M13.8,18.4v4.7c0,1.1,0.9,2,2,2l0,0
					c1.1,0,2-0.9,2-2v-4.7c0-1.3,1.1-2.4,2.4-2.4l0,0c1.3,0,2.4,1.1,2.4,2.4v4.7c0,1.1,0.9,2,2,2l0,0c1.1,0,2-0.9,2-2v-4.7
					c0-3.5-2.8-6.3-6.3-6.3l0,0C16.6,12.1,13.8,14.9,13.8,18.4z"/>
				
					<linearGradient id="SVGID_00000011018547593077876940000000451277453898100612_" gradientUnits="userSpaceOnUse" x1="1067.5723" y1="-115.9785" x2="1080.219" y2="-115.9785" gradientTransform="matrix(1 0 0 -1 -1044.7856 -97.2785)">
					<stop  offset="0.3184" style="stop-color:#E3007F"/>
					<stop  offset="1" style="stop-color:#574B9C"/>
				</linearGradient>
				<path style="fill:url(#SVGID_00000011018547593077876940000000451277453898100612_);" d="M35.4,22v1.2c0,1.1-0.9,2-2,2l0,0
					c-1.1,0-2-0.9-2-2v-4.7c0-1.3-1.1-2.4-2.4-2.4l0,0c-1.3,0-2.4,1.1-2.4,2.4v4.7c0,1.1-0.9,2-2,2l0,0c-1.1,0-2-0.9-2-2v-4.7
					c0-3.5,2.8-6.3,6.3-6.3l0,0c2.6,0,4.8,1.5,5.8,3.7C34.7,15.9,33.3,19.1,35.4,22z"/>
			</g>
		</g>
		<g>
			<circle class="st8" cx="41.8" cy="18.3" r="6.9"/>
			<circle class="st9" cx="41.8" cy="18.3" r="5.8"/>
			<path class="st10" d="M47.6,17.7c-1.1,4.6-7.5,6.8-9.8,4.7c0,0,2.3,2.7,6.4,1.2C44.2,23.6,47.9,22.3,47.6,17.7z"/>
		</g>
		<path class="st8" d="M45.2,21L45.2,21l0.2-0.6l0,0l0.6-1.8c0.3-1-0.2-1.6-0.6-1.9c-0.1,0-0.1-0.1-0.2-0.1c0,0,0,0-0.1-0.1l0,0l0,0
			c-0.3-0.1-1-0.3-1.8,0.1c0,0-0.2-0.8-1.3-1c0,0-0.8-0.2-1.2,0.1c0,0,0-0.4-0.7-0.6L39.6,15c0,0-0.3-0.1-0.6,0.4l-1.1,3.8
			c0,0-0.2,0.6,0.3,0.8l1,0.3c0,0,0.5,0.2,0.7-0.6l0.7-2.3c0,0,0,0,0-0.1l0,0c0.1-0.2,0.3-0.3,0.4-0.2c0,0,0.3,0.1,0.3,0.4l-0.5,1.6
			l-0.3,1c0,0-0.2,0.6,0.4,0.7H41l0.8,0.2c0,0,0.2,0.1,0.4-0.1c0.1-0.1,0.2-0.1,0.3-0.3l0.6-2l0.1-0.3c0,0,0-0.1,0-0.2l0,0
			c0.1-0.2,0.3-0.3,0.4-0.2c0.2,0.1,0.3,0.2,0.2,0.4l0,0v0.1l-0.2,0.7l-0.4,1.6v0.1c0,0,0,0.1,0,0.2l0,0v0.1c0,0.2,0.1,0.4,0.3,0.5
			l1,0.3c0,0,0.5,0.2,0.7-0.6V21L45.2,21z"/>
		<path class="st5" d="M39.7,14.2c-0.8,0-1,0.1-1.4,0.9c0-0.9,0-1.1-0.8-1.4c0.8,0,1-0.1,1.4-0.9C38.9,13.7,39,13.9,39.7,14.2z"/>
	</g>
</g>
</svg>
