<?xml version="1.0" encoding="utf-8"?>
<!-- Generator: Adobe Illustrator 23.1.0, SVG Export Plug-In . SVG Version: 6.00 Build 0)  -->
<svg version="1.1" id="Main-bolder" xmlns="http://www.w3.org/2000/svg" xmlns:xlink="http://www.w3.org/1999/xlink" x="0px"
	 y="0px" viewBox="0 0 60 60" style="enable-background:new 0 0 60 60;" xml:space="preserve">
<style type="text/css">
	.st0{fill:none;stroke:#040000;stroke-width:2;stroke-linejoin:bevel;stroke-miterlimit:10;}
	.st1{fill:#231815;}
	.st2{fill:#FF6700;}
	.st3{fill:none;stroke:#FFFFFF;stroke-width:1.2;stroke-linejoin:bevel;stroke-miterlimit:10;}
</style>
<title>index-bill</title>
<g>
	<rect x="14.5" y="24.5" class="st0" width="24.4" height="23.6"/>
	<path class="st1" d="M31.3,34l-2.1-3.5c-0.2-0.1-0.3-0.2-0.5-0.3h-4c-0.2,0.1-0.3,0.2-0.5,0.3l-2,3.5c0,0.2,0,0.4,0,0.6l2.1,3.5
		c0.2,0.1,0.3,0.2,0.5,0.3l0,0v4.4l0.8,0.8H28l0.8-0.8v-4.4l0,0c0.2-0.1,0.3-0.2,0.5-0.3l2.1-3.5C31.3,34.4,31.3,34.2,31.3,34z"/>
	<path class="st0" d="M24.6,26.1"/>
	<path class="st0" d="M24.6,26.1"/>
	<path class="st0" d="M20.2,24.7v-6.1c0-3.1,2.5-5.6,5.6-5.6h1.9c3.1,0,5.6,2.5,5.6,5.6v5c0,0.5-0.1,1-0.2,1.4"/>
	<path class="st0" d="M24.6,26.9"/>
</g>
<g>
	<path class="st2" d="M47.5,30.8L42.9,23c-0.4-0.2-0.7-0.4-1.1-0.6h-8.9c-0.4,0.2-0.7,0.4-1.1,0.6l-4.4,7.8c0,0.5,0,0.8,0,1.3
		l4.6,7.8c0.4,0.2,0.7,0.4,1.1,0.6h8.8c0.4-0.2,0.7-0.4,1.1-0.6l4.5-7.7C47.5,31.6,47.5,31.2,47.5,30.8z"/>
	<g>
		<polyline class="st3" points="34.6,29.8 32.7,31.1 31.4,29.2 		"/>
		<path class="st3" d="M32.7,31.4c0-0.3,0-0.6,0.1-0.9c0.4-2.4,2.5-4.1,5-4.1c2.8,0,5.1,2.3,5.1,5.1s-2.3,5.1-5.1,5.1
			c-2.2,0-4-1.4-4.7-3.3"/>
	</g>
</g>
</svg>
