<?xml version="1.0" encoding="utf-8"?>
<!-- Generator: Adobe Illustrator 23.1.0, SVG Export Plug-In . SVG Version: 6.00 Build 0)  -->
<svg version="1.1" id="Main-bolder" xmlns="http://www.w3.org/2000/svg" xmlns:xlink="http://www.w3.org/1999/xlink" x="0px"
	 y="0px" viewBox="0 0 60 60" style="enable-background:new 0 0 60 60;" xml:space="preserve">
<style type="text/css">
	.st0{fill:none;stroke:#231815;stroke-width:2;stroke-linejoin:bevel;stroke-miterlimit:10;}
	.st1{fill:none;stroke:#FF6700;stroke-width:0.75;stroke-linejoin:bevel;stroke-miterlimit:10;}
	.st2{fill:#FF6700;}
</style>
<title>index-bill</title>
<polygon class="st0" points="19.5,13.9 13.9,19.5 13.9,41.5 19.5,47.1 41.5,47.1 47.1,41.5 47.1,19.5 41.5,13.9 "/>
<g>
	<polygon class="st1" points="38.2,35 30.5,30.5 30.5,39.4 	"/>
	<polygon class="st1" points="22.8,35 22.8,35 30.5,39.4 30.5,30.5 	"/>
	<polygon class="st1" points="42,30.5 40.5,24.7 38.2,26 	"/>
	<polygon class="st1" points="38.2,35 36.3,40.5 40.5,36.3 	"/>
	<polygon class="st1" points="40.5,36.3 42,30.5 38.2,35 	"/>
	<polygon class="st1" points="30.5,21.6 22.8,26 30.5,30.5 	"/>
	<polygon class="st1" points="38.2,35 38.2,26 30.5,30.5 	"/>
	<polygon class="st1" points="22.8,26 22.8,35 30.5,30.5 	"/>
	<polygon class="st1" points="30.5,42 36.3,40.5 30.5,39.4 	"/>
	<polygon class="st1" points="38.2,26 40.5,24.7 36.3,20.5 	"/>
	<polygon class="st1" points="38.2,26 38.2,26 30.5,21.6 30.5,30.5 	"/>
	<polygon class="st1" points="20.5,24.7 19,30.5 22.8,26 	"/>
	<polygon class="st1" points="30.5,39.4 24.7,40.5 30.5,42 	"/>
	<polygon class="st1" points="22.8,26 24.7,20.5 20.5,24.7 	"/>
	<polygon class="st1" points="30.5,19 24.7,20.5 30.5,21.6 	"/>
	<polygon class="st1" points="19,30.5 20.5,36.3 22.8,35 	"/>
	<polygon class="st1" points="22.8,35 20.5,36.3 24.7,40.5 	"/>
	<polygon class="st1" points="36.3,20.5 30.5,19 30.5,21.6 	"/>
</g>
<path class="st2" d="M41.5,24.2l-4.6-4.6l-6.3-1.7l-6.3,1.7l-4.6,4.6L18,30.5l1.7,6.3l4.6,4.6l6.3,1.7h0.1l6.2-1.7l4.6-4.6l1.7-6.3
	L41.5,24.2z M25,40l-4-4l-1.5-5.5L21,25l4-4l5.5-1.5L36,21l4,4l1.5,5.5L40,36l-4,4l-5.5,1.5L25,40z"/>
</svg>
