<?xml version="1.0" encoding="utf-8"?>
<!-- Generator: Adobe Illustrator 26.4.1, SVG Export Plug-In . SVG Version: 6.00 Build 0)  -->
<svg version="1.1" id="Main-bolder" xmlns="http://www.w3.org/2000/svg" xmlns:xlink="http://www.w3.org/1999/xlink" x="0px"
	 y="0px" viewBox="0 0 60 60" style="enable-background:new 0 0 60 60;" xml:space="preserve">
<style type="text/css">
	.st0{display:none;}
	.st1{display:inline;fill:#FFC303;}
	.st2{display:inline;fill:url(#SVGID_1_);}
	.st3{display:inline;fill:url(#SVGID_00000063632239742603474390000015166053728083769493_);}
	.st4{fill:#E40080;}
</style>
<g class="st0">
	<path class="st1" d="M37.1,30.3c-0.3-0.6-0.8-1.1-1.5-1.5S34,28,32.7,27.5c-1.1-0.4-1.8-0.8-2.1-1c-0.3-0.2-0.4-0.4-0.4-0.6
		c0-0.6,0.4-1,1.3-1c1.5,0,2.9,0.8,4,2.4l1.8-5.1c-1.7-0.6-3.5-1-5.4-1.1v-2h-4v2.2c-1.2,0.2-2.2,0.6-3,1.1c-1.3,0.9-2,2.3-2,4.1
		c0,0.9,0.2,1.7,0.6,2.3c0.4,0.6,0.9,1.1,1.5,1.4s1.3,0.7,2.2,1c1,0.4,1.6,0.7,1.8,0.9c0.2,0.2,0.3,0.5,0.3,0.7
		c0,0.3-0.1,0.5-0.3,0.7c-0.2,0.2-0.5,0.3-0.9,0.3c-0.7,0-1.4-0.2-2.2-0.7c-0.8-0.5-1.4-1.1-1.9-1.9l-1.8,5.4c1.6,0.6,3.5,1,5.6,1.2
		v2.1h4v-2.1c1.5-0.2,2.7-0.6,3.7-1.2c1.3-0.9,2-2.2,2-4C37.7,31.7,37.5,30.9,37.1,30.3z"/>
	
		<linearGradient id="SVGID_1_" gradientUnits="userSpaceOnUse" x1="29.8892" y1="821.8394" x2="29.8892" y2="801.097" gradientTransform="matrix(1 0 0 1 0 -782)">
		<stop  offset="0" style="stop-color:#000000"/>
		<stop  offset="1" style="stop-color:#FFFFFF"/>
	</linearGradient>
	<path class="st2" d="M37.1,30.3c-0.3-0.6-0.8-1.1-1.5-1.5S34,28,32.7,27.5c-1.1-0.4-1.8-0.8-2.1-1c-0.3-0.2-0.4-0.4-0.4-0.6
		c0-0.6,0.4-1,1.3-1c1.5,0,2.9,0.8,4,2.4l1.8-5.1c-1.7-0.6-3.5-1-5.4-1.1v-2h-4v2.2c-1.2,0.2-2.2,0.6-3,1.1c-1.3,0.9-2,2.3-2,4.1
		c0,0.9,0.2,1.7,0.6,2.3c0.4,0.6,0.9,1.1,1.5,1.4s1.3,0.7,2.2,1c1,0.4,1.6,0.7,1.8,0.9c0.2,0.2,0.3,0.5,0.3,0.7
		c0,0.3-0.1,0.5-0.3,0.7c-0.2,0.2-0.5,0.3-0.9,0.3c-0.7,0-1.4-0.2-2.2-0.7c-0.8-0.5-1.4-1.1-1.9-1.9l-1.8,5.4c1.6,0.6,3.5,1,5.6,1.2
		v2.1h4v-2.1c1.5-0.2,2.7-0.6,3.7-1.2c1.3-0.9,2-2.2,2-4C37.7,31.7,37.5,30.9,37.1,30.3z"/>
	<path class="st1" d="M31.2,39v-2l0.7-0.1c1.4-0.2,2.5-0.5,3.3-1.1c1.1-0.8,1.6-1.8,1.6-3.3c0-0.7-0.1-1.3-0.4-1.8
		c-0.3-0.5-0.7-0.9-1.2-1.2c-0.6-0.4-1.6-0.8-2.8-1.3c-1.6-0.6-2.1-0.9-2.3-1.1c-0.5-0.4-0.7-0.8-0.7-1.2c0-0.4,0.1-1.8,2.1-1.8
		c1.4,0,2.6,0.5,3.7,1.6l1.1-3.1C35,22.2,33.5,22,32,21.9h-0.8V20h-2.4v2l-0.7,0.1c-1.1,0.2-2,0.5-2.7,1c-1.1,0.8-1.6,1.9-1.6,3.4
		c0,0.8,0.2,1.4,0.5,1.9s0.8,0.9,1.2,1.2c0.5,0.3,1.2,0.6,2.1,1c1.4,0.6,1.8,0.9,2,1.1c0.5,0.5,0.6,0.9,0.6,1.3
		c0,0.4-0.1,0.9-0.7,1.3c-0.4,0.3-0.8,0.4-1.3,0.4c-0.8,0-1.7-0.3-2.6-0.8c-0.4-0.3-0.8-0.6-1.2-0.9l-1.1,3.3c1.4,0.5,3,0.7,4.7,0.9
		h0.7v2h2.5V39z"/>
</g>
<g class="st0">
	<path class="st1" d="M56.2-27c-0.3-0.6-0.8-1.1-1.5-1.5s-1.6-0.8-2.9-1.3c-1.1-0.4-1.8-0.8-2.1-1s-0.4-0.4-0.4-0.6
		c0-0.6,0.4-1,1.3-1c1.5,0,2.9,0.8,4,2.4l1.8-5.1c-1.7-0.6-3.5-1-5.4-1.1v-2h-4v2.2c-1.2,0.2-2.2,0.6-3,1.1c-1.3,0.9-2,2.3-2,4.1
		c0,0.9,0.2,1.7,0.6,2.3c0.4,0.6,0.9,1.1,1.5,1.4s1.3,0.7,2.2,1c1,0.4,1.6,0.7,1.8,0.9c0.2,0.2,0.3,0.5,0.3,0.7
		c0,0.3-0.1,0.5-0.3,0.7s-0.5,0.3-0.9,0.3c-0.7,0-1.4-0.2-2.2-0.7s-1.4-1.1-1.9-1.9l-1.8,5.4c1.6,0.6,3.5,1,5.6,1.2v2.1h4v-2.1
		c1.5-0.2,2.7-0.6,3.7-1.2c1.3-0.9,2-2.2,2-4C56.7-25.7,56.6-26.4,56.2-27z"/>
	
		<linearGradient id="SVGID_00000054952615418735708150000016232736904338796206_" gradientUnits="userSpaceOnUse" x1="48.968" y1="764.4865" x2="48.968" y2="743.7441" gradientTransform="matrix(1 0 0 1 0 -782)">
		<stop  offset="0" style="stop-color:#000000"/>
		<stop  offset="1" style="stop-color:#FFFFFF"/>
	</linearGradient>
	<path style="display:inline;fill:url(#SVGID_00000054952615418735708150000016232736904338796206_);" d="M56.2-27
		c-0.3-0.6-0.8-1.1-1.5-1.5s-1.6-0.8-2.9-1.3c-1.1-0.4-1.8-0.8-2.1-1s-0.4-0.4-0.4-0.6c0-0.6,0.4-1,1.3-1c1.5,0,2.9,0.8,4,2.4
		l1.8-5.1c-1.7-0.6-3.5-1-5.4-1.1v-2h-4v2.2c-1.2,0.2-2.2,0.6-3,1.1c-1.3,0.9-2,2.3-2,4.1c0,0.9,0.2,1.7,0.6,2.3
		c0.4,0.6,0.9,1.1,1.5,1.4s1.3,0.7,2.2,1c1,0.4,1.6,0.7,1.8,0.9c0.2,0.2,0.3,0.5,0.3,0.7c0,0.3-0.1,0.5-0.3,0.7s-0.5,0.3-0.9,0.3
		c-0.7,0-1.4-0.2-2.2-0.7s-1.4-1.1-1.9-1.9l-1.8,5.4c1.6,0.6,3.5,1,5.6,1.2v2.1h4v-2.1c1.5-0.2,2.7-0.6,3.7-1.2c1.3-0.9,2-2.2,2-4
		C56.7-25.7,56.6-26.4,56.2-27z"/>
	<path class="st1" d="M50.3-18.3v-2l0.7-0.1c1.4-0.2,2.5-0.5,3.3-1.1c1.1-0.8,1.6-1.8,1.6-3.3c0-0.7-0.1-1.3-0.4-1.8
		c-0.3-0.5-0.7-0.9-1.2-1.2c-0.6-0.4-1.6-0.8-2.8-1.3c-1.6-0.6-2.1-0.9-2.3-1.1c-0.5-0.4-0.7-0.8-0.7-1.2c0-0.4,0.1-1.8,2.1-1.8
		c1.4,0,2.6,0.5,3.7,1.6l1.1-3.1c-1.4-0.4-2.8-0.7-4.4-0.8h-0.8v-1.9h-2.4v2l-0.7,0.1c-1.1,0.2-2,0.5-2.7,1
		c-1.1,0.8-1.6,1.9-1.6,3.4c0,0.8,0.2,1.4,0.5,1.9s0.8,0.9,1.2,1.2c0.5,0.3,1.2,0.6,2.1,1c1.4,0.6,1.8,0.9,2,1.1
		c0.5,0.5,0.6,0.9,0.6,1.3s-0.1,0.9-0.7,1.3c-0.4,0.3-0.8,0.4-1.3,0.4c-0.8,0-1.7-0.3-2.6-0.8c-0.4-0.3-0.8-0.6-1.2-0.9l-1.1,3.3
		c1.4,0.5,3,0.7,4.7,0.9h0.7v2L50.3-18.3L50.3-18.3z"/>
</g>
<g>
	<g>
		<path class="st4" d="M29.7,26.7V15.2c0-0.9-0.2-1.9-1-2.5c-0.9-0.7-2.3-0.8-3.4-0.4c-1.3,0.4-2.2,1.3-2.9,2.4v12h-2.8V15
			c0-1.2-0.7-2.4-1.9-2.9c-1.1-0.4-2.2-0.2-3.2,0.3c-1.1,0.6-1.8,1.6-2.1,2.9v11.3H9.8V10.2h2.8v1.9c0.9-1,1.8-1.8,3.2-2.2
			c1.1-0.3,2.4-0.2,3.6,0.3c1,0.4,1.9,1.1,2.5,2c1.1-1.4,2.6-2.1,4.3-2.3c1.7-0.3,3.7,0,5,1.2c1.1,1,1.5,2.3,1.5,4v11.6H29.7z"/>
		<path class="st4" d="M45.9,26.4c-1.9,0.8-4.5,0.7-6.4-0.1c-1.9-0.8-3.3-2.3-4-4.3c-0.7-2.3-0.7-5.6,0.3-7.7c0.9-2,2.5-3.4,4.6-4
			c2.1-0.6,4.5-0.4,6.3,0.6c1.9,1,2.8,2.3,3.4,4.4c0.6,2.1,0.6,4.5,0.1,6.6C49.5,23.8,47.8,25.6,45.9,26.4z M42.4,12.1
			c-1.7,0.1-3.5,1.2-4.1,3c-0.6,2-0.5,4.3-0.1,6.4c0.3,1.6,1.9,3,3.5,3.2c1.8,0.3,4.1-0.3,5-2.1c1.1-2.3,1-5.6,0.1-7.9
			C46.2,12.8,44.3,12,42.4,12.1z"/>
		<path class="st4" d="M10.3,33.4c-0.4-0.6-0.9-1.6-1-2.3h2c0.3,0.8,0.7,1.7,1.2,2.3H10.3z M25.2,41.4c-0.5-0.4-1.3-1.1-1.6-1.5
			c-0.4,0.4-1,1.1-1.5,1.5h-3c1.2-0.9,2.6-2.1,3.2-3c-0.5-0.6-1.3-1.9-1.7-2.7h-1.8v4.1c0,0.4-0.2,0.8-0.4,1.1
			c-0.3,0.3-0.7,0.4-1.2,0.4h-1.3l-0.6-1.5h1c0.2,0,0.5-0.2,0.5-0.5V36c0-0.4-0.3-0.6-0.7-0.6h-1.2v5.9h-1.9v-5.9h-1.4
			c-0.2,0-0.5,0.2-0.5,0.5v5.5H9.3v-6c0-0.4,0.2-0.8,0.5-1.1c0.3-0.3,0.7-0.4,1.2-0.4H13v-3.3h2v3.3h2.1c0.4,0,0.9,0.2,1.1,0.5
			c0.3,0.3,0.5,0.7,0.5,1.2c1-1.3,1.7-3.2,2.2-5h2c-0.1,0.4-0.3,1.2-0.5,1.7h6v1.5h-1.3c-0.5,1.4-1.4,3.2-2.3,4.5
			c0.9,0.9,2.6,2.4,3.7,3H25.2z M26.7,48.8c-0.4,0.3-0.9,0.4-1.5,0.4H23l-0.6-1.6h2.3c0.3,0,0.5-0.2,0.5-0.6V45
			c0-0.3-0.3-0.6-0.5-0.6h-5v5.8h-1.9v-5.8h-5c-0.2,0-0.5,0.2-0.5,0.5v4.3h-1.9v-4.5c0-0.6,0.2-1.1,0.6-1.3c0.4-0.3,0.8-0.4,1.3-0.4
			h5.5v-1.1h1.9V43h5.7c0.6,0,1.1,0.2,1.4,0.5c0.3,0.3,0.4,0.7,0.4,1.2v2.8C27.2,48.2,27,48.6,26.7,48.8z M12.5,39.9h-1.1
			c0.2-1,0.3-2.4,0.4-3.7h0.9C12.7,37.4,12.6,38.9,12.5,39.9z M15.6,39.4c-0.1-0.9-0.2-2.2-0.3-3.1h1c0,1,0.2,2.3,0.3,3.1H15.6z
			 M17.8,33.4h-2.2c0.4-0.6,0.8-1.4,1-2.3h2.1C18.5,31.8,18.1,32.8,17.8,33.4z M21.9,33.9c-0.2,0.4-0.5,1-0.7,1.5h1.3
			c0.2,0.5,0.6,1.1,1,1.5c0.5-0.8,1.2-2.2,1.5-3H21.9z"/>
		<path class="st4" d="M50.4,43.1c-2.8,3.2-7.3,5.4-11.6,7.1H32c2.6-0.7,5.6-1.7,8.2-2.7c-0.9-1-1.7-2.1-2.4-3.3h2.4
			c0.5,0.8,1.2,1.7,1.8,2.4c2.2-1,4.3-2.4,6.3-4.1h-8.4c-1.2,0.9-2.4,1.8-3.7,2.6h-4.4c4.1-1.9,6.6-3.6,9.3-6.3
			c-1,0.4-2.4,0.8-3.1,1.1h-6.5c2.9-0.7,5.7-1.6,8.4-2.5c-0.7-0.8-1.4-1.7-1.9-2.7h2.4c0.4,0.7,0.9,1.3,1.5,1.9
			c1.9-0.8,3.7-1.7,5.5-2.9h-8.4c-1,1-2.1,2-3.2,2.8h-3.7c3.1-1.8,5.3-3.8,7.1-6h2.6c-0.4,0.6-0.9,1.2-1.3,1.7h8.3
			c0.6,0,1,0.3,1.1,0.7c0.2,0.4,0.1,1-0.2,1.3c-1.7,1.6-5.9,3.7-8.3,4.5h2.8c-0.6,0.7-1.4,1.5-2.2,2.2h7.7c0.5,0,0.9,0.3,1.1,0.7
			C50.8,42.1,50.8,42.7,50.4,43.1z"/>
	</g>
</g>
</svg>
