<?xml version="1.0" encoding="utf-8"?>
<!-- Generator: Adobe Illustrator 23.1.0, SVG Export Plug-In . SVG Version: 6.00 Build 0)  -->
<svg version="1.1" id="Main-bolder" xmlns="http://www.w3.org/2000/svg" xmlns:xlink="http://www.w3.org/1999/xlink" x="0px"
	 y="0px" viewBox="0 0 60 60" style="enable-background:new 0 0 60 60;" xml:space="preserve">
<style type="text/css">
	.st0{fill:none;stroke:#040000;stroke-width:2;stroke-miterlimit:10;}
	.st1{fill:#FF6700;}
</style>
<title>index-business</title>
<g>
	<path class="st0" d="M31.6,24.2l11.9,11.3c0,0,1.7,3.8-2.3,4c0,0,0,2.6-3.8,2.2c0,0-0.5,2.3-4.5,2c0,0-5.9,3.4-18.3-12"/>
	<line class="st0" x1="17.5" y1="19.7" x2="25.9" y2="19.7"/>
	<line class="st0" x1="26.5" y1="37.4" x2="33.5" y2="43.7"/>
	<line class="st0" x1="30.2" y1="35.5" x2="37.6" y2="42.2"/>
	<line class="st0" x1="33.9" y1="33.2" x2="41.3" y2="39.9"/>
	<path class="st0" d="M43,19.9l-11.9-2.4c0,0-6.6,0.4-8.9,9.3c0,0,1.8,4.8,10.2-1.8"/>
	<line class="st0" x1="46.6" y1="32.9" x2="43.5" y2="35.5"/>
	<polygon class="st1" points="14.7,34 8.9,34 8.9,15.9 18.7,17.9 	"/>
	<polygon class="st1" points="45.3,34 51.1,34 51.1,15.9 41.3,17.9 	"/>
</g>
</svg>
