<?xml version="1.0" encoding="utf-8"?>
<!-- Generator: Adobe Illustrator 23.1.0, SVG Export Plug-In . SVG Version: 6.00 Build 0)  -->
<svg version="1.1" id="Main-bolder" xmlns="http://www.w3.org/2000/svg" xmlns:xlink="http://www.w3.org/1999/xlink" x="0px"
	 y="0px" viewBox="0 0 60 60" style="enable-background:new 0 0 60 60;" xml:space="preserve">
<style type="text/css">
	.st0{fill:#231815;}
	.st1{fill:#FF6700;}
</style>
<title>prepaid-balance</title>
<path class="st0" d="M42.8,24.4l-7.5-13.1l-0.9-0.5H19.2l-0.9,0.5l-7.5,13.1v1l7.6,13.1l0.9,0.5h11.4L37,50.1l1.4,0.4l4-2.3l0.4-1.4
	l-6.2-10.7l6.2-10.7V24.4z M40.5,47l-2.3,1.3l-5.7-9.8l2.3-1.3L40.5,47z M35.1,34.6l-4,2.3H19.8l-7-12.1l7-12.1h13.9l7,12.1
	L35.1,34.6z"/>
<path class="st1" d="M27.7,23c-1.1-0.3-2.4-0.7-2.4-1.2c0-0.9,1.3-0.9,1.8-0.9c1.2,0,2.3,0.4,3.2,1.2l0.4,0.3l2-2.2l-0.4-0.3
	c-1.1-0.9-2.4-1.5-3.8-1.7v-2.3h-2.8v2.2c-2.5,0.4-4,1.9-4,4c0,2.7,2.7,3.5,4.8,4.2c1.2,0.4,2.5,0.8,2.5,1.3c0,0.3,0,1-2.2,1
	c-1.3,0-2.6-0.4-3.6-1.3l-0.4-0.3l-1.8,2.5l0.4,0.3c1.3,1,2.8,1.6,4.4,1.8v2.2h2.8v-2.2c2.6-0.5,4.1-2,4.1-4.1
	C32.6,24.5,29.8,23.6,27.7,23z"/>
</svg>
