<?xml version="1.0" encoding="utf-8"?>
<!-- Generator: Adobe Illustrator 23.1.0, SVG Export Plug-In . SVG Version: 6.00 Build 0)  -->
<svg version="1.1" id="圖層_1" xmlns="http://www.w3.org/2000/svg" xmlns:xlink="http://www.w3.org/1999/xlink" x="0px" y="0px"
	 viewBox="0 0 65 65" style="enable-background:new 0 0 65 65;" xml:space="preserve">
<style type="text/css">
	.st0{fill:#231815;}
	.st1{fill:#FF6700;}
</style>
<title>business</title>
<desc>Created with Sketch.</desc>
<polygon class="st0" points="42.3,49.6 42.3,48.6 23.7,48.6 14.1,32.6 23.7,16.4 41.7,16.4 50.9,32.5 41.5,49.1 42.3,49.6 
	42.3,48.6 42.3,49.6 43.2,50.1 53,33 53,32 43.2,14.9 42.3,14.4 23.1,14.4 22.3,14.9 12,32.1 12,33.1 22.3,50.1 23.1,50.6 
	42.3,50.6 43.2,50.1 "/>
<path class="st1" d="M35.4,36.1h-5.2v-0.5c0-0.9,0.1-1.6,0.3-2.1c0.2-0.5,0.5-1.1,0.9-1.5c0.4-0.5,1.3-1.3,2.7-2.4
	c0.7-0.6,1.1-1.1,1.1-1.7c0-0.5-0.1-0.9-0.4-1.2c-0.3-0.3-0.7-0.4-1.3-0.4s-1.2,0.2-1.6,0.6s-0.7,1.2-0.8,2.2l-5.3-0.7
	c0.2-1.9,0.9-3.5,2.1-4.7c1.2-1.2,3.1-1.8,5.7-1.8c2,0,3.6,0.4,4.8,1.2c1.7,1.1,2.5,2.6,2.5,4.5c0,0.8-0.2,1.5-0.6,2.2
	c-0.4,0.7-1.3,1.6-2.6,2.6c-0.9,0.7-1.5,1.3-1.7,1.8C35.5,34.9,35.4,35.4,35.4,36.1z M30,37.5h5.6v4.9H30V37.5z"/>
</svg>
