<?xml version="1.0" encoding="utf-8"?>
<!-- Generator: Adobe Illustrator 23.1.0, SVG Export Plug-In . SVG Version: 6.00 Build 0)  -->
<svg version="1.1" id="圖層_1" xmlns="http://www.w3.org/2000/svg" xmlns:xlink="http://www.w3.org/1999/xlink" x="0px" y="0px"
	 viewBox="0 0 65 65" style="enable-background:new 0 0 65 65;" xml:space="preserve">
<style type="text/css">
	.st0{fill:#FF6700;}
	.st1{fill:#231815;}
</style>
<title>business</title>
<desc>Created with Sketch.</desc>
<polyline class="st0" points="22.2,35.7 42.8,35.7 42.8,33.7 22.2,33.7 "/>
<polyline class="st0" points="22.2,41 42.8,41 42.8,39 22.2,39 "/>
<path class="st1" d="M49,20h-5.2v-2.5h-2V20H23.2v-2.5h-2V20H16l-1,1v25.5l1,1h33l1-1V21L49,20z M21.2,22v2.5h2V22h18.6v2.5h2V22H48
	v5.4H17V22H21.2z M17,45.5V29.4h31v16.1H17z"/>
</svg>
