<?xml version="1.0" encoding="utf-8"?>
<!-- Generator: Adobe Illustrator 23.1.0, SVG Export Plug-In . SVG Version: 6.00 Build 0)  -->
<svg version="1.1" id="圖層_1" xmlns="http://www.w3.org/2000/svg" xmlns:xlink="http://www.w3.org/1999/xlink" x="0px" y="0px"
	 viewBox="0 0 65 65" style="enable-background:new 0 0 65 65;" xml:space="preserve">
<style type="text/css">
	.st0{fill:#231815;}
	.st1{fill:#FF6700;}
</style>
<title>business</title>
<desc>Created with Sketch.</desc>
<path class="st0" d="M48.5,26.2L41,13.1l-1-0.4H25l-0.9,0.5l-7.5,13.1v1l7.5,13.1l0.9,0.5h11.4L42.7,52l1.4,0.4l4-2.3l0.4-1.4
	L42.3,38l6.2-10.7V26.2z M46.2,48.8L44,50.1l-5.7-9.8l2.2-1.3L46.2,48.8z M40.8,36.5l-4,2.3H25.5l-7-12.1l7-12.1h13.9l7,12.1
	L40.8,36.5z"/>
<path class="st1" d="M33.4,24.8c-1.1-0.3-2.4-0.7-2.4-1.2c0-0.8,1.3-0.9,1.8-0.9c1.1,0,2.1,0.4,3.2,1.2l0.4,0.3l2-2.2L38,21.6
	c-1.2-1-2.4-1.6-3.8-1.8v-2.2h-2.8v2.2c-2.5,0.4-4,1.9-4,4c0,2.7,2.7,3.5,4.8,4.2c1.2,0.4,2.5,0.8,2.5,1.3c0,0.3,0,1-2.2,1
	c-1.3,0-2.6-0.4-3.6-1.3l-0.4-0.3l-1.8,2.5l0.3,0.3c1.2,1,3,1.6,4.4,1.8v2.2h2.8v-2.2c2.6-0.5,4.1-2,4.1-4.1
	C38.3,26.3,35.5,25.5,33.4,24.8z"/>
</svg>
