<?xml version="1.0" encoding="utf-8"?>
<!-- Generator: Adobe Illustrator 23.1.0, SVG Export Plug-In . SVG Version: 6.00 Build 0)  -->
<svg version="1.1" id="圖層_1" xmlns="http://www.w3.org/2000/svg" xmlns:xlink="http://www.w3.org/1999/xlink" x="0px" y="0px"
	 viewBox="0 0 65 65" style="enable-background:new 0 0 65 65;" xml:space="preserve">
<style type="text/css">
	.st0{fill:#231815;}
	.st1{fill:#FF6700;}
	.st2{fill:#FFFFFF;}
</style>
<title>business</title>
<desc>Created with Sketch.</desc>
<polygon class="st0" points="49.4,48.4 49.4,47.4 16.9,47.4 18.3,42.4 46.7,42.4 48.5,48.7 49.4,48.4 49.4,47.4 49.4,48.4 
	50.4,48.2 48.4,41.1 47.4,40.4 17.6,40.4 16.6,41.1 14.6,48.2 15.6,49.4 49.4,49.4 50.4,48.2 "/>
<rect x="18" y="16.6" class="st1" width="29.1" height="14.7"/>
<polygon class="st0" points="47.4,36.3 47.4,35.3 18.6,35.3 18.6,17.6 46.4,17.6 46.4,36.3 47.4,36.3 47.4,35.3 47.4,36.3 
	48.4,36.3 48.4,16.6 47.4,15.6 17.6,15.6 16.6,16.6 16.6,36.3 17.6,37.3 47.4,37.3 48.4,36.3 "/>
<path class="st2" d="M33,23.4c-0.6-0.2-1.3-0.4-1.3-0.6c0-0.4,0.7-0.5,1-0.5c0.6,0,1.1,0.2,1.7,0.6l0.2,0.1l1.1-1.2l-0.2-0.2
	c-0.7-0.5-1.3-0.8-2-0.9v-1.2H32v1.2c-1.3,0.2-2.1,1-2.1,2.1c0,1.4,1.4,1.8,2.6,2.2c0.7,0.2,1.3,0.4,1.3,0.7c0,0.1,0,0.5-1.2,0.5
	c-0.7,0-1.4-0.2-1.9-0.7l-0.2-0.2l-1,1.3l0.2,0.2c0.6,0.5,1.6,0.8,2.3,0.9V29h1.5v-1.2c1.4-0.2,2.2-1,2.2-2.2
	C35.6,24.2,34.1,23.8,33,23.4z"/>
</svg>
