<?xml version="1.0" encoding="utf-8"?>
<!-- Generator: Adobe Illustrator 23.1.0, SVG Export Plug-In . SVG Version: 6.00 Build 0)  -->
<svg version="1.1" id="圖層_1" xmlns="http://www.w3.org/2000/svg" xmlns:xlink="http://www.w3.org/1999/xlink" x="0px" y="0px"
	 viewBox="0 0 65 65" style="enable-background:new 0 0 65 65;" xml:space="preserve">
<style type="text/css">
	.st0{fill:#040000;}
	.st1{fill:#FF6700;}
	.st2{fill:#FFFFFF;}
</style>
<title>business</title>
<desc>Created with Sketch.</desc>
<g>
	<path class="st0" d="M45.5,32.1l-2-7.5l-0.3-0.4l-5.5-5.5l-0.4-0.3l-7.6-2h-0.5h-0.1l0,0l-7.5,2l-0.4,0.3l-5.4,5.5l-0.3,0.4
		l-2.1,7.6v0.5l2,7.5l0.3,0.5l5.6,5.6l0.4,0.3l7.6,2h0.5l0.3-0.1l0.1,0.1c0,0,0-0.1,0.1-0.1l7.1-1.9l0.4-0.3l5.5-5.5l0.3-0.4l2-7.6
		L45.5,32.1z M43.2,31.3h-6.9c0-1.5-0.3-3-0.7-4.6c1.7-0.5,3.4-1.3,5.1-2.3l0.9,0.9L43.2,31.3z M29.4,45.9c-1.6-1.9-2.8-3.8-3.6-5.7
		C27,40,28.2,40,29.3,40c1.2,0,2.3,0.1,3.3,0.2c-0.4,0.9-0.8,1.8-1.2,2.6C30.7,44.1,30,45.2,29.4,45.9z M29.3,38
		c-1.3,0-2.8,0.1-4.2,0.3c-0.5-1.7-0.8-3.3-0.8-4.9h9.9c-0.1,1.7-0.5,3.4-0.9,4.9C32.1,38.1,30.7,38,29.3,38z M24.4,31.3
		c0.1-1.5,0.4-3,0.8-4.3c1.5,0.3,3.1,0.5,4.8,0.5c1.2,0,2.4-0.1,3.7-0.3c0.4,1.4,0.6,2.8,0.6,4.1C34.3,31.3,24.4,31.3,24.4,31.3z
		 M29.2,19c1.8,2.1,3.1,4.2,3.9,6.3c-1,0.2-2.1,0.3-3,0.3c-1.5,0-2.9-0.2-4.1-0.4c0.4-1.1,0.9-2,1.3-2.9
		C27.9,20.9,28.7,19.8,29.2,19z M39.3,23c-1.4,0.9-2.8,1.5-4.2,1.9c-0.7-2-1.8-4-3.4-6l4.8,1.3L39.3,23z M22.4,20.2l4.5-1.2
		c-0.4,0.7-0.9,1.4-1.4,2.3c-0.5,1-1.1,2.1-1.5,3.4c-0.6-0.2-1.2-0.4-1.8-0.6c-1-0.4-1.8-0.8-2.3-1.1c-0.1,0-0.1-0.1-0.2-0.1
		L22.4,20.2z M17.3,25.3l0.9-0.9c0.7,0.4,2.5,1.4,5.1,2.2c-0.4,1.5-0.8,3.1-0.9,4.8h-6.8L17.3,25.3z M15.6,33.3h6.7
		c0,1.7,0.3,3.5,0.8,5.3c-1.6,0.4-3.2,0.9-4.9,1.7v0.1l-1.1-1.1L15.6,33.3z M19.8,41.9c1.3-0.6,2.7-1,4-1.3c0.7,1.7,1.6,3.4,2.9,5.1
		l-4.3-1.1L19.8,41.9z M36.5,44.5L32,45.7c0.4-0.6,0.8-1.3,1.2-2c0.5-0.9,1-2,1.5-3.2c1,0.2,1.8,0.4,2.6,0.6c0.8,0.2,1.5,0.4,2,0.6
		L36.5,44.5z M40.8,40.1c-0.8-0.3-2.8-1-5.5-1.6c0.5-1.6,0.8-3.3,0.9-5.2h6.9l-1.6,6L40.8,40.1z"/>
	<path class="st0" d="M30.1,48.4L30.1,48.4L30.1,48.4z"/>
</g>
<path class="st1" d="M51.6,31.8L47,23.9c-0.4-0.2-0.7-0.4-1.1-0.6H37c-0.4,0.2-0.7,0.4-1.1,0.6l-4.4,7.8c0,0.5,0,0.8,0,1.3l4.6,7.8
	c0.4,0.2,0.7,0.4,1.1,0.6H46c0.4-0.2,0.7-0.4,1.1-0.6l4.5-7.7C51.6,32.6,51.6,32.2,51.6,31.8z"/>
<path class="st2" d="M40.2,27.2h2.7v2.4h-2.7V27.2z M40.2,31.4h2.7v6.1h-2.7V31.4z"/>
</svg>
