<?xml version="1.0" encoding="utf-8"?>
<!-- Generator: Adobe Illustrator 23.1.0, SVG Export Plug-In . SVG Version: 6.00 Build 0)  -->
<svg version="1.1" id="圖層_1" xmlns="http://www.w3.org/2000/svg" xmlns:xlink="http://www.w3.org/1999/xlink" x="0px" y="0px"
	 viewBox="0 0 65 65" style="enable-background:new 0 0 65 65;" xml:space="preserve">
<style type="text/css">
	.st0{fill:#FF6700;}
	.st1{fill:#FFFFFF;}
	.st2{fill:#231815;}
</style>
<title>business</title>
<desc>Created with Sketch.</desc>
<path class="st0" d="M48.7,29.8h-1c0,4-1.6,7.6-4.2,10.2c-2.6,2.6-6.2,4.2-10.2,4.2s-7.6-1.6-10.2-4.2c-2.6-2.6-4.2-6.2-4.2-10.2
	s1.6-7.6,4.2-10.2s6.2-4.2,10.2-4.2s7.6,1.6,10.2,4.2c2.6,2.6,4.2,6.2,4.2,10.2H48.7h1c0-9.1-7.4-16.4-16.5-16.4
	s-16.5,7.3-16.5,16.4s7.4,16.4,16.5,16.4s16.5-7.3,16.5-16.4C49.7,29.8,48.7,29.8,48.7,29.8z"/>
<path class="st0" d="M43.7,29.8h-1c0,2.6-1.1,4.9-2.8,6.6c-1.7,1.7-4.1,2.8-6.7,2.8s-5-1.1-6.7-2.8s-2.8-4-2.8-6.6s1.1-4.9,2.8-6.6
	c1.7-1.7,4.1-2.8,6.7-2.8s5,1.1,6.7,2.8c1.7,1.7,2.8,4,2.8,6.6L43.7,29.8l1,0c0-6.3-5.1-11.4-11.5-11.4c-6.3,0-11.5,5.1-11.5,11.4
	s5.1,11.4,11.5,11.4c6.3,0,11.5-5.1,11.5-11.4C44.7,29.8,43.7,29.8,43.7,29.8z"/>
<path class="st1" d="M40.5,34.7l-1.2-5.8l9.5-9.5l-0.4-4.6l-4.6-0.4l-9.1,9.1l-9-2.2L16,18.6l-1.6,1.6l-1.6,1.6l7.9,4.2
	c3.4,1.8,6.3,3.3,7.5,4l-7.6,7.6H16L13.5,40l7,7l0,0l2.7,2.7l2.4-2.4v-4.7l7.3-7.3c0.8,1.4,1.9,3.7,3.2,6.2c2.2,4.3,4.1,7.8,4.1,7.9
	c0.1,0.1,0.5-0.3,1.7-1.5l1.6-1.6l-0.5-2C42.7,43.1,41.6,38.8,40.5,34.7z"/>
<path class="st2" d="M40.5,34.7l1-0.2l-1.1-5.3l9.1-9.1l0.3-0.8l-0.4-4.6l-0.9-0.9l-4.6-0.4l-0.8,0.3l-8.7,8.7l-8.4-2l-9.8-2.6
	l-1,0.3l-1.6,1.6L12,21.2l0.2,1.6l7.9,4.2c3.4,1.8,6.3,3.3,7.5,4l0.5-0.9l-0.7-0.7L20,36.7h-4.2L15.1,37l-2.4,2.4v1.4l7,7l1.6-0.3
	l0,0L20.4,47l-0.7,0.7l2.7,2.7h1.4l2.4-2.4l0.3-0.7V43l7-7l-0.7-0.7l-0.9,0.5c0.8,1.4,1.9,3.7,3.2,6.2c1.1,2.1,2.1,4.1,2.9,5.5
	c0.4,0.7,0.7,1.3,0.9,1.7c0.1,0.2,0.2,0.4,0.3,0.5l0.1,0.1l0,0l0,0v0.1l0,0c0.1,0.1,0.2,0.3,0.4,0.4c0.2,0.1,0.3,0.1,0.5,0.1
	c0.3,0,0.4-0.1,0.5-0.1c0.2-0.1,0.2-0.2,0.4-0.2c0.3-0.3,0.8-0.7,1.5-1.4l1.6-1.6l0.3-1l-0.5-2c-0.3-1.1-1.4-5.4-2.5-9.6L40.5,34.7
	l1-0.2L40.5,34.7l-1,0.3c1.1,4.1,2.2,8.5,2.5,9.6l0.4,1.5l-1.2,1.2c-0.5,0.5-0.9,0.9-1.2,1.1c-0.1,0.1-0.2,0.2-0.2,0.2l0,0L40,49
	l-0.2-0.5h-0.1L40,49l-0.2-0.5l0.4,0.8v-0.9c-0.2,0-0.3,0.1-0.4,0.1l0.4,0.8v-0.9v1l0.4-0.9c-0.2-0.1-0.3-0.1-0.4-0.1v1l0.4-0.9
	l-0.4,0.9l0.8-0.5c-0.1-0.1-0.2-0.3-0.4-0.4l-0.4,0.9l0.8-0.5l0,0l-0.7,0.5l0.8-0.4l0,0l-0.7,0.5l0.8-0.4h-0.1h0.1l0,0h-0.1h0.1
	c0,0-0.2-0.3-0.4-0.7c-0.7-1.3-2.1-4-3.7-7.1c-1.3-2.5-2.5-4.7-3.2-6.2l-1.6-0.2L25,42.2l-0.3,0.7v4.3l-1.4,1.4l-2-2l-1.6,0.3l0,0
	l0.9,0.4l0.7-0.7L14.9,40l1.4-1.4h4.2l0.7-0.3l7.6-7.6l-0.2-1.6c-1.2-0.6-4.1-2.2-7.5-4l-6.7-3.5L15,21l1.2-1.2l9.2,2.4l0,0l9,2.2
	l0.9-0.3l8.7-8.7l3.3,0.3l0.3,3.3l-9.2,9.2L38.3,29l1.2,5.8l0,0L40.5,34.7z"/>
</svg>
