<?xml version="1.0" encoding="utf-8"?>
<!-- Generator: Adobe Illustrator 23.1.0, SVG Export Plug-In . SVG Version: 6.00 Build 0)  -->
<svg version="1.1" id="圖層_1" xmlns="http://www.w3.org/2000/svg" xmlns:xlink="http://www.w3.org/1999/xlink" x="0px" y="0px"
	 viewBox="0 0 65 65" style="enable-background:new 0 0 65 65;" xml:space="preserve">
<style type="text/css">
	.st0{fill:#231815;}
	.st1{fill:#FF6700;}
</style>
<title>business</title>
<desc>Created with Sketch.</desc>
<g>
	<path class="st0" d="M12.5,26.9L12.5,26.9L12.5,26.9z"/>
	<path class="st0" d="M43.5,44.8l-0.3-0.7l-5.3-5.3h-1.4l-4,4L22.3,32.6l4-4v-1.4L21,21.9l-0.7-0.3l-4.8-0.1l-0.7,0.3l-0.6,0.7v0.2
		l0,0c-0.5,0.6-0.9,1.4-1.2,2.1l0,0c-0.3,0.7-0.4,1.4-0.5,2.2c0,0.4-0.1,0.9-0.1,1.3c0,2.5,0.7,5,2.1,7.5s3.6,5.2,6.6,8.2
		c8.1,8.1,14.8,8.8,16.6,8.7c0.2,0,0.4,0,0.4,0l0,0c0.7-0.1,1.5-0.2,2.2-0.5c0.8-0.3,1.5-0.7,2.1-1.2l0,0h0.2l0.7-0.6l0.3-0.7
		L43.5,44.8z M39.7,50.2c-0.6,0.2-1.1,0.3-1.7,0.4c0,0-0.1,0-0.3,0c-1.3,0-7.4-0.4-15.2-8.2c-2.9-2.9-5-5.5-6.3-7.8
		s-1.9-4.4-1.9-6.5c0-0.4,0-0.7,0.1-1.1l0,0c0-0.5,0.2-1.1,0.4-1.7s0.5-1.1,0.9-1.6v-0.1l0.2-0.2l3.9,0.1l4.3,4.3l-4,4v1.4
		l11.6,11.6h1.4l4-4l4.3,4.3l0.1,3.9l-0.2,0.2l0,0C40.9,49.7,40.3,50,39.7,50.2z"/>
</g>
<path class="st1" d="M52.6,24.6L51,18.9l-0.3-0.4l-4.2-4.2L46.1,14l-5.8-1.6h-0.5l0,0l0,0l-5.7,1.5l-0.4,0.3l-4.1,4.2l-0.3,0.4
	l-1.6,5.8v0.5l1.5,5.7l0.3,0.5l4.2,4.2l0.4,0.3l5.8,1.5h0.5l0.4-0.1l0,0l0,0l0,0l5.3-1.4l0.4-0.3l4.2-4.2l0.3-0.4l1.5-5.7L52.6,24.6
	z M49.2,30.1l-0.4,0.4c-0.7-0.3-2-0.7-3.8-1.1c0.3-1.1,0.6-2.3,0.7-3.5h4.7L49.2,30.1z M40.1,34.8c-1-1.3-1.8-2.5-2.4-3.7
	C38.5,31,39.3,31,40,31c0.8,0,1.5,0.1,2.2,0.1c-0.2,0.6-0.5,1.1-0.8,1.6C41,33.5,40.5,34.2,40.1,34.8z M40,28.9c-1,0-2,0.1-3,0.2
	c-0.3-1.1-0.5-2.2-0.5-3.2h7.1c-0.1,1.1-0.3,2.2-0.6,3.2C42,29,41.1,28.9,40,28.9z M40,15.1c1.2,1.4,2,2.8,2.6,4.2
	c-0.7,0.1-1.3,0.1-2,0.1c-1,0-1.9-0.1-2.8-0.3c0.3-0.7,0.6-1.3,0.9-1.9C39.1,16.4,39.6,15.7,40,15.1z M40.6,21.5
	c0.8,0,1.7-0.1,2.6-0.2c0.2,0.9,0.4,1.8,0.4,2.6h-7c0.1-1,0.3-1.9,0.5-2.8C38.2,21.3,39.3,21.5,40.6,21.5z M45.6,23.9
	c0-1-0.2-2-0.5-3.1c1.2-0.4,2.4-0.9,3.5-1.6l0.5,0.5l1.1,4.2C50.2,23.9,45.6,23.9,45.6,23.9z M47.2,17.7c-0.9,0.5-1.8,0.9-2.7,1.2
	c-0.5-1.3-1.2-2.6-2.1-3.9l2.9,0.8L47.2,17.7z M34.9,15.8l2.8-0.8c-0.2,0.4-0.5,0.8-0.7,1.3c-0.4,0.7-0.7,1.5-1.1,2.4
	c-0.4-0.1-0.8-0.3-1.1-0.4c-0.7-0.3-1.2-0.5-1.6-0.7L34.9,15.8z M31.6,19.1c0.6,0.3,1.8,1,3.5,1.5c-0.3,1-0.5,2.1-0.6,3.3h-4.6
	l1.2-4.3L31.6,19.1z M29.9,25.9h4.6c0,1.2,0.2,2.4,0.5,3.6c-1.1,0.3-2.2,0.7-3.4,1.2L31,30L29.9,25.9z M33.2,32.2
	c0.8-0.3,1.7-0.6,2.5-0.8c0.4,1.1,1,2.1,1.8,3.2l-2.6-0.7L33.2,32.2z M45.4,33.9l-2.7,0.7c0.2-0.3,0.4-0.7,0.6-1
	c0.4-0.7,0.7-1.4,1-2.3c0.6,0.1,1.3,0.3,1.8,0.4c0.4,0.1,0.8,0.2,1.2,0.3L45.4,33.9z"/>
</svg>
