<?xml version="1.0" encoding="utf-8"?>
<!-- Generator: Adobe Illustrator 23.1.0, SVG Export Plug-In . SVG Version: 6.00 Build 0)  -->
<svg version="1.1" id="圖層_1" xmlns="http://www.w3.org/2000/svg" xmlns:xlink="http://www.w3.org/1999/xlink" x="0px" y="0px"
	 viewBox="0 0 65 65" style="enable-background:new 0 0 65 65;" xml:space="preserve">
<style type="text/css">
	.st0{fill:#040000;}
	.st1{fill:#FF6700;}
	.st2{fill:#FFFFFF;}
</style>
<title>business</title>
<desc>Created with Sketch.</desc>
<g>
	<g>
		<path class="st0" d="M44.4,32.3l-1.8-6.9L42.3,25l-5.1-5.1l-0.4-0.2l-7-1.9h-0.5l0,0l0,0l-6.8,1.9l-0.4,0.2l-5,5l-0.2,0.4l-1.9,7
			v0.5l1.8,6.8L17,40l5.1,5.1l0.4,0.2l6.9,1.8h0.5l0.3-0.1l0.1,0.1c0,0,0,0,0.1-0.1l6.5-1.7l0.4-0.2l5-5l0.2-0.4l1.8-6.9L44.4,32.3z
			 M42.3,31.6H36c0-1.4-0.2-2.8-0.6-4.2c1.5-0.5,3.1-1.2,4.6-2.1l0.8,0.8L42.3,31.6z M29.7,45c-1.5-1.8-2.6-3.5-3.3-5.2
			c1.1-0.1,2.2-0.2,3.2-0.2c1.1,0,2.1,0.1,3,0.2c-0.3,0.8-0.7,1.6-1.1,2.3C30.8,43.3,30.2,44.3,29.7,45z M29.6,37.7
			c-1.2,0-2.5,0.1-3.8,0.3c-0.5-1.5-0.7-3.1-0.7-4.5h9.1c-0.1,1.6-0.4,3.1-0.9,4.5C32.1,37.8,30.9,37.7,29.6,37.7z M25.1,31.6
			c0.1-1.4,0.4-2.7,0.8-4c1.3,0.3,2.8,0.5,4.4,0.5c1.1,0,2.2-0.1,3.4-0.3c0.3,1.3,0.5,2.6,0.6,3.8H25.1z M29.5,20.3
			c1.7,1.9,2.8,3.9,3.5,5.8c-1,0.2-1.9,0.2-2.8,0.2c-1.4,0-2.6-0.2-3.8-0.4c0.4-1,0.8-1.9,1.2-2.7C28.3,22,29,21,29.5,20.3z
			 M38.7,24c-1.3,0.8-2.6,1.4-3.9,1.7c-0.7-1.8-1.7-3.7-3.1-5.5l4.4,1.2L38.7,24z M23.2,21.4l4.1-1.1c-0.4,0.6-0.8,1.3-1.3,2.1
			c-0.5,0.9-1,1.9-1.4,3.1c-0.6-0.2-1.1-0.4-1.6-0.6c-0.9-0.4-1.6-0.7-2.1-1c-0.1,0-0.1-0.1-0.2-0.1L23.2,21.4z M18.6,26.1l0.9-0.9
			c0.6,0.4,2.3,1.3,4.6,2c-0.4,1.4-0.7,2.9-0.8,4.4H17L18.6,26.1z M17,33.5h6.1c0,1.6,0.3,3.2,0.7,4.9c-1.5,0.3-3,0.8-4.4,1.5V40
			l-1.1-1.1L17,33.5z M20.8,41.3c1.2-0.5,2.5-0.9,3.7-1.2c0.6,1.5,1.5,3.1,2.6,4.6l-3.9-1L20.8,41.3z M36.1,43.7l-4.1,1
			c0.3-0.5,0.7-1.2,1.1-1.9c0.5-0.9,0.9-1.9,1.3-2.9c0.9,0.2,1.7,0.4,2.4,0.5c0.7,0.2,1.4,0.4,1.8,0.6L36.1,43.7z M40.1,39.7
			c-0.7-0.3-2.6-1-5-1.4c0.4-1.5,0.8-3.1,0.9-4.8h6.3L40.8,39L40.1,39.7z"/>
		<path class="st0" d="M30.2,47.2L30.2,47.2L30.2,47.2z"/>
	</g>
	<path class="st1" d="M50.1,32.2L45.8,25c-0.4-0.2-0.6-0.4-1-0.6h-8.1c-0.4,0.2-0.7,0.4-1,0.6l-4,7.1c0,0.4,0,0.8,0,1.2l4.2,7.1
		c0.4,0.2,0.6,0.4,1,0.6h8c0.4-0.2,0.6-0.4,1-0.6l4.1-7.1C50.1,32.9,50.1,32.6,50.1,32.2z"/>
	<path class="st2" d="M35.2,30.5c0-0.4,0.1-0.8,0.3-1.2c0.2-0.4,0.5-0.7,0.9-0.9c0.4-0.2,0.8-0.3,1.4-0.3c0.8,0,1.4,0.2,1.8,0.7
		s0.7,1,0.7,1.8c0,0.7-0.2,1.3-0.7,1.8c-0.5,0.5-1.1,0.7-1.8,0.7c-0.5,0-1-0.1-1.4-0.3s-0.7-0.5-0.9-0.9
		C35.3,31.3,35.2,30.9,35.2,30.5z M37,30.5c0,0.5,0.1,0.9,0.3,1.1c0.1,0.2,0.3,0.2,0.5,0.2s0.4-0.1,0.5-0.2c0.2-0.2,0.3-0.6,0.3-1.1
		s-0.1-0.9-0.3-1.1c-0.1-0.2-0.3-0.2-0.5-0.2s-0.4,0.1-0.5,0.2C37.1,29.6,37,30,37,30.5z M43.1,28.1h1.3L39.1,38h-1.3L43.1,28.1z
		 M41.9,35.5c0-0.4,0.1-0.8,0.3-1.2s0.5-0.7,0.9-0.9s0.8-0.3,1.4-0.3c0.8,0,1.4,0.2,1.8,0.7s0.7,1,0.7,1.8c0,0.7-0.2,1.3-0.7,1.8
		c-0.4,0.4-1.1,0.7-1.8,0.7c-0.5,0-1-0.1-1.4-0.3s-0.7-0.5-0.9-0.9S41.9,36,41.9,35.5z M43.7,35.5c0,0.5,0.1,0.9,0.3,1.1
		c0.1,0.2,0.3,0.2,0.5,0.2s0.4-0.1,0.5-0.2c0.2-0.2,0.3-0.6,0.3-1.1s-0.1-0.9-0.3-1.1c-0.1-0.2-0.3-0.2-0.5-0.2s-0.4,0.1-0.5,0.2
		C43.8,34.6,43.7,35,43.7,35.5z"/>
</g>
</svg>
