<?xml version="1.0" encoding="utf-8"?>
<!-- Generator: Adobe Illustrator 23.1.0, SVG Export Plug-In . SVG Version: 6.00 Build 0)  -->
<svg version="1.1" id="圖層_1" xmlns="http://www.w3.org/2000/svg" xmlns:xlink="http://www.w3.org/1999/xlink" x="0px" y="0px"
	 viewBox="0 0 65 65" style="enable-background:new 0 0 65 65;" xml:space="preserve">
<style type="text/css">
	.st0{fill:#231815;}
	.st1{fill:#FF6700;}
</style>
<title>business</title>
<desc>Created with Sketch.</desc>
<g>
	<polygon class="st0" points="30.6,46.9 17.8,46.9 17.1,46.6 13.2,42.7 12.9,42 12.9,18.4 13.2,17.7 17.1,13.8 17.8,13.5 38.6,13.5 
		39.3,13.8 43.2,17.7 43.5,18.4 43.5,28.7 41.5,28.7 41.5,18.8 38.2,15.5 18.3,15.5 14.9,18.8 14.9,41.6 18.3,44.9 29.8,44.9 	"/>
	<rect x="20.3" y="20.1" class="st0" width="15.9" height="2"/>
	<rect x="20.3" y="25.8" class="st0" width="15.9" height="2"/>
	<polygon class="st0" points="30.2,33.6 20.3,33.6 20.3,31.6 32.2,31.6 	"/>
	<polygon class="st0" points="29.6,39.3 20.3,39.3 20.3,37.3 28.6,37.3 	"/>
	<path class="st1" d="M52.1,38.8l-1.5-5.7l-0.3-0.4l-4.2-4.2l-0.4-0.3l-5.8-1.6h-0.5l0,0l0,0l-5.7,1.5l-0.4,0.3L29,32.6L28.7,33
		l-1.6,5.8v0.5l1.5,5.7l0.3,0.5l4.2,4.2l0.4,0.3l5.8,1.5h0.5l0.4-0.1l0,0l0,0l0,0l5.3-1.4l0.4-0.3l4.2-4.2l0.3-0.4l1.5-5.7
		L52.1,38.8z M48.7,44.3l-0.4,0.4c-0.7-0.3-2-0.7-3.8-1.1c0.3-1.1,0.6-2.3,0.7-3.5h4.7L48.7,44.3z M39.6,49c-1-1.3-1.8-2.5-2.4-3.7
		c0.8-0.1,1.6-0.1,2.3-0.1c0.8,0,1.5,0.1,2.2,0.1c-0.2,0.6-0.5,1.1-0.8,1.6C40.5,47.8,40,48.5,39.6,49z M39.5,43.2c-1,0-2,0.1-3,0.2
		c-0.3-1.1-0.5-2.2-0.5-3.2h7.1c-0.1,1.1-0.3,2.2-0.6,3.2C41.5,43.2,40.6,43.2,39.5,43.2z M39.5,29.4c1.2,1.4,2,2.8,2.6,4.2
		c-0.7,0.1-1.3,0.1-2,0.1c-1,0-1.9-0.1-2.8-0.3c0.3-0.7,0.6-1.3,0.9-1.9C38.6,30.6,39.1,29.9,39.5,29.4z M40.1,35.7
		c0.8,0,1.7-0.1,2.6-0.2c0.2,0.9,0.4,1.8,0.4,2.6h-7c0.1-1,0.3-1.9,0.5-2.8C37.7,35.6,38.8,35.7,40.1,35.7z M45.1,38.1
		c0-1-0.2-2-0.5-3.1c1.2-0.4,2.4-0.9,3.5-1.6l0.5,0.5l1.1,4.2C49.7,38.1,45.1,38.1,45.1,38.1z M46.7,31.9c-0.9,0.5-1.8,0.9-2.7,1.2
		c-0.5-1.3-1.2-2.6-2.1-3.9l2.9,0.8L46.7,31.9z M34.4,30l2.8-0.8c-0.2,0.4-0.5,0.8-0.7,1.3c-0.4,0.7-0.7,1.5-1.1,2.4
		c-0.4-0.1-0.8-0.3-1.1-0.4c-0.7-0.3-1.2-0.5-1.6-0.7L34.4,30z M31.1,33.3c0.6,0.3,1.8,1,3.5,1.5c-0.3,1-0.5,2.1-0.6,3.3h-4.6
		l1.2-4.3L31.1,33.3z M29.4,40.1H34c0,1.2,0.2,2.4,0.5,3.6c-1.1,0.3-2.2,0.7-3.4,1.2l-0.6-0.6L29.4,40.1z M32.7,46.4
		c0.8-0.3,1.7-0.6,2.5-0.8c0.4,1.1,1,2.1,1.8,3.2l-2.6-0.7L32.7,46.4z M44.9,48.1l-2.7,0.7c0.2-0.3,0.4-0.7,0.6-1
		c0.4-0.7,0.7-1.4,1-2.3c0.6,0.1,1.3,0.3,1.8,0.4c0.4,0.1,0.8,0.2,1.2,0.3L44.9,48.1z"/>
</g>
</svg>
