<?xml version="1.0" encoding="utf-8"?>
<!-- Generator: Adobe Illustrator 23.1.0, SVG Export Plug-In . SVG Version: 6.00 Build 0)  -->
<svg version="1.1" id="圖層_1" xmlns="http://www.w3.org/2000/svg" xmlns:xlink="http://www.w3.org/1999/xlink" x="0px" y="0px"
	 viewBox="0 0 65 65" style="enable-background:new 0 0 65 65;" xml:space="preserve">
<style type="text/css">
	.st0{fill:#231815;}
	.st1{fill:#FF6700;}
	.st2{fill:#FFFFFF;}
</style>
<title>business</title>
<desc>Created with Sketch.</desc>
<g>
	<path class="st0" d="M21.9,25.3c0.1-0.1,4.2-7.3,4.2-7.4l-0.9-0.5v1c5.7,0,11.3,0,17,0v-1l-0.9,0.5L50,32.4l-8.5,14.2H25.1v1
		l0.9-0.5c-1-1.7-3.9-6.7-4.9-8.5l-1.7,1c1,1.7,3.9,6.7,4.9,8.5l0.9,0.5h17l0.9-0.5l9.1-15.2v-1l-9.1-15l-0.9-0.5
		c-5.7,0-11.3,0-17,0l-0.9,0.5c-0.1,0.1-4.2,7.3-4.2,7.4L21.9,25.3L21.9,25.3z"/>
	<rect x="31.9" y="32.1" class="st0" width="2.3" height="2"/>
	<rect x="36.2" y="32.1" class="st0" width="2.3" height="2"/>
	<rect x="40.5" y="32.1" class="st0" width="2.3" height="2"/>
	<path class="st1" d="M32.9,32.5l-4.6-7.8c-0.4-0.2-0.7-0.4-1.1-0.6h-8.9c-0.4,0.2-0.7,0.4-1.1,0.6l-4.4,7.8c0,0.5,0,0.8,0,1.3
		l4.6,7.8c0.4,0.2,0.7,0.4,1.1,0.6h8.8c0.4-0.2,0.7-0.4,1.1-0.6l4.5-7.7C32.9,33.3,32.9,33,32.9,32.5z"/>
	<path class="st2" d="M26.5,36.7c0.5,0.4,1.1,0.7,1.7,0.9l-0.8,1.5c-0.3-0.1-0.6-0.2-1-0.4c-0.1,0-0.6-0.4-1.4-1
		c-0.7,0.3-1.5,0.5-2.3,0.5c-1.7,0-3-0.5-3.9-1.5s-1.4-2.3-1.4-4.1s0.5-3.1,1.4-4.1S21,27,22.6,27c1.6,0,2.9,0.5,3.8,1.5
		s1.4,2.3,1.4,4.1c0,0.9-0.1,1.7-0.4,2.5C27.2,35.7,26.9,36.2,26.5,36.7z M24.8,35.5c0.3-0.3,0.5-0.7,0.6-1.2s0.2-1,0.2-1.6
		c0-1.2-0.3-2.2-0.8-2.8c-0.5-0.6-1.3-0.9-2.2-0.9s-1.6,0.3-2.2,0.9s-0.8,1.5-0.8,2.8s0.3,2.2,0.8,2.8c0.6,0.6,1.2,0.9,2.1,0.9
		c0.3,0,0.6-0.1,0.9-0.2c-0.4-0.3-0.9-0.5-1.3-0.7l0.6-1.2C23.4,34.6,24.1,35,24.8,35.5z"/>
</g>
</svg>
