<?xml version="1.0" encoding="utf-8"?>
<!-- Generator: Adobe Illustrator 23.1.0, SVG Export Plug-In . SVG Version: 6.00 Build 0)  -->
<svg version="1.1" id="圖層_1" xmlns="http://www.w3.org/2000/svg" xmlns:xlink="http://www.w3.org/1999/xlink" x="0px" y="0px"
	 viewBox="0 0 65 65" style="enable-background:new 0 0 65 65;" xml:space="preserve">
<style type="text/css">
	.st0{fill-rule:evenodd;clip-rule:evenodd;fill:#231815;}
	.st1{fill:#FF6700;}
</style>
<title>search-contract</title>
<desc>Created with Sketch.</desc>
<g id="search-contract">
	<g transform="translate(14.000000, 13.000000)">
		<g id="資產-11" transform="translate(1.000000, 0.000000)">
			<polygon id="Path" class="st0" points="25.7,33.4 4.9,33.4 4.2,33.1 0.3,29.2 0,28.5 0,4.9 0.3,4.2 4.2,0.3 4.9,0 25.7,0 
				26.4,0.3 30.3,4.2 30.6,4.9 30.6,20.5 28.6,20.5 28.6,5.3 25.3,2 5.3,2 2,5.3 2,28.1 5.3,31.4 25.7,31.4 			"/>
			<rect id="Rectangle" x="7.4" y="7.3" class="st0" width="15.9" height="2"/>
			<rect x="7.4" y="13.1" class="st0" width="15.9" height="2"/>
			<rect x="7.4" y="18.8" class="st0" width="15.9" height="2"/>
			<rect x="7.4" y="24.6" class="st0" width="12.3" height="2"/>
			<path id="Shape" class="st1" d="M33,32.9l-0.8-1.4l2.8-4.9v-2l-3.5-5.8l-1.7-1h-6.6l-1.7,1l-3.3,5.8v2l3.5,5.8l1.7,1h5.3l0.8,1.5
				l2.7,4.8l3.5-2L33,32.9z M22.2,25.6l2.2-3.8h4.3l2.3,3.9l-2.2,3.8h-4.3L22.2,25.6z"/>
		</g>
	</g>
</g>
</svg>
