<?xml version="1.0" encoding="utf-8"?>
<!-- Generator: Adobe Illustrator 23.1.0, SVG Export Plug-In . SVG Version: 6.00 Build 0)  -->
<svg version="1.1" id="Main-bolder" xmlns="http://www.w3.org/2000/svg" xmlns:xlink="http://www.w3.org/1999/xlink" x="0px"
	 y="0px" viewBox="0 0 60 60" style="enable-background:new 0 0 60 60;" xml:space="preserve">
<style type="text/css">
	.st0{fill:#231815;}
	.st1{fill:#FF6700;}
</style>
<title>prepaid-balance</title>
<path class="st0" d="M42.8,24.4l-7.5-13.1l-0.9-0.5H19.2l-0.9,0.5l-7.5,13.1v1l7.6,13.1l0.9,0.5h11.4L37,50.1l1.4,0.4l4-2.3l0.4-1.4
	l-6.2-10.7l6.2-10.7C42.8,25.4,42.8,24.4,42.8,24.4z M40.5,47l-2.3,1.3l-5.7-9.8l2.3-1.3L40.5,47z M35.1,34.7l-4,2.3H19.8l-7-12.1
	l7-12.1h13.9l7,12.1L35.1,34.7z"/>
<g>
	<path class="st0" d="M22.4,27.6c-1.3-2-1-4.8,0.7-6.5c0.8-0.8,1.7-1.2,2.7-1.4v-3.3c-1.8,0.2-3.6,1-5,2.4c-3,3-3.3,7.8-0.8,11.2
		L22.4,27.6z"/>
	<path class="st1" d="M28.1,19.7c0.9,0.2,1.7,0.7,2.4,1.4c2.1,2.1,2.1,5.4,0,7.5c-1.8,1.8-4.5,2-6.5,0.7l-2.3,2.3
		c3.3,2.5,8.1,2.3,11.2-0.8c3.3-3.3,3.3-8.7,0-12.1c-1.3-1.3-3-2.1-4.8-2.4L28.1,19.7z"/>
</g>
</svg>
