<?xml version="1.0" encoding="utf-8"?>
<!-- Generator: Adobe Illustrator 23.1.0, SVG Export Plug-In . SVG Version: 6.00 Build 0)  -->
<svg version="1.1" id="圖層_1" xmlns="http://www.w3.org/2000/svg" xmlns:xlink="http://www.w3.org/1999/xlink" x="0px" y="0px"
	 viewBox="0 0 65 65" style="enable-background:new 0 0 65 65;" xml:space="preserve">
<style type="text/css">
	.st0{fill-rule:evenodd;clip-rule:evenodd;fill:#FF6700;}
	.st1{fill:#231815;}
</style>
<title>vip</title>
<desc>Created with Sketch.</desc>
<g id="vip">
	<g transform="translate(11.000000, 15.000000)">
		<g id="資產-13" transform="translate(-1.000000, 0.000000)">
			<polygon id="Path" class="st0" points="28.4,23.5 26,25.8 25.8,26.3 26.4,29.6 25.6,30.2 22.6,28.7 22.1,28.7 19.1,30.2 
				18.3,29.6 18.9,26.3 18.7,25.8 16.3,23.5 16.6,22.5 20,22.1 20.4,21.8 21.9,18.8 22.9,18.8 24.4,21.8 24.8,22.1 28.1,22.5 			"/>
			<path id="Shape" class="st1" d="M43.7,9.6c0-1.4-0.8-2.6-2.1-3.1c-1.3-0.5-2.7-0.2-3.7,0.8s-1.2,2.5-0.6,3.7l-6.9,6.7l-0.7-0.1
				L24.4,6.8c1.1-1,1.5-2.7,0.8-4s-2.2-2-3.7-1.7s-2.5,1.7-2.5,3.2c0,1,0.4,1.9,1.2,2.5L15,17.5l-0.7,0.1l-6.9-6.9
				c0.1-0.4,0.2-0.8,0.2-1.2c0-1.8-1.4-3.2-3.1-3.3S1.2,7.5,1,9.3s1.1,3.3,2.8,3.6L7,30.2c0,0.2,0.2,0.4,0.3,0.6l4.9,4.1
				c0.2,0.1,0.4,0.2,0.6,0.2H32c0.2,0,0.5-0.1,0.6-0.2l4.9-4c0.2-0.1,0.3-0.4,0.3-0.6l3.4-17.5C42.7,12.4,43.7,11.1,43.7,9.6z
				 M22.2,3c0.5,0,1,0.3,1.2,0.8s0.1,1.1-0.3,1.4s-0.9,0.5-1.4,0.3c-0.5-0.2-0.8-0.7-0.8-1.2C20.9,3.6,21.5,3,22.2,3z M3,9.6
				c0-0.5,0.3-1,0.8-1.2s1.1-0.1,1.4,0.3c0.4,0.4,0.5,0.9,0.3,1.4c-0.2,0.5-0.7,0.8-1.2,0.8c-0.3,0-0.7-0.1-0.9-0.4
				C3.1,10.3,3,10,3,9.6z M36,29.5l-4.4,3.6H13.3l-4.4-3.6l-3-16.7l0.5-0.3l7,6.9c0.2,0.2,0.6,0.3,0.9,0.3l1.7-0.3
				c0.3-0.1,0.6-0.3,0.7-0.5l5.3-11.2h0.6l5.7,11.3c0.1,0.3,0.4,0.5,0.7,0.5l1.7,0.3c0.3,0.1,0.6,0,0.9-0.3l7.3-7
				c0.2,0.1,0.3,0.2,0.5,0.2L36,29.5z M40.4,10.9c-0.1,0-0.3,0-0.4-0.1l-0.5-0.3C39.2,10.3,39,10,39,9.6c0-0.7,0.6-1.3,1.3-1.3
				c0.7,0,1.3,0.6,1.3,1.3C41.7,10.3,41.1,10.9,40.4,10.9L40.4,10.9z"/>
		</g>
	</g>
</g>
</svg>
