<svg xmlns="http://www.w3.org/2000/svg" viewBox="0 0 487.82 216"><defs><style>.cls-1{fill:#fff;}.cls-2{fill:#76b900;}</style></defs><g id="圖層_2" data-name="圖層 2"><g id="Layer_1" data-name="Layer 1"><g id="NVIDIA_SHIELD" data-name="NVIDIA SHIELD"><path class="cls-1" d="M74.2,171.64a17.12,17.12,0,0,0-15.73-16.86l-34.13-.15a3.85,3.85,0,0,1-3.89-3.87v-10a3.85,3.85,0,0,1,3.89-3.87H71V118H16.86A17,17,0,0,0,0,135v23.83a16.83,16.83,0,0,0,15.6,16.86H49.87a4,4,0,0,1,3.88,4v13.53a3.84,3.84,0,0,1-3.88,3.88H1.7V216H57.2a17,17,0,0,0,17-17Z"/><polygon class="cls-1" points="109.04 176.5 150.07 176.5 150.07 216 170.52 216 170.52 117.95 150.07 117.95 150.07 157.59 109.04 157.59 109.04 117.95 88.59 117.95 88.59 216 109.04 216 109.04 176.5"/><rect class="cls-1" x="187.14" y="117.95" width="20.6" height="98.05"/><polygon class="cls-1" points="223.98 216 293.22 216 293.22 197.09 244.58 197.09 244.58 176.5 283.64 176.5 283.64 157.59 244.58 157.59 244.58 136.87 293.22 136.87 293.22 117.95 223.98 117.95 223.98 216"/><polygon class="cls-1" points="330.02 117.95 309.57 117.95 309.57 216 372.33 216 372.33 197.09 330.02 197.09 330.02 117.95"/><path class="cls-1" d="M438.17,118H387.6V216h50.57a31.42,31.42,0,0,0,31.38-31.4V149.34A31.42,31.42,0,0,0,438.17,118Zm-30.12,18.92h27.16a13.63,13.63,0,0,1,13.61,13.61v33.15a13.56,13.56,0,0,1-13.61,13.46H408.05Z"/><path class="cls-1" d="M481,118a6.84,6.84,0,1,1-6.82,6.86A6.81,6.81,0,0,1,481,118Zm0,12.35a5.51,5.51,0,1,0-5.42-5.49A5.5,5.5,0,0,0,481,130.34Zm2.8-2.38h-1.48l-1.79-3h-.66v3h-1.36v-6.35h4.09a.9.9,0,0,1,1,1V124a.92.92,0,0,1-1,1H482Zm-2-3.82c.27,0,.46-.11.46-.42V123c0-.23-.15-.39-.46-.39h-1.91v1.52Z"/><g id="NVIDIA_Logo" data-name="NVIDIA Logo"><path id="Eye_Mark" data-name="Eye Mark" class="cls-2" d="M54.61,24.08V16.79c.71-.05,1.43-.09,2.16-.11,20-.63,33.12,17.13,33.12,17.13S75.72,53.43,60.52,53.43a18.54,18.54,0,0,1-5.91-.94V30.39c7.79.93,9.35,4.36,14,12.14l10.41-8.75s-7.6-9.94-20.41-9.94a37.65,37.65,0,0,0-4,.24M54.61,0V10.89c.72-.06,1.44-.1,2.16-.13,27.82-.93,45.94,22.74,45.94,22.74S81.89,58.73,60.21,58.73a32,32,0,0,1-5.6-.49V65a37,37,0,0,0,4.66.3c20.18,0,34.78-10.27,48.91-22.43,2.34,1.87,11.93,6.42,13.91,8.41C108.65,62.46,77.33,71.5,59.58,71.5c-1.71,0-3.35-.1-5-.26V80.7h76.7V0Zm0,52.49v5.75C36,54.92,30.77,35.58,30.77,35.58a40.36,40.36,0,0,1,23.84-11.5v6.31h0c-7.81-.93-13.91,6.34-13.91,6.34S44.09,49,54.61,52.49M21.46,34.74a46.23,46.23,0,0,1,33.15-18v-5.9C30.15,12.85,9,33.5,9,33.5S21,68.08,54.61,71.24V65C29.92,61.87,21.46,34.74,21.46,34.74Z"/><path id="NVIDIA" class="cls-1" d="M269.5,15.25v53h15v-53Zm-118.08-.07v53h15.14V27.94h11.73c3.89,0,6.66,1,8.53,2.95,2.37,2.52,3.34,6.59,3.34,14V68.22h14.67V38.91c0-20.91-13.38-23.73-26.47-23.73h-27m142.24.07v53H318c13,0,17.21-2.15,21.78-7,3.24-3.38,5.33-10.81,5.33-18.93,0-7.45-1.77-14.09-4.86-18.23-5.56-7.39-13.57-8.84-25.53-8.84Zm14.89,11.53H315c9.36,0,15.42,4.2,15.42,15.07S324.37,56.91,315,56.91h-6.46Zm-60.7-11.53-12.52,42-12-42h-16.2l17.14,53H245.9l17.28-53Zm104.26,53h15v-53h-15Zm42.08-52.95-21,52.93H388l3.31-9.35h24.81l3.14,9.35h16.07L414.24,15.27Zm9.74,9.66L413,49.72H394.55Z"/><path class="cls-1" d="M445.2,72A6.82,6.82,0,1,1,452,65.16,6.83,6.83,0,0,1,445.2,72Zm0-12.32a5.51,5.51,0,1,0,5.42,5.5A5.35,5.35,0,0,0,445.2,59.66Zm1.23,9.12L445.11,66h-.78v2.81h-1.62V61.53h3a2.3,2.3,0,0,1,2.42,2.28,2,2,0,0,1-1.34,1.92l1.53,3Zm-1-5.91h-1.13v1.88h1.13a.94.94,0,1,0,0-1.88Z"/></g></g></g></g></svg>