<?xml version="1.0" encoding="UTF-8"?>
<svg width="16px" height="16px" viewBox="0 0 16 16" version="1.1" xmlns="http://www.w3.org/2000/svg" xmlns:xlink="http://www.w3.org/1999/xlink">
    <!-- Generator: Sketch 52.1 (67048) - http://www.bohemiancoding.com/sketch -->
    <title>map</title>
    <desc>Created with Sketch.</desc>
    <g id="map" stroke="none" stroke-width="1" fill="none" fill-rule="evenodd">
        <path d="M14.3708455,5.15918367 L11.5720117,0.494460641 L10.7883382,0 L5.47988338,0 L4.66822157,0.475801749 L2,5.15918367 L2,6.09212828 L7.00058309,15.5055394 L7.83090379,16 L8.59591837,16 L9.46355685,15.5055394 L14.3895044,6.06413994 C14.3801749,5.74693878 14.3801749,5.48571429 14.3708455,5.15918367 Z M8.09212828,7.51020408 C6.78339054,7.51020408 5.72244898,6.44926252 5.72244898,5.14052478 C5.72244898,3.83178704 6.78339054,2.77084548 8.09212828,2.77084548 C9.40086602,2.77084548 10.4618076,3.83178704 10.4618076,5.14052478 C10.4618076,5.76900281 10.2121457,6.37174001 9.76774458,6.81614108 C9.32334351,7.26054216 8.72060631,7.51020408 8.09212828,7.51020408 Z" id="Shape" fill="#1C1C1C" fill-rule="nonzero"></path>
    </g>
</svg>