<svg width="1073" height="583" viewBox="0 0 1073 583" fill="none" xmlns="http://www.w3.org/2000/svg">
<g opacity="0.6" clip-path="url(#clip0_0_140)">
<g filter="url(#filter0_f_0_140)">
<path d="M207.49 288.845H144.144L112.471 233.985L144.144 179.126H207.49L239.163 233.985L207.49 288.845ZM205.998 181.711H145.638L115.458 233.985L145.638 286.259H205.998L236.177 233.985L205.998 181.711Z" fill="url(#paint0_linear_0_140)"/>
<path d="M597.907 123.37H534.561L502.888 68.5106L534.561 13.6511H597.907L629.58 68.5106L597.907 123.37ZM596.414 16.2367H536.054L505.875 68.5106L536.054 120.784H596.414L626.594 68.5106L596.414 16.2367Z" fill="url(#paint1_linear_0_140)"/>
<path d="M972.81 184.13H909.464L877.792 129.271L909.464 74.4114H972.81L1004.48 129.271L972.81 184.13ZM971.318 76.9969H910.958L880.779 129.271L910.958 181.545H971.318L1001.5 129.271L971.318 76.9969Z" fill="url(#paint2_linear_0_140)"/>
<path d="M871.974 242.305H808.628L776.955 187.445L808.628 132.586H871.974L903.647 187.445L871.974 242.305ZM870.482 135.172H810.122L779.942 187.445L810.122 239.719H870.482L900.661 187.445L870.482 135.172Z" fill="url(#paint3_linear_0_140)"/>
<path d="M769.845 300.48H706.499L674.827 245.62L706.499 190.761H769.845L801.518 245.62L769.845 300.48ZM768.353 193.346H707.993L677.814 245.62L707.993 297.894H768.353L798.532 245.62L768.353 193.346Z" fill="url(#paint4_linear_0_140)"/>
<path d="M512.584 83.919H482.85L467.983 58.1684L482.85 32.4178H512.584L527.451 58.1684L512.584 83.919ZM511.092 35.0033H484.344L470.97 58.1684L484.344 81.3335H511.092L524.465 58.1684L511.092 35.0033Z" fill="url(#paint5_linear_0_140)"/>
<path d="M363.592 29.7211H353.896L349.048 21.3244L353.896 12.9277H363.592L368.44 21.3244L363.592 29.7211ZM362.1 15.5133H355.39L352.035 21.3244L355.39 27.1356H362.1L365.454 21.3244L362.1 15.5133Z" fill="url(#paint6_linear_0_140)"/>
<path d="M122.813 147.877H107.3L99.5435 134.442L107.3 121.007H122.813L130.57 134.442L122.813 147.877ZM121.321 123.592H108.794L102.53 134.442L108.794 145.292H121.321L127.584 134.442L121.321 123.592Z" fill="url(#paint7_linear_0_140)"/>
<path d="M88.2317 162.877H78.5359L73.688 154.48L78.5359 146.083H88.2317L93.0796 154.48L88.2317 162.877ZM86.7395 148.669H80.0294L76.6751 154.48L80.0294 160.291H86.7395L90.0939 154.48L86.7395 148.669Z" fill="url(#paint8_linear_0_140)"/>
<path d="M28.7643 156.413H19.0685L14.2206 148.016L19.0685 139.619H28.7643L33.6121 148.016L28.7643 156.413ZM27.272 142.205H20.562L17.2076 148.016L20.562 153.827H27.272L30.6264 148.016L27.272 142.205Z" fill="url(#paint9_linear_0_140)"/>
<path d="M377.489 582.705H268.896L214.6 488.661L268.896 394.617H377.489L431.786 488.661L377.489 582.705ZM375.997 397.203H270.39L217.587 488.661L270.39 580.12H375.997L428.8 488.661L375.997 397.203Z" fill="url(#paint10_linear_0_140)"/>
<path d="M647.678 535.912H546.842L496.424 448.585L546.842 361.259H647.678L698.096 448.585L647.678 535.912ZM646.186 363.844H548.336L499.411 448.585L548.336 533.326H646.186L695.111 448.585L646.186 363.844Z" fill="url(#paint11_linear_0_140)"/>
<path d="M648.971 272.186H548.135L497.717 184.86L548.135 97.5335H648.971L699.389 184.86L648.971 272.186ZM647.479 100.119H549.628L500.704 184.86L549.628 269.601H647.479L696.403 184.86L647.479 100.119Z" fill="url(#paint12_linear_0_140)"/>
<path d="M1009.65 367.851H908.818L858.4 280.525L908.818 193.199H1009.65L1060.07 280.525L1009.65 367.851ZM1008.16 195.784H910.312L861.387 280.525L910.312 365.266H1008.16L1057.09 280.525L1008.16 195.784Z" fill="url(#paint13_linear_0_140)"/>
<path d="M689.047 396.292H588.211L537.793 308.966L588.211 221.64H689.047L739.465 308.966L689.047 396.292ZM687.555 224.225H589.704L540.78 308.966L589.704 393.707H687.555L736.479 308.966L687.555 224.225Z" fill="url(#paint14_linear_0_140)"/>
<path d="M107.946 465.954H44.6007L12.9278 411.095L44.6007 356.235H107.946L139.619 411.095L107.946 465.954ZM106.454 358.821H46.0942L15.9148 411.095L46.0942 463.369H106.454L136.634 411.095L106.454 358.821Z" fill="url(#paint15_linear_0_140)"/>
<path d="M769.845 182.837H706.499L674.827 127.978L706.499 73.1186H769.845L801.518 127.978L769.845 182.837ZM768.353 75.7041H707.993L677.814 127.978L707.993 180.252H768.353L798.532 127.978L768.353 75.7041Z" fill="url(#paint16_linear_0_140)"/>
<path d="M502.888 406.487H439.542L407.869 351.627L439.542 296.768H502.888L534.561 351.627L502.888 406.487ZM501.396 299.353H441.036L410.856 351.627L441.036 403.901H501.396L531.575 351.627L501.396 299.353Z" fill="url(#paint17_linear_0_140)"/>
<path d="M377.489 386.204H268.896L214.6 292.16L268.896 198.116H377.489L431.786 292.16L377.489 386.204ZM375.997 200.701H270.39L217.587 292.16L270.39 383.618H375.997L428.8 292.16L375.997 200.701Z" fill="url(#paint18_linear_0_140)"/>
</g>
<g filter="url(#filter1_f_0_140)" style="mix-blend-mode:plus-lighter">
<path d="M207.491 288.845H144.145L112.472 233.985L144.145 179.126H207.491L239.164 233.985L207.491 288.845ZM205.998 181.711H145.638L115.459 233.985L145.638 286.259H205.998L236.178 233.985L205.998 181.711Z" fill="url(#paint19_linear_0_140)"/>
<path d="M597.908 123.37H534.562L502.889 68.5106L534.562 13.6511H597.908L629.58 68.5106L597.908 123.37ZM596.415 16.2367H536.055L505.876 68.5106L536.055 120.784H596.415L626.595 68.5106L596.415 16.2367Z" fill="url(#paint20_linear_0_140)"/>
<path d="M972.811 184.13H909.465L877.792 129.271L909.465 74.4114H972.811L1004.48 129.271L972.811 184.13ZM971.319 76.9969H910.959L880.779 129.271L910.959 181.545H971.319L1001.5 129.271L971.319 76.9969Z" fill="url(#paint21_linear_0_140)"/>
<path d="M871.975 242.305H808.629L776.956 187.445L808.629 132.586H871.975L903.648 187.445L871.975 242.305ZM870.483 135.172H810.123L779.943 187.445L810.123 239.719H870.483L900.662 187.445L870.483 135.172Z" fill="url(#paint22_linear_0_140)"/>
<path d="M769.846 300.48H706.5L674.827 245.62L706.5 190.761H769.846L801.519 245.62L769.846 300.48ZM768.354 193.346H707.994L677.814 245.62L707.994 297.894H768.354L798.533 245.62L768.354 193.346Z" fill="url(#paint23_linear_0_140)"/>
<path d="M512.585 83.919H482.851L467.984 58.1684L482.851 32.4178H512.585L527.451 58.1684L512.585 83.919ZM511.092 35.0033H484.344L470.971 58.1684L484.344 81.3335H511.092L524.466 58.1684L511.092 35.0033Z" fill="url(#paint24_linear_0_140)"/>
<path d="M363.593 29.7211H353.897L349.049 21.3244L353.897 12.9277H363.593L368.441 21.3244L363.593 29.7211ZM362.101 15.5133H355.39L352.036 21.3244L355.39 27.1356H362.101L365.455 21.3244L362.101 15.5133Z" fill="url(#paint25_linear_0_140)"/>
<path d="M122.814 147.877H107.301L99.5443 134.442L107.301 121.007H122.814L130.571 134.442L122.814 147.877ZM121.322 123.592H108.794L102.531 134.442L108.794 145.292H121.322L127.585 134.442L121.322 123.592Z" fill="url(#paint26_linear_0_140)"/>
<path d="M88.2325 162.877H78.5367L73.6888 154.48L78.5367 146.083H88.2325L93.0804 154.48L88.2325 162.877ZM86.7403 148.669H80.0302L76.6758 154.48L80.0302 160.291H86.7403L90.0947 154.48L86.7403 148.669Z" fill="url(#paint27_linear_0_140)"/>
<path d="M28.765 156.413H19.0693L14.2214 148.016L19.0693 139.619H28.765L33.6129 148.016L28.765 156.413ZM27.2728 142.205H20.5628L17.2084 148.016L20.5628 153.827H27.2728L30.6272 148.016L27.2728 142.205Z" fill="url(#paint28_linear_0_140)"/>
<path d="M377.49 582.705H268.897L214.601 488.661L268.897 394.617H377.49L431.786 488.661L377.49 582.705ZM375.998 397.203H270.391L217.588 488.661L270.391 580.12H375.998L428.801 488.661L375.998 397.203Z" fill="url(#paint29_linear_0_140)"/>
<path d="M647.679 535.912H546.843L496.425 448.585L546.843 361.259H647.679L698.097 448.585L647.679 535.912ZM646.187 363.844H548.337L499.412 448.585L548.337 533.326H646.187L695.111 448.585L646.187 363.844Z" fill="url(#paint30_linear_0_140)"/>
<path d="M648.972 272.186H548.136L497.718 184.86L548.136 97.5335H648.972L699.39 184.86L648.972 272.186ZM647.48 100.119H549.629L500.705 184.86L549.629 269.601H647.48L696.404 184.86L647.48 100.119Z" fill="url(#paint31_linear_0_140)"/>
<path d="M1009.66 367.851H908.819L858.401 280.525L908.819 193.199H1009.66L1060.07 280.525L1009.66 367.851ZM1008.16 195.784H910.312L861.388 280.525L910.312 365.266H1008.16L1057.09 280.525L1008.16 195.784Z" fill="url(#paint32_linear_0_140)"/>
<path d="M689.048 396.292H588.212L537.794 308.966L588.212 221.64H689.048L739.466 308.966L689.048 396.292ZM687.556 224.225H589.705L540.781 308.966L589.705 393.707H687.556L736.48 308.966L687.556 224.225Z" fill="url(#paint33_linear_0_140)"/>
<path d="M769.846 182.837H706.5L674.827 127.978L706.5 73.1186H769.846L801.519 127.978L769.846 182.837ZM768.354 75.7041H707.994L677.814 127.978L707.994 180.252H768.354L798.533 127.978L768.354 75.7041Z" fill="url(#paint34_linear_0_140)"/>
<path d="M502.889 406.487H439.543L407.87 351.627L439.543 296.768H502.889L534.562 351.627L502.889 406.487ZM501.397 299.353H441.037L410.857 351.627L441.037 403.901H501.397L531.576 351.627L501.397 299.353Z" fill="url(#paint35_linear_0_140)"/>
<path d="M377.49 386.204H268.897L214.601 292.16L268.897 198.116H377.49L431.786 292.16L377.49 386.204ZM375.998 200.701H270.391L217.588 292.16L270.391 383.618H375.998L428.801 292.16L375.998 200.701Z" fill="url(#paint36_linear_0_140)"/>
</g>
<g filter="url(#filter2_f_0_140)" style="mix-blend-mode:plus-lighter">
<path d="M207.491 288.845H144.145L112.472 233.985L144.145 179.126H207.491L239.164 233.985L207.491 288.845ZM205.998 181.711H145.638L115.459 233.985L145.638 286.259H205.998L236.178 233.985L205.998 181.711Z" fill="url(#paint37_linear_0_140)"/>
<path d="M597.908 123.37H534.562L502.889 68.5106L534.562 13.6511H597.908L629.58 68.5106L597.908 123.37ZM596.415 16.2367H536.055L505.876 68.5106L536.055 120.784H596.415L626.595 68.5106L596.415 16.2367Z" fill="url(#paint38_linear_0_140)"/>
<path d="M972.811 184.13H909.465L877.792 129.271L909.465 74.4114H972.811L1004.48 129.271L972.811 184.13ZM971.319 76.9969H910.959L880.779 129.271L910.959 181.545H971.319L1001.5 129.271L971.319 76.9969Z" fill="url(#paint39_linear_0_140)"/>
<path d="M871.975 242.305H808.629L776.956 187.445L808.629 132.586H871.975L903.648 187.445L871.975 242.305ZM870.483 135.172H810.123L779.943 187.445L810.123 239.719H870.483L900.662 187.445L870.483 135.172Z" fill="url(#paint40_linear_0_140)"/>
<path d="M769.846 300.48H706.5L674.827 245.62L706.5 190.761H769.846L801.519 245.62L769.846 300.48ZM768.354 193.346H707.994L677.814 245.62L707.994 297.894H768.354L798.533 245.62L768.354 193.346Z" fill="url(#paint41_linear_0_140)"/>
<path d="M512.585 83.919H482.851L467.984 58.1684L482.851 32.4178H512.585L527.451 58.1684L512.585 83.919ZM511.092 35.0033H484.344L470.971 58.1684L484.344 81.3335H511.092L524.466 58.1684L511.092 35.0033Z" fill="url(#paint42_linear_0_140)"/>
<path d="M363.593 29.7211H353.897L349.049 21.3244L353.897 12.9277H363.593L368.441 21.3244L363.593 29.7211ZM362.101 15.5133H355.39L352.036 21.3244L355.39 27.1356H362.101L365.455 21.3244L362.101 15.5133Z" fill="url(#paint43_linear_0_140)"/>
<path d="M122.814 147.877H107.301L99.5443 134.442L107.301 121.007H122.814L130.571 134.442L122.814 147.877ZM121.322 123.592H108.794L102.531 134.442L108.794 145.292H121.322L127.585 134.442L121.322 123.592Z" fill="url(#paint44_linear_0_140)"/>
<path d="M88.2325 162.877H78.5367L73.6888 154.48L78.5367 146.083H88.2325L93.0804 154.48L88.2325 162.877ZM86.7403 148.669H80.0302L76.6758 154.48L80.0302 160.291H86.7403L90.0947 154.48L86.7403 148.669Z" fill="url(#paint45_linear_0_140)"/>
<path d="M28.765 156.413H19.0693L14.2214 148.016L19.0693 139.619H28.765L33.6129 148.016L28.765 156.413ZM27.2728 142.205H20.5628L17.2084 148.016L20.5628 153.827H27.2728L30.6272 148.016L27.2728 142.205Z" fill="url(#paint46_linear_0_140)"/>
<path d="M377.49 582.705H268.897L214.601 488.661L268.897 394.617H377.49L431.786 488.661L377.49 582.705ZM375.998 397.203H270.391L217.588 488.661L270.391 580.12H375.998L428.801 488.661L375.998 397.203Z" fill="url(#paint47_linear_0_140)"/>
<path d="M647.679 535.912H546.843L496.425 448.585L546.843 361.259H647.679L698.097 448.585L647.679 535.912ZM646.187 363.844H548.337L499.412 448.585L548.337 533.326H646.187L695.111 448.585L646.187 363.844Z" fill="url(#paint48_linear_0_140)"/>
<path d="M648.972 272.186H548.136L497.718 184.86L548.136 97.5335H648.972L699.39 184.86L648.972 272.186ZM647.48 100.119H549.629L500.705 184.86L549.629 269.601H647.48L696.404 184.86L647.48 100.119Z" fill="url(#paint49_linear_0_140)"/>
<path d="M1009.66 367.851H908.819L858.401 280.525L908.819 193.199H1009.66L1060.07 280.525L1009.66 367.851ZM1008.16 195.784H910.312L861.388 280.525L910.312 365.266H1008.16L1057.09 280.525L1008.16 195.784Z" fill="url(#paint50_linear_0_140)"/>
<path d="M689.048 396.292H588.212L537.794 308.966L588.212 221.64H689.048L739.466 308.966L689.048 396.292ZM687.556 224.225H589.705L540.781 308.966L589.705 393.707H687.556L736.48 308.966L687.556 224.225Z" fill="url(#paint51_linear_0_140)"/>
<path d="M769.846 182.837H706.5L674.827 127.978L706.5 73.1186H769.846L801.519 127.978L769.846 182.837ZM768.354 75.7041H707.994L677.814 127.978L707.994 180.252H768.354L798.533 127.978L768.354 75.7041Z" fill="url(#paint52_linear_0_140)"/>
<path d="M502.889 406.487H439.543L407.87 351.627L439.543 296.768H502.889L534.562 351.627L502.889 406.487ZM501.397 299.353H441.037L410.857 351.627L441.037 403.901H501.397L531.576 351.627L501.397 299.353Z" fill="url(#paint53_linear_0_140)"/>
<path d="M377.49 386.204H268.897L214.601 292.16L268.897 198.116H377.49L431.786 292.16L377.49 386.204ZM375.998 200.701H270.391L217.588 292.16L270.391 383.618H375.998L428.801 292.16L375.998 200.701Z" fill="url(#paint54_linear_0_140)"/>
</g>
<g filter="url(#filter3_f_0_140)" style="mix-blend-mode:plus-lighter">
<path d="M207.491 288.845H144.145L112.472 233.985L144.145 179.126H207.491L239.164 233.985L207.491 288.845ZM205.998 181.711H145.638L115.459 233.985L145.638 286.259H205.998L236.178 233.985L205.998 181.711Z" fill="url(#paint55_linear_0_140)"/>
<path d="M597.908 123.37H534.562L502.889 68.5106L534.562 13.6511H597.908L629.58 68.5106L597.908 123.37ZM596.415 16.2367H536.055L505.876 68.5106L536.055 120.784H596.415L626.595 68.5106L596.415 16.2367Z" fill="url(#paint56_linear_0_140)"/>
<path d="M972.811 184.13H909.465L877.792 129.271L909.465 74.4114H972.811L1004.48 129.271L972.811 184.13ZM971.319 76.9969H910.959L880.779 129.271L910.959 181.545H971.319L1001.5 129.271L971.319 76.9969Z" fill="url(#paint57_linear_0_140)"/>
<path d="M871.975 242.305H808.629L776.956 187.445L808.629 132.586H871.975L903.648 187.445L871.975 242.305ZM870.483 135.172H810.123L779.943 187.445L810.123 239.719H870.483L900.662 187.445L870.483 135.172Z" fill="url(#paint58_linear_0_140)"/>
<path d="M769.846 300.48H706.5L674.827 245.62L706.5 190.761H769.846L801.519 245.62L769.846 300.48ZM768.354 193.346H707.994L677.814 245.62L707.994 297.894H768.354L798.533 245.62L768.354 193.346Z" fill="url(#paint59_linear_0_140)"/>
<path d="M512.585 83.919H482.851L467.984 58.1684L482.851 32.4178H512.585L527.451 58.1684L512.585 83.919ZM511.092 35.0033H484.344L470.971 58.1684L484.344 81.3335H511.092L524.466 58.1684L511.092 35.0033Z" fill="url(#paint60_linear_0_140)"/>
<path d="M363.593 29.7211H353.897L349.049 21.3244L353.897 12.9277H363.593L368.441 21.3244L363.593 29.7211ZM362.101 15.5133H355.39L352.036 21.3244L355.39 27.1356H362.101L365.455 21.3244L362.101 15.5133Z" fill="url(#paint61_linear_0_140)"/>
<path d="M122.814 147.877H107.301L99.5442 134.442L107.301 121.007H122.814L130.571 134.442L122.814 147.877ZM121.322 123.592H108.794L102.531 134.442L108.794 145.292H121.322L127.585 134.442L121.322 123.592Z" fill="url(#paint62_linear_0_140)"/>
<path d="M88.2325 162.877H78.5367L73.6888 154.48L78.5367 146.083H88.2325L93.0804 154.48L88.2325 162.877ZM86.7403 148.669H80.0302L76.6758 154.48L80.0302 160.291H86.7403L90.0946 154.48L86.7403 148.669Z" fill="url(#paint63_linear_0_140)"/>
<path d="M28.765 156.413H19.0693L14.2214 148.016L19.0693 139.619H28.765L33.6129 148.016L28.765 156.413ZM27.2728 142.205H20.5628L17.2084 148.016L20.5628 153.827H27.2728L30.6272 148.016L27.2728 142.205Z" fill="url(#paint64_linear_0_140)"/>
<path d="M377.49 582.705H268.897L214.601 488.661L268.897 394.617H377.49L431.786 488.661L377.49 582.705ZM375.998 397.203H270.391L217.588 488.661L270.391 580.12H375.998L428.801 488.661L375.998 397.203Z" fill="url(#paint65_linear_0_140)"/>
<path d="M647.679 535.912H546.843L496.425 448.585L546.843 361.259H647.679L698.097 448.585L647.679 535.912ZM646.187 363.844H548.337L499.412 448.585L548.337 533.326H646.187L695.111 448.585L646.187 363.844Z" fill="url(#paint66_linear_0_140)"/>
<path d="M648.972 272.186H548.136L497.718 184.86L548.136 97.5335H648.972L699.39 184.86L648.972 272.186ZM647.48 100.119H549.629L500.705 184.86L549.629 269.601H647.48L696.404 184.86L647.48 100.119Z" fill="url(#paint67_linear_0_140)"/>
<path d="M1009.66 367.851H908.819L858.401 280.525L908.819 193.199H1009.66L1060.07 280.525L1009.66 367.851ZM1008.16 195.784H910.312L861.388 280.525L910.312 365.266H1008.16L1057.09 280.525L1008.16 195.784Z" fill="url(#paint68_linear_0_140)"/>
<path d="M689.048 396.292H588.212L537.794 308.966L588.212 221.64H689.048L739.466 308.966L689.048 396.292ZM687.556 224.225H589.705L540.781 308.966L589.705 393.707H687.556L736.48 308.966L687.556 224.225Z" fill="url(#paint69_linear_0_140)"/>
<path d="M769.846 182.837H706.5L674.827 127.978L706.5 73.1186H769.846L801.519 127.978L769.846 182.837ZM768.354 75.7041H707.994L677.814 127.978L707.994 180.252H768.354L798.533 127.978L768.354 75.7041Z" fill="url(#paint70_linear_0_140)"/>
<path d="M502.889 406.487H439.543L407.87 351.627L439.543 296.768H502.889L534.562 351.627L502.889 406.487ZM501.397 299.354H441.037L410.857 351.627L441.037 403.901H501.397L531.576 351.627L501.397 299.354Z" fill="url(#paint71_linear_0_140)"/>
<path d="M377.49 386.204H268.897L214.601 292.16L268.897 198.116H377.49L431.786 292.16L377.49 386.204ZM375.998 200.701H270.391L217.588 292.16L270.391 383.618H375.998L428.801 292.16L375.998 200.701Z" fill="url(#paint72_linear_0_140)"/>
</g>
<g filter="url(#filter4_f_0_140)" style="mix-blend-mode:plus-lighter">
<path d="M220.418 288.845H157.072L125.399 233.985L157.072 179.126H220.418L252.091 233.985L220.418 288.845ZM218.925 181.711H158.565L128.386 233.985L158.565 286.259H218.925L249.105 233.985L218.925 181.711Z" fill="url(#paint73_linear_0_140)"/>
<path d="M610.834 123.37H547.489L515.816 68.5106L547.489 13.6511H610.834L642.507 68.5106L610.834 123.37ZM609.342 16.2367H548.982L518.803 68.5106L548.982 120.784H609.342L639.522 68.5106L609.342 16.2367Z" fill="url(#paint74_linear_0_140)"/>
<path d="M985.738 184.13H922.392L890.719 129.271L922.392 74.4114H985.738L1017.41 129.271L985.738 184.13ZM984.246 76.9969H923.886L893.706 129.271L923.886 181.545H984.246L1014.43 129.271L984.246 76.9969Z" fill="url(#paint75_linear_0_140)"/>
<path d="M884.902 242.305H821.556L789.883 187.445L821.556 132.586H884.902L916.575 187.445L884.902 242.305ZM883.41 135.172H823.05L792.87 187.445L823.05 239.719H883.41L913.589 187.445L883.41 135.172Z" fill="url(#paint76_linear_0_140)"/>
<path d="M782.773 300.48H719.427L687.754 245.62L719.427 190.761H782.773L814.446 245.62L782.773 300.48ZM781.281 193.346H720.921L690.741 245.62L720.921 297.894H781.281L811.46 245.62L781.281 193.346Z" fill="url(#paint77_linear_0_140)"/>
<path d="M525.512 83.919H495.778L480.911 58.1684L495.778 32.4178H525.512L540.378 58.1684L525.512 83.919ZM524.019 35.0033H497.271L483.898 58.1684L497.271 81.3335H524.019L537.393 58.1684L524.019 35.0033Z" fill="url(#paint78_linear_0_140)"/>
<path d="M376.52 29.7211H366.824L361.976 21.3244L366.824 12.9277H376.52L381.368 21.3244L376.52 29.7211ZM375.027 15.5133H368.317L364.963 21.3244L368.317 27.1356H375.027L378.382 21.3244L375.027 15.5133Z" fill="url(#paint79_linear_0_140)"/>
<path d="M135.741 147.877H120.228L112.471 134.442L120.228 121.007H135.741L143.498 134.442L135.741 147.877ZM134.249 123.592H121.721L115.458 134.442L121.721 145.292H134.249L140.512 134.442L134.249 123.592Z" fill="url(#paint80_linear_0_140)"/>
<path d="M101.16 162.877H91.4637L86.6158 154.48L91.4637 146.083H101.16L106.007 154.48L101.16 162.877ZM99.6673 148.669H92.9572L89.6029 154.48L92.9572 160.291H99.6673L103.022 154.48L99.6673 148.669Z" fill="url(#paint81_linear_0_140)"/>
<path d="M41.6921 156.413H31.9963L27.1484 148.016L31.9963 139.619H41.6921L46.5399 148.016L41.6921 156.413ZM40.1998 142.205H33.4898L30.1354 148.016L33.4898 153.827H40.1998L43.5542 148.016L40.1998 142.205Z" fill="url(#paint82_linear_0_140)"/>
<path d="M390.417 582.705H281.824L227.528 488.661L281.824 394.617H390.417L444.713 488.661L390.417 582.705ZM388.925 397.203H283.318L230.515 488.661L283.318 580.12H388.925L441.728 488.661L388.925 397.203Z" fill="url(#paint83_linear_0_140)"/>
<path d="M660.606 535.912H559.77L509.352 448.585L559.77 361.259H660.606L711.024 448.585L660.606 535.912ZM659.114 363.844H561.264L512.339 448.585L561.264 533.326H659.114L708.038 448.585L659.114 363.844Z" fill="url(#paint84_linear_0_140)"/>
<path d="M661.899 272.186H561.063L510.645 184.86L561.063 97.5335H661.899L712.317 184.86L661.899 272.186ZM660.407 100.119H562.556L513.632 184.86L562.556 269.601H660.407L709.331 184.86L660.407 100.119Z" fill="url(#paint85_linear_0_140)"/>
<path d="M1022.58 367.851H921.746L871.328 280.525L921.746 193.199H1022.58L1073 280.525L1022.58 367.851ZM1021.09 195.784H923.239L874.315 280.525L923.239 365.266H1021.09L1070.01 280.525L1021.09 195.784Z" fill="url(#paint86_linear_0_140)"/>
<path d="M701.975 396.292H601.139L550.721 308.966L601.139 221.64H701.975L752.393 308.966L701.975 396.292ZM700.483 224.225H602.632L553.708 308.966L602.632 393.707H700.483L749.407 308.966L700.483 224.225Z" fill="url(#paint87_linear_0_140)"/>
<path d="M120.874 465.954H57.5285L25.8556 411.095L57.5285 356.235H120.874L152.547 411.095L120.874 465.954ZM119.382 358.821H59.022L28.8426 411.095L59.022 463.369H119.382L149.561 411.095L119.382 358.821Z" fill="url(#paint88_linear_0_140)"/>
<path d="M782.773 182.837H719.427L687.754 127.978L719.427 73.1186H782.773L814.446 127.978L782.773 182.837ZM781.281 75.7041H720.921L690.741 127.978L720.921 180.252H781.281L811.46 127.978L781.281 75.7041Z" fill="url(#paint89_linear_0_140)"/>
<path d="M515.816 406.487H452.47L420.797 351.627L452.47 296.768H515.816L547.489 351.627L515.816 406.487ZM514.324 299.353H453.964L423.784 351.627L453.964 403.901H514.324L544.503 351.627L514.324 299.353Z" fill="url(#paint90_linear_0_140)"/>
<path d="M390.417 386.204H281.824L227.528 292.16L281.824 198.116H390.417L444.713 292.16L390.417 386.204ZM388.925 200.701H283.318L230.515 292.16L283.318 383.618H388.925L441.728 292.16L388.925 200.701Z" fill="url(#paint91_linear_0_140)"/>
</g>
<g filter="url(#filter5_f_0_140)" style="mix-blend-mode:plus-lighter">
<path d="M194.562 275.917H131.216L99.5433 221.058L131.216 166.198H194.562L226.235 221.058L194.562 275.917ZM193.07 168.784H132.71L102.53 221.058L132.71 273.331H193.07L223.249 221.058L193.07 168.784Z" fill="url(#paint92_linear_0_140)"/>
<path d="M584.979 110.442H521.633L489.96 55.5828L521.633 0.723396H584.979L616.652 55.5828L584.979 110.442ZM583.487 3.30894H523.127L492.947 55.5828L523.127 107.857H583.487L613.666 55.5828L583.487 3.30894Z" fill="url(#paint93_linear_0_140)"/>
<path d="M959.882 171.203H896.537L864.864 116.343L896.537 61.4836H959.882L991.555 116.343L959.882 171.203ZM958.39 64.0692H898.03L867.851 116.343L898.03 168.617H958.39L988.57 116.343L958.39 64.0692Z" fill="url(#paint94_linear_0_140)"/>
<path d="M859.046 229.377H795.701L764.028 174.518L795.701 119.658H859.046L890.719 174.518L859.046 229.377ZM857.554 122.244H797.194L767.015 174.518L797.194 226.792H857.554L887.733 174.518L857.554 122.244Z" fill="url(#paint95_linear_0_140)"/>
<path d="M756.917 287.552H693.572L661.899 232.692L693.572 177.833H756.917L788.59 232.692L756.917 287.552ZM755.425 180.419H695.065L664.886 232.692L695.065 284.966H755.425L785.604 232.692L755.425 180.419Z" fill="url(#paint96_linear_0_140)"/>
<path d="M499.656 70.9913H469.922L455.055 45.2407L469.922 19.49H499.656L514.523 45.2407L499.656 70.9913ZM498.164 22.0756H471.416L458.042 45.2407L471.416 68.4058H498.164L511.537 45.2407L498.164 22.0756Z" fill="url(#paint97_linear_0_140)"/>
<path d="M350.664 16.7934H340.968L336.12 8.3967L340.968 0H350.664L355.512 8.3967L350.664 16.7934ZM349.172 2.58554H342.462L339.107 8.3967L342.462 14.2079H349.172L352.526 8.3967L349.172 2.58554Z" fill="url(#paint98_linear_0_140)"/>
<path d="M109.885 134.949H94.3722L86.6156 121.514L94.3722 108.079H109.885L117.642 121.514L109.885 134.949ZM108.393 110.664H95.8657L89.6026 121.514L95.8657 132.364H108.393L114.656 121.514L108.393 110.664Z" fill="url(#paint99_linear_0_140)"/>
<path d="M75.3038 149.949H65.6081L60.7602 141.552L65.6081 133.155H75.3038L80.1517 141.552L75.3038 149.949ZM73.8116 135.741H67.1016L63.7472 141.552L67.1016 147.363H73.8116L77.166 141.552L73.8116 135.741Z" fill="url(#paint100_linear_0_140)"/>
<path d="M15.8364 143.485H6.1406L1.29271 135.088L6.1406 126.692H15.8364L20.6843 135.088L15.8364 143.485ZM14.3441 129.277H7.6341L4.27972 135.088L7.6341 140.899H14.3441L17.6985 135.088L14.3441 129.277Z" fill="url(#paint101_linear_0_140)"/>
<path d="M364.561 569.777H255.969L201.672 475.733L255.969 381.689H364.561L418.858 475.733L364.561 569.777ZM363.069 384.275H257.462L204.659 475.733L257.462 567.192H363.069L415.872 475.733L363.069 384.275Z" fill="url(#paint102_linear_0_140)"/>
<path d="M634.75 522.984H533.914L483.496 435.658L533.914 348.331H634.75L685.169 435.658L634.75 522.984ZM633.258 350.917H535.408L486.483 435.658L535.408 520.398H633.258L682.183 435.658L633.258 350.917Z" fill="url(#paint103_linear_0_140)"/>
<path d="M636.043 259.259H535.207L484.789 171.932L535.207 84.6058H636.043L686.461 171.932L636.043 259.259ZM634.551 87.1913H536.701L487.776 171.932L536.701 256.673H634.551L683.476 171.932L634.551 87.1913Z" fill="url(#paint104_linear_0_140)"/>
<path d="M996.726 354.924H895.89L845.472 267.597L895.89 180.271H996.726L1047.14 267.597L996.726 354.924ZM995.234 182.856H897.384L848.459 267.597L897.384 352.338H995.234L1044.16 267.597L995.234 182.856Z" fill="url(#paint105_linear_0_140)"/>
<path d="M676.119 383.365H575.283L524.865 296.038L575.283 208.712H676.119L726.537 296.038L676.119 383.365ZM674.627 211.297H576.777L527.852 296.038L576.777 380.779H674.627L723.552 296.038L674.627 211.297Z" fill="url(#paint106_linear_0_140)"/>
<path d="M95.0186 453.027H31.6728L-6.10352e-05 398.167L31.6728 343.308H95.0186L126.691 398.167L95.0186 453.027ZM93.5264 345.893H33.1663L2.98695 398.167L33.1663 450.441H93.5264L123.706 398.167L93.5264 345.893Z" fill="url(#paint107_linear_0_140)"/>
<path d="M756.917 169.91H693.572L661.899 115.05L693.572 60.1909H756.917L788.59 115.05L756.917 169.91ZM755.425 62.7764H695.065L664.886 115.05L695.065 167.324H755.425L785.604 115.05L755.425 62.7764Z" fill="url(#paint108_linear_0_140)"/>
<path d="M489.96 393.559H426.614L394.941 338.7L426.614 283.84H489.96L521.633 338.7L489.96 393.559ZM488.468 286.426H428.108L397.928 338.7L428.108 390.974H488.468L518.647 338.7L488.468 286.426Z" fill="url(#paint109_linear_0_140)"/>
<path d="M364.561 373.276H255.969L201.672 279.232L255.969 185.188H364.561L418.858 279.232L364.561 373.276ZM363.069 187.774H257.462L204.659 279.232L257.462 370.691H363.069L415.872 279.232L363.069 187.774Z" fill="url(#paint110_linear_0_140)"/>
</g>
</g>
<defs>
<filter id="filter0_f_0_140" x="9.53889" y="9.53881" width="1053.92" height="576.555" filterUnits="userSpaceOnUse" color-interpolation-filters="sRGB">
<feFlood flood-opacity="0" result="BackgroundImageFix"/>
<feBlend mode="normal" in="SourceGraphic" in2="BackgroundImageFix" result="shape"/>
<feGaussianBlur stdDeviation="1.69446" result="effect1_foregroundBlur_0_140"/>
</filter>
<filter id="filter1_f_0_140" x="7.44351" y="6.14988" width="1059.41" height="583.333" filterUnits="userSpaceOnUse" color-interpolation-filters="sRGB">
<feFlood flood-opacity="0" result="BackgroundImageFix"/>
<feBlend mode="normal" in="SourceGraphic" in2="BackgroundImageFix" result="shape"/>
<feGaussianBlur stdDeviation="3.38893" result="effect1_foregroundBlur_0_140"/>
</filter>
<filter id="filter2_f_0_140" x="4.05458" y="2.76096" width="1066.19" height="590.111" filterUnits="userSpaceOnUse" color-interpolation-filters="sRGB">
<feFlood flood-opacity="0" result="BackgroundImageFix"/>
<feBlend mode="normal" in="SourceGraphic" in2="BackgroundImageFix" result="shape"/>
<feGaussianBlur stdDeviation="5.08339" result="effect1_foregroundBlur_0_140"/>
</filter>
<filter id="filter3_f_0_140" x="4.05458" y="2.76096" width="1066.19" height="590.111" filterUnits="userSpaceOnUse" color-interpolation-filters="sRGB">
<feFlood flood-opacity="0" result="BackgroundImageFix"/>
<feBlend mode="normal" in="SourceGraphic" in2="BackgroundImageFix" result="shape"/>
<feGaussianBlur stdDeviation="5.08339" result="effect1_foregroundBlur_0_140"/>
</filter>
<filter id="filter4_f_0_140" x="15.6888" y="2.76096" width="1067.48" height="590.111" filterUnits="userSpaceOnUse" color-interpolation-filters="sRGB">
<feFlood flood-opacity="0" result="BackgroundImageFix"/>
<feBlend mode="normal" in="SourceGraphic" in2="BackgroundImageFix" result="shape"/>
<feGaussianBlur stdDeviation="5.08339" result="effect1_foregroundBlur_0_140"/>
</filter>
<filter id="filter5_f_0_140" x="-10.1668" y="-10.1668" width="1067.48" height="590.111" filterUnits="userSpaceOnUse" color-interpolation-filters="sRGB">
<feFlood flood-opacity="0" result="BackgroundImageFix"/>
<feBlend mode="normal" in="SourceGraphic" in2="BackgroundImageFix" result="shape"/>
<feGaussianBlur stdDeviation="5.08339" result="effect1_foregroundBlur_0_140"/>
</filter>
<linearGradient id="paint0_linear_0_140" x1="57.9083" y1="301.776" x2="812.989" y2="464.511" gradientUnits="userSpaceOnUse">
<stop stop-color="#76B900"/>
<stop offset="1" stop-color="#B4C4C6"/>
</linearGradient>
<linearGradient id="paint1_linear_0_140" x1="57.9083" y1="301.776" x2="812.989" y2="464.511" gradientUnits="userSpaceOnUse">
<stop stop-color="#76B900"/>
<stop offset="1" stop-color="#B4C4C6"/>
</linearGradient>
<linearGradient id="paint2_linear_0_140" x1="57.9083" y1="301.776" x2="812.989" y2="464.511" gradientUnits="userSpaceOnUse">
<stop stop-color="#76B900"/>
<stop offset="1" stop-color="#B4C4C6"/>
</linearGradient>
<linearGradient id="paint3_linear_0_140" x1="57.9083" y1="301.776" x2="812.989" y2="464.511" gradientUnits="userSpaceOnUse">
<stop stop-color="#76B900"/>
<stop offset="1" stop-color="#B4C4C6"/>
</linearGradient>
<linearGradient id="paint4_linear_0_140" x1="57.9083" y1="301.776" x2="812.989" y2="464.511" gradientUnits="userSpaceOnUse">
<stop stop-color="#76B900"/>
<stop offset="1" stop-color="#B4C4C6"/>
</linearGradient>
<linearGradient id="paint5_linear_0_140" x1="57.9083" y1="301.776" x2="812.989" y2="464.511" gradientUnits="userSpaceOnUse">
<stop stop-color="#76B900"/>
<stop offset="1" stop-color="#B4C4C6"/>
</linearGradient>
<linearGradient id="paint6_linear_0_140" x1="57.9083" y1="301.776" x2="812.989" y2="464.511" gradientUnits="userSpaceOnUse">
<stop stop-color="#76B900"/>
<stop offset="1" stop-color="#B4C4C6"/>
</linearGradient>
<linearGradient id="paint7_linear_0_140" x1="57.9083" y1="301.776" x2="812.989" y2="464.511" gradientUnits="userSpaceOnUse">
<stop stop-color="#76B900"/>
<stop offset="1" stop-color="#B4C4C6"/>
</linearGradient>
<linearGradient id="paint8_linear_0_140" x1="57.9083" y1="301.776" x2="812.989" y2="464.511" gradientUnits="userSpaceOnUse">
<stop stop-color="#76B900"/>
<stop offset="1" stop-color="#B4C4C6"/>
</linearGradient>
<linearGradient id="paint9_linear_0_140" x1="57.9083" y1="301.776" x2="812.989" y2="464.511" gradientUnits="userSpaceOnUse">
<stop stop-color="#76B900"/>
<stop offset="1" stop-color="#B4C4C6"/>
</linearGradient>
<linearGradient id="paint10_linear_0_140" x1="57.9083" y1="301.776" x2="812.989" y2="464.511" gradientUnits="userSpaceOnUse">
<stop stop-color="#76B900"/>
<stop offset="1" stop-color="#B4C4C6"/>
</linearGradient>
<linearGradient id="paint11_linear_0_140" x1="57.9083" y1="301.776" x2="812.989" y2="464.511" gradientUnits="userSpaceOnUse">
<stop stop-color="#76B900"/>
<stop offset="1" stop-color="#B4C4C6"/>
</linearGradient>
<linearGradient id="paint12_linear_0_140" x1="57.9083" y1="301.776" x2="812.989" y2="464.511" gradientUnits="userSpaceOnUse">
<stop stop-color="#76B900"/>
<stop offset="1" stop-color="#B4C4C6"/>
</linearGradient>
<linearGradient id="paint13_linear_0_140" x1="57.9083" y1="301.776" x2="812.989" y2="464.511" gradientUnits="userSpaceOnUse">
<stop stop-color="#76B900"/>
<stop offset="1" stop-color="#B4C4C6"/>
</linearGradient>
<linearGradient id="paint14_linear_0_140" x1="57.9083" y1="301.776" x2="812.989" y2="464.511" gradientUnits="userSpaceOnUse">
<stop stop-color="#76B900"/>
<stop offset="1" stop-color="#B4C4C6"/>
</linearGradient>
<linearGradient id="paint15_linear_0_140" x1="57.9083" y1="301.776" x2="812.989" y2="464.511" gradientUnits="userSpaceOnUse">
<stop stop-color="#76B900"/>
<stop offset="1" stop-color="#B4C4C6"/>
</linearGradient>
<linearGradient id="paint16_linear_0_140" x1="57.9083" y1="301.776" x2="812.989" y2="464.511" gradientUnits="userSpaceOnUse">
<stop stop-color="#76B900"/>
<stop offset="1" stop-color="#B4C4C6"/>
</linearGradient>
<linearGradient id="paint17_linear_0_140" x1="57.9083" y1="301.776" x2="812.989" y2="464.511" gradientUnits="userSpaceOnUse">
<stop stop-color="#76B900"/>
<stop offset="1" stop-color="#B4C4C6"/>
</linearGradient>
<linearGradient id="paint18_linear_0_140" x1="57.9083" y1="301.776" x2="812.989" y2="464.511" gradientUnits="userSpaceOnUse">
<stop stop-color="#76B900"/>
<stop offset="1" stop-color="#B4C4C6"/>
</linearGradient>
<linearGradient id="paint19_linear_0_140" x1="59.1463" y1="301.776" x2="813.377" y2="464.127" gradientUnits="userSpaceOnUse">
<stop stop-color="#76B900"/>
<stop offset="1" stop-color="#B4C4C6"/>
</linearGradient>
<linearGradient id="paint20_linear_0_140" x1="59.1463" y1="301.776" x2="813.377" y2="464.127" gradientUnits="userSpaceOnUse">
<stop stop-color="#76B900"/>
<stop offset="1" stop-color="#B4C4C6"/>
</linearGradient>
<linearGradient id="paint21_linear_0_140" x1="59.1463" y1="301.776" x2="813.377" y2="464.127" gradientUnits="userSpaceOnUse">
<stop stop-color="#76B900"/>
<stop offset="1" stop-color="#B4C4C6"/>
</linearGradient>
<linearGradient id="paint22_linear_0_140" x1="59.1463" y1="301.776" x2="813.377" y2="464.127" gradientUnits="userSpaceOnUse">
<stop stop-color="#76B900"/>
<stop offset="1" stop-color="#B4C4C6"/>
</linearGradient>
<linearGradient id="paint23_linear_0_140" x1="59.1463" y1="301.776" x2="813.377" y2="464.127" gradientUnits="userSpaceOnUse">
<stop stop-color="#76B900"/>
<stop offset="1" stop-color="#B4C4C6"/>
</linearGradient>
<linearGradient id="paint24_linear_0_140" x1="59.1463" y1="301.776" x2="813.377" y2="464.127" gradientUnits="userSpaceOnUse">
<stop stop-color="#76B900"/>
<stop offset="1" stop-color="#B4C4C6"/>
</linearGradient>
<linearGradient id="paint25_linear_0_140" x1="59.1463" y1="301.776" x2="813.377" y2="464.127" gradientUnits="userSpaceOnUse">
<stop stop-color="#76B900"/>
<stop offset="1" stop-color="#B4C4C6"/>
</linearGradient>
<linearGradient id="paint26_linear_0_140" x1="59.1463" y1="301.776" x2="813.377" y2="464.127" gradientUnits="userSpaceOnUse">
<stop stop-color="#76B900"/>
<stop offset="1" stop-color="#B4C4C6"/>
</linearGradient>
<linearGradient id="paint27_linear_0_140" x1="59.1463" y1="301.776" x2="813.377" y2="464.127" gradientUnits="userSpaceOnUse">
<stop stop-color="#76B900"/>
<stop offset="1" stop-color="#B4C4C6"/>
</linearGradient>
<linearGradient id="paint28_linear_0_140" x1="59.1463" y1="301.776" x2="813.377" y2="464.127" gradientUnits="userSpaceOnUse">
<stop stop-color="#76B900"/>
<stop offset="1" stop-color="#B4C4C6"/>
</linearGradient>
<linearGradient id="paint29_linear_0_140" x1="59.1463" y1="301.776" x2="813.377" y2="464.127" gradientUnits="userSpaceOnUse">
<stop stop-color="#76B900"/>
<stop offset="1" stop-color="#B4C4C6"/>
</linearGradient>
<linearGradient id="paint30_linear_0_140" x1="59.1463" y1="301.776" x2="813.377" y2="464.127" gradientUnits="userSpaceOnUse">
<stop stop-color="#76B900"/>
<stop offset="1" stop-color="#B4C4C6"/>
</linearGradient>
<linearGradient id="paint31_linear_0_140" x1="59.1463" y1="301.776" x2="813.377" y2="464.127" gradientUnits="userSpaceOnUse">
<stop stop-color="#76B900"/>
<stop offset="1" stop-color="#B4C4C6"/>
</linearGradient>
<linearGradient id="paint32_linear_0_140" x1="59.1463" y1="301.776" x2="813.377" y2="464.127" gradientUnits="userSpaceOnUse">
<stop stop-color="#76B900"/>
<stop offset="1" stop-color="#B4C4C6"/>
</linearGradient>
<linearGradient id="paint33_linear_0_140" x1="59.1463" y1="301.776" x2="813.377" y2="464.127" gradientUnits="userSpaceOnUse">
<stop stop-color="#76B900"/>
<stop offset="1" stop-color="#B4C4C6"/>
</linearGradient>
<linearGradient id="paint34_linear_0_140" x1="59.1463" y1="301.776" x2="813.377" y2="464.127" gradientUnits="userSpaceOnUse">
<stop stop-color="#76B900"/>
<stop offset="1" stop-color="#B4C4C6"/>
</linearGradient>
<linearGradient id="paint35_linear_0_140" x1="59.1463" y1="301.776" x2="813.377" y2="464.127" gradientUnits="userSpaceOnUse">
<stop stop-color="#76B900"/>
<stop offset="1" stop-color="#B4C4C6"/>
</linearGradient>
<linearGradient id="paint36_linear_0_140" x1="59.1463" y1="301.776" x2="813.377" y2="464.127" gradientUnits="userSpaceOnUse">
<stop stop-color="#76B900"/>
<stop offset="1" stop-color="#B4C4C6"/>
</linearGradient>
<linearGradient id="paint37_linear_0_140" x1="59.1463" y1="301.776" x2="813.377" y2="464.127" gradientUnits="userSpaceOnUse">
<stop stop-color="#76B900"/>
<stop offset="1" stop-color="#B4C4C6"/>
</linearGradient>
<linearGradient id="paint38_linear_0_140" x1="59.1463" y1="301.776" x2="813.377" y2="464.127" gradientUnits="userSpaceOnUse">
<stop stop-color="#76B900"/>
<stop offset="1" stop-color="#B4C4C6"/>
</linearGradient>
<linearGradient id="paint39_linear_0_140" x1="59.1463" y1="301.776" x2="813.377" y2="464.127" gradientUnits="userSpaceOnUse">
<stop stop-color="#76B900"/>
<stop offset="1" stop-color="#B4C4C6"/>
</linearGradient>
<linearGradient id="paint40_linear_0_140" x1="59.1463" y1="301.776" x2="813.377" y2="464.127" gradientUnits="userSpaceOnUse">
<stop stop-color="#76B900"/>
<stop offset="1" stop-color="#B4C4C6"/>
</linearGradient>
<linearGradient id="paint41_linear_0_140" x1="59.1463" y1="301.776" x2="813.377" y2="464.127" gradientUnits="userSpaceOnUse">
<stop stop-color="#76B900"/>
<stop offset="1" stop-color="#B4C4C6"/>
</linearGradient>
<linearGradient id="paint42_linear_0_140" x1="59.1463" y1="301.776" x2="813.377" y2="464.127" gradientUnits="userSpaceOnUse">
<stop stop-color="#76B900"/>
<stop offset="1" stop-color="#B4C4C6"/>
</linearGradient>
<linearGradient id="paint43_linear_0_140" x1="59.1463" y1="301.776" x2="813.377" y2="464.127" gradientUnits="userSpaceOnUse">
<stop stop-color="#76B900"/>
<stop offset="1" stop-color="#B4C4C6"/>
</linearGradient>
<linearGradient id="paint44_linear_0_140" x1="59.1463" y1="301.776" x2="813.377" y2="464.127" gradientUnits="userSpaceOnUse">
<stop stop-color="#76B900"/>
<stop offset="1" stop-color="#B4C4C6"/>
</linearGradient>
<linearGradient id="paint45_linear_0_140" x1="59.1463" y1="301.776" x2="813.377" y2="464.127" gradientUnits="userSpaceOnUse">
<stop stop-color="#76B900"/>
<stop offset="1" stop-color="#B4C4C6"/>
</linearGradient>
<linearGradient id="paint46_linear_0_140" x1="59.1463" y1="301.776" x2="813.377" y2="464.127" gradientUnits="userSpaceOnUse">
<stop stop-color="#76B900"/>
<stop offset="1" stop-color="#B4C4C6"/>
</linearGradient>
<linearGradient id="paint47_linear_0_140" x1="59.1463" y1="301.776" x2="813.377" y2="464.127" gradientUnits="userSpaceOnUse">
<stop stop-color="#76B900"/>
<stop offset="1" stop-color="#B4C4C6"/>
</linearGradient>
<linearGradient id="paint48_linear_0_140" x1="59.1463" y1="301.776" x2="813.377" y2="464.127" gradientUnits="userSpaceOnUse">
<stop stop-color="#76B900"/>
<stop offset="1" stop-color="#B4C4C6"/>
</linearGradient>
<linearGradient id="paint49_linear_0_140" x1="59.1463" y1="301.776" x2="813.377" y2="464.127" gradientUnits="userSpaceOnUse">
<stop stop-color="#76B900"/>
<stop offset="1" stop-color="#B4C4C6"/>
</linearGradient>
<linearGradient id="paint50_linear_0_140" x1="59.1463" y1="301.776" x2="813.377" y2="464.127" gradientUnits="userSpaceOnUse">
<stop stop-color="#76B900"/>
<stop offset="1" stop-color="#B4C4C6"/>
</linearGradient>
<linearGradient id="paint51_linear_0_140" x1="59.1463" y1="301.776" x2="813.377" y2="464.127" gradientUnits="userSpaceOnUse">
<stop stop-color="#76B900"/>
<stop offset="1" stop-color="#B4C4C6"/>
</linearGradient>
<linearGradient id="paint52_linear_0_140" x1="59.1463" y1="301.776" x2="813.377" y2="464.127" gradientUnits="userSpaceOnUse">
<stop stop-color="#76B900"/>
<stop offset="1" stop-color="#B4C4C6"/>
</linearGradient>
<linearGradient id="paint53_linear_0_140" x1="59.1463" y1="301.776" x2="813.377" y2="464.127" gradientUnits="userSpaceOnUse">
<stop stop-color="#76B900"/>
<stop offset="1" stop-color="#B4C4C6"/>
</linearGradient>
<linearGradient id="paint54_linear_0_140" x1="59.1463" y1="301.776" x2="813.377" y2="464.127" gradientUnits="userSpaceOnUse">
<stop stop-color="#76B900"/>
<stop offset="1" stop-color="#B4C4C6"/>
</linearGradient>
<linearGradient id="paint55_linear_0_140" x1="59.1463" y1="301.776" x2="813.377" y2="464.127" gradientUnits="userSpaceOnUse">
<stop stop-color="#76B900"/>
<stop offset="1" stop-color="#B4C4C6"/>
</linearGradient>
<linearGradient id="paint56_linear_0_140" x1="59.1463" y1="301.776" x2="813.377" y2="464.127" gradientUnits="userSpaceOnUse">
<stop stop-color="#76B900"/>
<stop offset="1" stop-color="#B4C4C6"/>
</linearGradient>
<linearGradient id="paint57_linear_0_140" x1="59.1463" y1="301.776" x2="813.377" y2="464.127" gradientUnits="userSpaceOnUse">
<stop stop-color="#76B900"/>
<stop offset="1" stop-color="#B4C4C6"/>
</linearGradient>
<linearGradient id="paint58_linear_0_140" x1="59.1463" y1="301.776" x2="813.377" y2="464.127" gradientUnits="userSpaceOnUse">
<stop stop-color="#76B900"/>
<stop offset="1" stop-color="#B4C4C6"/>
</linearGradient>
<linearGradient id="paint59_linear_0_140" x1="59.1463" y1="301.776" x2="813.377" y2="464.127" gradientUnits="userSpaceOnUse">
<stop stop-color="#76B900"/>
<stop offset="1" stop-color="#B4C4C6"/>
</linearGradient>
<linearGradient id="paint60_linear_0_140" x1="59.1463" y1="301.776" x2="813.377" y2="464.127" gradientUnits="userSpaceOnUse">
<stop stop-color="#76B900"/>
<stop offset="1" stop-color="#B4C4C6"/>
</linearGradient>
<linearGradient id="paint61_linear_0_140" x1="59.1463" y1="301.776" x2="813.377" y2="464.127" gradientUnits="userSpaceOnUse">
<stop stop-color="#76B900"/>
<stop offset="1" stop-color="#B4C4C6"/>
</linearGradient>
<linearGradient id="paint62_linear_0_140" x1="59.1463" y1="301.776" x2="813.377" y2="464.127" gradientUnits="userSpaceOnUse">
<stop stop-color="#76B900"/>
<stop offset="1" stop-color="#B4C4C6"/>
</linearGradient>
<linearGradient id="paint63_linear_0_140" x1="59.1463" y1="301.776" x2="813.377" y2="464.127" gradientUnits="userSpaceOnUse">
<stop stop-color="#76B900"/>
<stop offset="1" stop-color="#B4C4C6"/>
</linearGradient>
<linearGradient id="paint64_linear_0_140" x1="59.1463" y1="301.776" x2="813.377" y2="464.127" gradientUnits="userSpaceOnUse">
<stop stop-color="#76B900"/>
<stop offset="1" stop-color="#B4C4C6"/>
</linearGradient>
<linearGradient id="paint65_linear_0_140" x1="59.1463" y1="301.776" x2="813.377" y2="464.127" gradientUnits="userSpaceOnUse">
<stop stop-color="#76B900"/>
<stop offset="1" stop-color="#B4C4C6"/>
</linearGradient>
<linearGradient id="paint66_linear_0_140" x1="59.1463" y1="301.776" x2="813.377" y2="464.127" gradientUnits="userSpaceOnUse">
<stop stop-color="#76B900"/>
<stop offset="1" stop-color="#B4C4C6"/>
</linearGradient>
<linearGradient id="paint67_linear_0_140" x1="59.1463" y1="301.776" x2="813.377" y2="464.127" gradientUnits="userSpaceOnUse">
<stop stop-color="#76B900"/>
<stop offset="1" stop-color="#B4C4C6"/>
</linearGradient>
<linearGradient id="paint68_linear_0_140" x1="59.1463" y1="301.776" x2="813.377" y2="464.127" gradientUnits="userSpaceOnUse">
<stop stop-color="#76B900"/>
<stop offset="1" stop-color="#B4C4C6"/>
</linearGradient>
<linearGradient id="paint69_linear_0_140" x1="59.1463" y1="301.776" x2="813.377" y2="464.127" gradientUnits="userSpaceOnUse">
<stop stop-color="#76B900"/>
<stop offset="1" stop-color="#B4C4C6"/>
</linearGradient>
<linearGradient id="paint70_linear_0_140" x1="59.1463" y1="301.776" x2="813.377" y2="464.127" gradientUnits="userSpaceOnUse">
<stop stop-color="#76B900"/>
<stop offset="1" stop-color="#B4C4C6"/>
</linearGradient>
<linearGradient id="paint71_linear_0_140" x1="59.1463" y1="301.776" x2="813.377" y2="464.127" gradientUnits="userSpaceOnUse">
<stop stop-color="#76B900"/>
<stop offset="1" stop-color="#B4C4C6"/>
</linearGradient>
<linearGradient id="paint72_linear_0_140" x1="59.1463" y1="301.776" x2="813.377" y2="464.127" gradientUnits="userSpaceOnUse">
<stop stop-color="#76B900"/>
<stop offset="1" stop-color="#B4C4C6"/>
</linearGradient>
<linearGradient id="paint73_linear_0_140" x1="70.8361" y1="301.776" x2="825.917" y2="464.511" gradientUnits="userSpaceOnUse">
<stop stop-color="#76B900"/>
<stop offset="1" stop-color="#B4C4C6"/>
</linearGradient>
<linearGradient id="paint74_linear_0_140" x1="70.8361" y1="301.776" x2="825.917" y2="464.511" gradientUnits="userSpaceOnUse">
<stop stop-color="#76B900"/>
<stop offset="1" stop-color="#B4C4C6"/>
</linearGradient>
<linearGradient id="paint75_linear_0_140" x1="70.8361" y1="301.776" x2="825.917" y2="464.511" gradientUnits="userSpaceOnUse">
<stop stop-color="#76B900"/>
<stop offset="1" stop-color="#B4C4C6"/>
</linearGradient>
<linearGradient id="paint76_linear_0_140" x1="70.8361" y1="301.776" x2="825.917" y2="464.511" gradientUnits="userSpaceOnUse">
<stop stop-color="#76B900"/>
<stop offset="1" stop-color="#B4C4C6"/>
</linearGradient>
<linearGradient id="paint77_linear_0_140" x1="70.8361" y1="301.776" x2="825.917" y2="464.511" gradientUnits="userSpaceOnUse">
<stop stop-color="#76B900"/>
<stop offset="1" stop-color="#B4C4C6"/>
</linearGradient>
<linearGradient id="paint78_linear_0_140" x1="70.8361" y1="301.776" x2="825.917" y2="464.511" gradientUnits="userSpaceOnUse">
<stop stop-color="#76B900"/>
<stop offset="1" stop-color="#B4C4C6"/>
</linearGradient>
<linearGradient id="paint79_linear_0_140" x1="70.8361" y1="301.776" x2="825.917" y2="464.511" gradientUnits="userSpaceOnUse">
<stop stop-color="#76B900"/>
<stop offset="1" stop-color="#B4C4C6"/>
</linearGradient>
<linearGradient id="paint80_linear_0_140" x1="70.8361" y1="301.776" x2="825.917" y2="464.511" gradientUnits="userSpaceOnUse">
<stop stop-color="#76B900"/>
<stop offset="1" stop-color="#B4C4C6"/>
</linearGradient>
<linearGradient id="paint81_linear_0_140" x1="70.8361" y1="301.776" x2="825.917" y2="464.511" gradientUnits="userSpaceOnUse">
<stop stop-color="#76B900"/>
<stop offset="1" stop-color="#B4C4C6"/>
</linearGradient>
<linearGradient id="paint82_linear_0_140" x1="70.8361" y1="301.776" x2="825.917" y2="464.511" gradientUnits="userSpaceOnUse">
<stop stop-color="#76B900"/>
<stop offset="1" stop-color="#B4C4C6"/>
</linearGradient>
<linearGradient id="paint83_linear_0_140" x1="70.8361" y1="301.776" x2="825.917" y2="464.511" gradientUnits="userSpaceOnUse">
<stop stop-color="#76B900"/>
<stop offset="1" stop-color="#B4C4C6"/>
</linearGradient>
<linearGradient id="paint84_linear_0_140" x1="70.8361" y1="301.776" x2="825.917" y2="464.511" gradientUnits="userSpaceOnUse">
<stop stop-color="#76B900"/>
<stop offset="1" stop-color="#B4C4C6"/>
</linearGradient>
<linearGradient id="paint85_linear_0_140" x1="70.8361" y1="301.776" x2="825.917" y2="464.511" gradientUnits="userSpaceOnUse">
<stop stop-color="#76B900"/>
<stop offset="1" stop-color="#B4C4C6"/>
</linearGradient>
<linearGradient id="paint86_linear_0_140" x1="70.8361" y1="301.776" x2="825.917" y2="464.511" gradientUnits="userSpaceOnUse">
<stop stop-color="#76B900"/>
<stop offset="1" stop-color="#B4C4C6"/>
</linearGradient>
<linearGradient id="paint87_linear_0_140" x1="70.8361" y1="301.776" x2="825.917" y2="464.511" gradientUnits="userSpaceOnUse">
<stop stop-color="#76B900"/>
<stop offset="1" stop-color="#B4C4C6"/>
</linearGradient>
<linearGradient id="paint88_linear_0_140" x1="70.8361" y1="301.776" x2="825.917" y2="464.511" gradientUnits="userSpaceOnUse">
<stop stop-color="#76B900"/>
<stop offset="1" stop-color="#B4C4C6"/>
</linearGradient>
<linearGradient id="paint89_linear_0_140" x1="70.8361" y1="301.776" x2="825.917" y2="464.511" gradientUnits="userSpaceOnUse">
<stop stop-color="#76B900"/>
<stop offset="1" stop-color="#B4C4C6"/>
</linearGradient>
<linearGradient id="paint90_linear_0_140" x1="70.8361" y1="301.776" x2="825.917" y2="464.511" gradientUnits="userSpaceOnUse">
<stop stop-color="#76B900"/>
<stop offset="1" stop-color="#B4C4C6"/>
</linearGradient>
<linearGradient id="paint91_linear_0_140" x1="70.8361" y1="301.776" x2="825.917" y2="464.511" gradientUnits="userSpaceOnUse">
<stop stop-color="#76B900"/>
<stop offset="1" stop-color="#B4C4C6"/>
</linearGradient>
<linearGradient id="paint92_linear_0_140" x1="44.9804" y1="288.848" x2="800.061" y2="451.583" gradientUnits="userSpaceOnUse">
<stop stop-color="#76B900"/>
<stop offset="1" stop-color="#B4C4C6"/>
</linearGradient>
<linearGradient id="paint93_linear_0_140" x1="44.9804" y1="288.848" x2="800.061" y2="451.583" gradientUnits="userSpaceOnUse">
<stop stop-color="#76B900"/>
<stop offset="1" stop-color="#B4C4C6"/>
</linearGradient>
<linearGradient id="paint94_linear_0_140" x1="44.9804" y1="288.848" x2="800.061" y2="451.583" gradientUnits="userSpaceOnUse">
<stop stop-color="#76B900"/>
<stop offset="1" stop-color="#B4C4C6"/>
</linearGradient>
<linearGradient id="paint95_linear_0_140" x1="44.9804" y1="288.848" x2="800.061" y2="451.583" gradientUnits="userSpaceOnUse">
<stop stop-color="#76B900"/>
<stop offset="1" stop-color="#B4C4C6"/>
</linearGradient>
<linearGradient id="paint96_linear_0_140" x1="44.9804" y1="288.848" x2="800.061" y2="451.583" gradientUnits="userSpaceOnUse">
<stop stop-color="#76B900"/>
<stop offset="1" stop-color="#B4C4C6"/>
</linearGradient>
<linearGradient id="paint97_linear_0_140" x1="44.9804" y1="288.848" x2="800.061" y2="451.583" gradientUnits="userSpaceOnUse">
<stop stop-color="#76B900"/>
<stop offset="1" stop-color="#B4C4C6"/>
</linearGradient>
<linearGradient id="paint98_linear_0_140" x1="44.9804" y1="288.848" x2="800.061" y2="451.583" gradientUnits="userSpaceOnUse">
<stop stop-color="#76B900"/>
<stop offset="1" stop-color="#B4C4C6"/>
</linearGradient>
<linearGradient id="paint99_linear_0_140" x1="44.9804" y1="288.848" x2="800.061" y2="451.583" gradientUnits="userSpaceOnUse">
<stop stop-color="#76B900"/>
<stop offset="1" stop-color="#B4C4C6"/>
</linearGradient>
<linearGradient id="paint100_linear_0_140" x1="44.9804" y1="288.848" x2="800.061" y2="451.583" gradientUnits="userSpaceOnUse">
<stop stop-color="#76B900"/>
<stop offset="1" stop-color="#B4C4C6"/>
</linearGradient>
<linearGradient id="paint101_linear_0_140" x1="44.9804" y1="288.848" x2="800.061" y2="451.583" gradientUnits="userSpaceOnUse">
<stop stop-color="#76B900"/>
<stop offset="1" stop-color="#B4C4C6"/>
</linearGradient>
<linearGradient id="paint102_linear_0_140" x1="44.9804" y1="288.848" x2="800.061" y2="451.583" gradientUnits="userSpaceOnUse">
<stop stop-color="#76B900"/>
<stop offset="1" stop-color="#B4C4C6"/>
</linearGradient>
<linearGradient id="paint103_linear_0_140" x1="44.9804" y1="288.848" x2="800.061" y2="451.583" gradientUnits="userSpaceOnUse">
<stop stop-color="#76B900"/>
<stop offset="1" stop-color="#B4C4C6"/>
</linearGradient>
<linearGradient id="paint104_linear_0_140" x1="44.9804" y1="288.848" x2="800.061" y2="451.583" gradientUnits="userSpaceOnUse">
<stop stop-color="#76B900"/>
<stop offset="1" stop-color="#B4C4C6"/>
</linearGradient>
<linearGradient id="paint105_linear_0_140" x1="44.9804" y1="288.848" x2="800.061" y2="451.583" gradientUnits="userSpaceOnUse">
<stop stop-color="#76B900"/>
<stop offset="1" stop-color="#B4C4C6"/>
</linearGradient>
<linearGradient id="paint106_linear_0_140" x1="44.9804" y1="288.848" x2="800.061" y2="451.583" gradientUnits="userSpaceOnUse">
<stop stop-color="#76B900"/>
<stop offset="1" stop-color="#B4C4C6"/>
</linearGradient>
<linearGradient id="paint107_linear_0_140" x1="44.9804" y1="288.848" x2="800.061" y2="451.583" gradientUnits="userSpaceOnUse">
<stop stop-color="#76B900"/>
<stop offset="1" stop-color="#B4C4C6"/>
</linearGradient>
<linearGradient id="paint108_linear_0_140" x1="44.9804" y1="288.848" x2="800.061" y2="451.583" gradientUnits="userSpaceOnUse">
<stop stop-color="#76B900"/>
<stop offset="1" stop-color="#B4C4C6"/>
</linearGradient>
<linearGradient id="paint109_linear_0_140" x1="44.9804" y1="288.848" x2="800.061" y2="451.583" gradientUnits="userSpaceOnUse">
<stop stop-color="#76B900"/>
<stop offset="1" stop-color="#B4C4C6"/>
</linearGradient>
<linearGradient id="paint110_linear_0_140" x1="44.9804" y1="288.848" x2="800.061" y2="451.583" gradientUnits="userSpaceOnUse">
<stop stop-color="#76B900"/>
<stop offset="1" stop-color="#B4C4C6"/>
</linearGradient>
<clipPath id="clip0_0_140">
<rect width="1073" height="582.705" fill="white"/>
</clipPath>
</defs>
</svg>
