<svg width="20" height="20" viewBox="0 0 20 20" fill="none" xmlns="http://www.w3.org/2000/svg">
<path d="M10 2C14.4187 2 18 5.58125 18 10C18 14.4187 14.4187 18 10 18C5.58125 18 2 14.4187 2 10C2 5.58125 5.58125 2 10 2ZM10 3.5C6.40938 3.5 3.5 6.40938 3.5 10C3.5 13.5906 6.40938 16.5 10 16.5C13.5906 16.5 16.5 13.5906 16.5 10C16.5 6.40938 13.5906 3.5 10 3.5ZM10 12C10.5531 12 11 12.4469 11 13C11 13.5531 10.5531 14 10 14C9.44688 14 9 13.5531 9 13C9 12.4469 9.44688 12 10 12ZM9.99707 6.00098C10.5672 6.00285 11.0149 6.48524 10.9746 7.05273L10.7441 10.3027C10.716 10.6964 10.3907 10.9999 9.99707 11C9.60645 11 9.27812 10.6965 9.25 10.3027L9.01855 7.05273C8.97824 6.48514 9.42983 6.00264 9.99707 6.00098Z" fill="#EFEFEF"/>
</svg>
