<svg width="32" height="32" viewBox="0 0 32 32" fill="none" xmlns="http://www.w3.org/2000/svg">
<path d="M26.4 16.0002C26.4 21.7452 21.745 26.4002 16 26.4002C10.255 26.4002 5.60001 21.7452 5.60001 16.0002C5.60001 10.2552 10.255 5.6002 16 5.6002C21.745 5.6002 26.4 10.2552 26.4 16.0002ZM3.20001 16.0002C3.20001 23.0702 8.93001 28.8002 16 28.8002C23.07 28.8002 28.8 23.0702 28.8 16.0002C28.8 8.9302 23.07 3.2002 16 3.2002C8.93001 3.2002 3.20001 8.9302 3.20001 16.0002ZM14.8 9.2002V16.0002C14.8 16.4002 15 16.7752 15.335 17.0002L20.135 20.2002C20.685 20.5702 21.43 20.4202 21.8 19.8652C22.17 19.3102 22.02 18.5702 21.465 18.2002L17.2 15.3602V9.2002C17.2 8.5352 16.665 8.0002 16 8.0002C15.335 8.0002 14.8 8.5352 14.8 9.2002Z" fill="white"/>
</svg>
