<svg width="32" height="32" viewBox="0 0 32 32" fill="none" xmlns="http://www.w3.org/2000/svg">
<path d="M23.2002 8.95996C27.0897 8.96007 30.2402 12.1104 30.2402 16C30.2402 19.8896 27.0897 23.0399 23.2002 23.04C20.9827 23.04 18.8971 21.9974 17.5684 20.2246L16.1279 18.3027L16 18.1318L15.8721 18.3027L14.4316 20.2246C13.1029 21.9974 11.0173 23.04 8.7998 23.04C4.91026 23.0399 1.75977 19.8896 1.75977 16C1.75977 12.1104 4.91026 8.96007 8.7998 8.95996C11.0173 8.95996 13.1029 10.0026 14.4316 11.7754L15.8721 13.6973L16 13.8682L16.1279 13.6973L17.5684 11.7754C18.8971 10.0026 20.9827 8.95996 23.2002 8.95996ZM8.7998 11.5205C6.32653 11.5206 4.32031 13.5267 4.32031 16C4.32031 18.4733 6.32653 20.4794 8.7998 20.4795C10.2089 20.4795 11.5399 19.818 12.3848 18.6885L14.3281 16.0957L14.4004 16L14.3281 15.9043L12.3838 13.3115C11.5389 12.1823 10.2088 11.5205 8.7998 11.5205ZM23.2002 11.5205C21.7911 11.5205 20.4601 12.182 19.6152 13.3115L17.6719 15.9043L17.5996 16L17.6719 16.0957L19.6152 18.6875C20.4601 19.8171 21.791 20.4795 23.2002 20.4795C25.6735 20.4794 27.6797 18.4733 27.6797 16C27.6797 13.5267 25.6735 11.5206 23.2002 11.5205ZM9.30566 20.29V20.291V20.29ZM22.9463 20.3125L22.71 20.292C22.7064 20.2916 22.7028 20.2905 22.6992 20.29C22.7812 20.2996 22.8635 20.3076 22.9463 20.3125ZM23.8477 20.2715C23.6364 20.3033 23.4203 20.3203 23.2002 20.3203C23.4202 20.3203 23.6364 20.3033 23.8477 20.2715ZM8.24414 20.2832C8.21578 20.2796 8.18737 20.2767 8.15918 20.2725C8.18737 20.2767 8.21578 20.2796 8.24414 20.2832ZM22.6152 20.2783C22.5656 20.2716 22.516 20.2653 22.4668 20.2568C22.516 20.2653 22.5656 20.2715 22.6152 20.2783ZM24.0635 20.2334C24.0111 20.244 23.9583 20.253 23.9053 20.2617C23.9583 20.253 24.0111 20.244 24.0635 20.2334ZM8.04883 20.2529C8.01719 20.2474 7.9855 20.2426 7.9541 20.2363C7.9855 20.2426 8.01719 20.2474 8.04883 20.2529ZM22.3545 20.2344C22.3095 20.2254 22.2643 20.2174 22.2197 20.207C22.2643 20.2174 22.3095 20.2254 22.3545 20.2344ZM7.82715 20.208C7.80272 20.2024 7.77817 20.1974 7.75391 20.1914C7.77818 20.1974 7.80272 20.2024 7.82715 20.208ZM22.1279 20.1836C22.0801 20.1714 22.0326 20.1584 21.9854 20.1445C22.0326 20.1584 22.0801 20.1714 22.1279 20.1836ZM7.62305 20.1562C7.60181 20.1502 7.58067 20.144 7.55957 20.1377C7.58067 20.144 7.60181 20.1502 7.62305 20.1562ZM21.876 20.1104C21.8401 20.0988 21.8041 20.0877 21.7686 20.0752C21.8041 20.0877 21.8401 20.0988 21.876 20.1104ZM7.43262 20.0977C7.40543 20.0886 7.3785 20.0789 7.35156 20.0693C7.3785 20.0789 7.40543 20.0886 7.43262 20.0977ZM24.668 20.0625C24.6346 20.0746 24.6011 20.0864 24.5674 20.0977C24.6011 20.0864 24.6346 20.0746 24.668 20.0625ZM7.27539 20.042C7.23268 20.0259 7.19049 20.0086 7.14844 19.9912C7.1905 20.0086 7.23268 20.0259 7.27539 20.042ZM24.8691 19.9844C24.8246 20.0031 24.7797 20.0209 24.7344 20.0381C24.7797 20.0209 24.8246 20.0031 24.8691 19.9844ZM21.6514 20.0312C21.6082 20.0147 21.565 19.9984 21.5225 19.9805C21.565 19.9984 21.6082 20.0147 21.6514 20.0312ZM7.08691 19.9658C7.04514 19.9477 7.00397 19.9285 6.96289 19.9092C7.00397 19.9285 7.04514 19.9477 7.08691 19.9658ZM25.0547 19.9004C25.0095 19.9219 24.964 19.9429 24.918 19.9629C24.964 19.9429 25.0095 19.9219 25.0547 19.9004ZM21.4541 19.9502C21.4016 19.927 21.3494 19.9032 21.2979 19.8779C21.3494 19.9032 21.4016 19.927 21.4541 19.9502ZM6.87012 19.8643C6.85435 19.8564 6.8389 19.8479 6.82324 19.8398C6.8389 19.8479 6.85435 19.8564 6.87012 19.8643ZM25.2236 19.8164C25.2004 19.8288 25.1768 19.8406 25.1533 19.8525C25.1768 19.8406 25.2004 19.8288 25.2236 19.8164ZM21.2305 19.8447C21.1813 19.8196 21.1331 19.7926 21.085 19.7656C21.1331 19.7927 21.1813 19.8196 21.2305 19.8447ZM6.68359 19.7656C6.66388 19.7545 6.64452 19.7429 6.625 19.7314C6.64452 19.7429 6.66388 19.7545 6.68359 19.7656ZM25.415 19.708C25.3831 19.7271 25.3508 19.7454 25.3184 19.7637C25.3508 19.7454 25.3831 19.7271 25.415 19.708ZM21.0195 19.7285C20.9708 19.7001 20.9226 19.671 20.875 19.6406C20.9226 19.671 20.9708 19.7001 21.0195 19.7285ZM6.53418 19.6777C6.50451 19.6594 6.47548 19.6401 6.44629 19.6211C6.47548 19.6401 6.5045 19.6594 6.53418 19.6777ZM25.5801 19.6045C25.5559 19.6205 25.5313 19.6358 25.5068 19.6514C25.5313 19.6358 25.5559 19.6205 25.5801 19.6045ZM20.7998 19.5908C20.765 19.5676 20.7305 19.5438 20.6963 19.5195C20.7305 19.5438 20.765 19.5675 20.7998 19.5908ZM6.35352 19.5596C6.33082 19.5439 6.30852 19.5278 6.28613 19.5117C6.30852 19.5278 6.33082 19.5439 6.35352 19.5596ZM25.7451 19.4893C25.7213 19.5066 25.697 19.5231 25.6729 19.54C25.697 19.5231 25.7213 19.5066 25.7451 19.4893ZM20.6045 19.4531C20.5582 19.4183 20.5127 19.3824 20.4678 19.3457C20.5127 19.3824 20.5582 19.4183 20.6045 19.4531ZM25.9219 19.3525C25.8902 19.3783 25.8585 19.4039 25.8262 19.4287C25.8585 19.4039 25.8902 19.3783 25.9219 19.3525ZM6.04785 19.3291C6.01868 19.305 5.99043 19.2798 5.96191 19.2549C5.99043 19.2798 6.01868 19.305 6.04785 19.3291ZM20.4189 19.3057C20.3771 19.2705 20.3364 19.2341 20.2959 19.1973C20.3364 19.2341 20.3772 19.2705 20.4189 19.3057ZM26.0586 19.2363C26.0351 19.2571 26.0113 19.2776 25.9873 19.2979C26.0113 19.2776 26.0351 19.2571 26.0586 19.2363ZM11.9297 18.9785V18.9795V18.9785ZM26.2178 19.0889C26.195 19.1111 26.1717 19.1326 26.1484 19.1543C26.1717 19.1326 26.195 19.1111 26.2178 19.0889ZM20.2344 19.1416C20.1898 19.0995 20.1464 19.0559 20.1035 19.0117C20.1464 19.0559 20.1898 19.0995 20.2344 19.1416ZM5.60254 18.9043C5.64854 18.9549 5.69581 19.0044 5.74414 19.0527C5.69891 19.0075 5.65453 18.9613 5.61133 18.9141L5.60254 18.9043ZM26.3877 18.9141C26.3527 18.9523 26.3166 18.9894 26.2803 19.0264C26.3166 18.9894 26.3527 18.9523 26.3877 18.9141ZM19.7441 18.5918C19.8436 18.7248 19.9498 18.8515 20.0625 18.9707C19.9498 18.8515 19.8436 18.7248 19.7441 18.5918ZM26.5059 18.7793C26.477 18.8135 26.4468 18.8466 26.417 18.8799C26.4468 18.8466 26.477 18.8135 26.5059 18.7793ZM5.54395 18.8369C5.52211 18.8119 5.49978 18.7873 5.47852 18.7617C5.49978 18.7873 5.52211 18.8119 5.54395 18.8369ZM26.6162 18.6406C26.604 18.6564 26.5925 18.6728 26.5801 18.6885C26.5925 18.6728 26.604 18.6564 26.6162 18.6406ZM5.41113 18.6768C5.39029 18.6504 5.36887 18.6245 5.34863 18.5977C5.36887 18.6245 5.39029 18.6504 5.41113 18.6768ZM26.751 18.458C26.7297 18.4887 26.7076 18.5187 26.6855 18.5488C26.7076 18.5187 26.7297 18.4887 26.751 18.458ZM5.26172 18.4766C5.25487 18.4668 5.24798 18.4571 5.24121 18.4473C5.24798 18.4571 5.25487 18.4668 5.26172 18.4766ZM26.8535 18.3027C26.8382 18.327 26.8225 18.351 26.8066 18.375C26.8225 18.351 26.8382 18.327 26.8535 18.3027ZM5.1582 18.3223C5.1459 18.303 5.13309 18.2841 5.12109 18.2646C5.1331 18.2841 5.1459 18.303 5.1582 18.3223ZM26.9805 18.0889C26.9577 18.13 26.9342 18.1706 26.9102 18.2109C26.9342 18.1706 26.9577 18.13 26.9805 18.0889ZM5.07129 18.1807C5.05353 18.1504 5.03657 18.1196 5.01953 18.0889C5.03657 18.1196 5.05353 18.1504 5.07129 18.1807ZM27.0732 17.9111C27.0508 17.9565 27.0279 18.0015 27.0039 18.0459C27.0279 18.0015 27.0508 17.9565 27.0732 17.9111ZM4.9707 17.999C4.95714 17.9731 4.94371 17.9471 4.93066 17.9209C4.94371 17.9471 4.95714 17.9731 4.9707 17.999ZM27.166 17.7129C27.1456 17.76 27.1236 17.8063 27.1016 17.8525C27.1236 17.8063 27.1456 17.76 27.166 17.7129ZM4.87305 17.7998C4.86441 17.781 4.85603 17.7621 4.84766 17.7432C4.85603 17.7621 4.86441 17.781 4.87305 17.7998ZM27.2363 17.54C27.2218 17.578 27.207 17.6158 27.1914 17.6533C27.207 17.6158 27.2218 17.578 27.2363 17.54ZM27.292 17.3848C27.2845 17.4069 27.2774 17.4292 27.2695 17.4512C27.2774 17.4292 27.2845 17.4069 27.292 17.3848ZM4.72461 17.4336C4.71276 17.3999 4.70146 17.3661 4.69043 17.332C4.70146 17.3661 4.71276 17.3999 4.72461 17.4336ZM4.66113 17.2393C4.64925 17.1995 4.63869 17.1593 4.62793 17.1191C4.6387 17.1593 4.64924 17.1995 4.66113 17.2393ZM27.4033 16.9932C27.3975 17.0179 27.392 17.0428 27.3857 17.0674C27.392 17.0428 27.3975 17.0179 27.4033 16.9932ZM4.60742 17.0449C4.60284 17.0265 4.59908 17.0078 4.59473 16.9893C4.59908 17.0078 4.60283 17.0265 4.60742 17.0449ZM4.47949 16H4.48047H4.47949ZM27.5146 15.7842C27.5182 15.8557 27.5205 15.9276 27.5205 16H27.5195C27.5195 15.9276 27.5182 15.8557 27.5146 15.7842ZM27.4355 15.1494C27.4581 15.2622 27.4757 15.3765 27.4893 15.4922C27.4757 15.3765 27.4581 15.2621 27.4355 15.1494ZM27.3848 14.9258C27.3956 14.9681 27.4045 15.0109 27.4141 15.0537C27.4045 15.0109 27.3956 14.9681 27.3848 14.9258ZM27.2656 14.54C27.2762 14.5695 27.2859 14.5992 27.2959 14.6289C27.2859 14.5992 27.2762 14.5695 27.2656 14.54ZM27.1885 14.3389C27.2041 14.3762 27.2179 14.4143 27.2324 14.4521C27.2179 14.4143 27.2041 14.3762 27.1885 14.3389ZM5.10547 13.7607C5.06939 13.8201 5.03423 13.8802 5.00098 13.9414C5.03437 13.8799 5.06923 13.8194 5.10547 13.7598V13.7607ZM27.1016 14.1455C27.1187 14.1814 27.1352 14.2175 27.1514 14.2539C27.1352 14.2175 27.1187 14.1814 27.1016 14.1455ZM27.0049 13.9561C27.0232 13.99 27.0412 14.0241 27.0586 14.0586C27.0412 14.0241 27.0232 13.99 27.0049 13.9561ZM26.9062 13.7812C26.9321 13.8244 26.957 13.868 26.9814 13.9121C26.9571 13.868 26.9321 13.8244 26.9062 13.7812ZM26.8047 13.6201C26.8242 13.6496 26.8425 13.6799 26.8613 13.71C26.8425 13.6799 26.8242 13.6496 26.8047 13.6201ZM5.33789 13.416H5.33887H5.33789ZM26.6689 13.4277C26.6983 13.4672 26.7269 13.5073 26.7549 13.5479C26.7269 13.5073 26.6983 13.4672 26.6689 13.4277ZM11.9365 13.0283C12.0496 13.1479 12.1561 13.2748 12.2559 13.4082C12.1561 13.2748 12.0496 13.1479 11.9365 13.0283ZM20.0703 13.0205V13.0215V13.0205ZM26.4229 13.125C26.4476 13.1527 26.4721 13.1806 26.4961 13.209C26.4721 13.1806 26.4476 13.1527 26.4229 13.125ZM5.74512 12.9453H5.74609H5.74512ZM26.2744 12.9668C26.3079 13.0007 26.3407 13.0353 26.373 13.0703C26.3407 13.0353 26.3079 13.0007 26.2744 12.9668ZM11.7646 12.8574C11.7949 12.886 11.824 12.9158 11.8535 12.9453C11.824 12.9158 11.7949 12.886 11.7646 12.8574ZM26.1357 12.833C26.1626 12.8579 26.1896 12.8826 26.2158 12.9082C26.1896 12.8826 26.1626 12.8579 26.1357 12.833ZM11.5801 12.6934C11.6196 12.7266 11.6579 12.7612 11.6963 12.7959C11.6579 12.7612 11.6196 12.7266 11.5801 12.6934ZM25.9912 12.7051C26.0162 12.7263 26.0409 12.7478 26.0654 12.7695C26.0409 12.7478 26.0162 12.7263 25.9912 12.7051ZM11.3916 12.5439C11.4339 12.5756 11.4754 12.6083 11.5166 12.6416C11.4754 12.6083 11.4339 12.5756 11.3916 12.5439ZM25.8457 12.5859C25.8666 12.6021 25.8867 12.6192 25.9072 12.6357C25.8867 12.6192 25.8666 12.6021 25.8457 12.5859ZM25.6699 12.457C25.6967 12.4758 25.7236 12.4944 25.75 12.5137C25.7236 12.4943 25.6967 12.4758 25.6699 12.457ZM11.1992 12.4082C11.2341 12.4315 11.2686 12.4552 11.3027 12.4795C11.2686 12.4552 11.2341 12.4315 11.1992 12.4082ZM25.5039 12.3467C25.5288 12.3624 25.5536 12.3783 25.5781 12.3945C25.5536 12.3783 25.5288 12.3624 25.5039 12.3467ZM10.9717 12.2656C11.0214 12.2945 11.0705 12.3246 11.1191 12.3555C11.0705 12.3246 11.0214 12.2945 10.9717 12.2656ZM25.334 12.2441C25.3576 12.2576 25.381 12.2713 25.4043 12.2852C25.381 12.2713 25.3576 12.2576 25.334 12.2441ZM10.7686 12.1543C10.8177 12.1794 10.8659 12.2064 10.9141 12.2334C10.8659 12.2064 10.8177 12.1794 10.7686 12.1543ZM6.92773 12.1055V12.1064V12.1055ZM25.127 12.1338C25.1607 12.1507 25.1943 12.1678 25.2275 12.1855C25.1943 12.1678 25.1607 12.1507 25.127 12.1338ZM10.5449 12.0488C10.5975 12.072 10.6496 12.0959 10.7012 12.1211C10.6496 12.0959 10.5974 12.072 10.5449 12.0488ZM24.9424 12.0469C24.9797 12.0634 25.0169 12.0801 25.0537 12.0977C25.0169 12.0801 24.9797 12.0634 24.9424 12.0469ZM10.3477 11.9678C10.3898 11.9839 10.432 12.0001 10.4736 12.0176C10.432 12.0001 10.3898 11.9839 10.3477 11.9678ZM24.7354 11.9619C24.7776 11.978 24.8197 11.9944 24.8613 12.0117C24.8197 11.9944 24.7776 11.978 24.7354 11.9619ZM24.5859 11.9082C24.6143 11.9178 24.6428 11.9273 24.6709 11.9375C24.6428 11.9273 24.6143 11.9178 24.5859 11.9082ZM10.123 11.8887C10.1589 11.9002 10.1949 11.9114 10.2305 11.9238C10.1949 11.9114 10.1589 11.9002 10.123 11.8887ZM7.7207 11.8154V11.8164V11.8154ZM9.86133 11.8135C9.91267 11.8265 9.9639 11.8396 10.0146 11.8545C9.9639 11.8396 9.91267 11.8265 9.86133 11.8135ZM24.1641 11.7891C24.1987 11.797 24.2333 11.8048 24.2676 11.8135C24.2333 11.8047 24.1987 11.797 24.1641 11.7891ZM9.64453 11.7646C9.68953 11.7736 9.73469 11.7816 9.7793 11.792C9.73469 11.7816 9.68953 11.7736 9.64453 11.7646ZM22.6943 11.709V11.71V11.709ZM9.38379 11.7207C9.4334 11.7275 9.48301 11.7337 9.53223 11.7422C9.48301 11.7337 9.4334 11.7275 9.38379 11.7207ZM9.05371 11.6875C9.13608 11.6923 9.21827 11.6995 9.2998 11.709C9.21821 11.6995 9.13615 11.6923 9.05371 11.6875ZM3.95801 21.3301L3.94238 21.3154C4.0001 21.3682 4.05972 21.4188 4.11914 21.4697C4.06514 21.4235 4.0106 21.3779 3.95801 21.3301ZM3.48145 20.8535C3.42483 20.7915 3.36987 20.728 3.31543 20.6641C3.36987 20.728 3.42483 20.7915 3.48145 20.8535ZM24.4668 20.1299C24.4061 20.1485 24.345 20.1657 24.2832 20.1816C24.345 20.1657 24.4061 20.1485 24.4668 20.1299ZM24.2666 20.1855C24.2039 20.2015 24.1409 20.2173 24.0771 20.2305C24.1409 20.2173 24.2039 20.2015 24.2666 20.1855ZM30.3633 16.7266C30.3522 16.837 30.3383 16.9467 30.3223 17.0557C30.3383 16.9467 30.3522 16.837 30.3633 16.7266ZM1.61523 16.4424C1.62088 16.5356 1.62561 16.6285 1.63477 16.7207C1.62561 16.6285 1.62088 16.5356 1.61523 16.4424ZM27.3301 14.7324C27.3486 14.7928 27.3659 14.8536 27.3818 14.915C27.3659 14.8536 27.3486 14.7928 27.3301 14.7324ZM26.5527 13.2773C26.5879 13.3205 26.6218 13.3646 26.6553 13.4092C26.6218 13.3646 26.5879 13.3205 26.5527 13.2773Z" fill="white"/>
</svg>
