<svg width="32" height="32" viewBox="0 0 32 32" fill="none" xmlns="http://www.w3.org/2000/svg">
<path d="M16.765 5.6352C11.41 6.0602 7.19999 10.5402 7.19999 16.0002C7.19999 21.7452 11.855 26.4002 17.6 26.4002C19.265 26.4002 20.835 26.0102 22.23 25.3152C17.06 24.1452 13.2 19.5252 13.2 14.0002C13.2 10.7102 14.57 7.7452 16.765 5.6352ZM4.79999 16.0002C4.79999 8.9302 10.53 3.2002 17.6 3.2002C18.57 3.2002 19.52 3.3102 20.435 3.5152C20.93 3.6252 21.3 4.0402 21.36 4.5402C21.42 5.0402 21.16 5.5302 20.705 5.7602C17.675 7.2702 15.6 10.3952 15.6 14.0002C15.6 19.0802 19.72 23.2002 24.8 23.2002C25.05 23.2002 25.295 23.1902 25.54 23.1702C26.045 23.1302 26.52 23.4102 26.73 23.8752C26.94 24.3402 26.83 24.8802 26.465 25.2302C24.165 27.4402 21.04 28.8002 17.6 28.8002C10.53 28.8002 4.79999 23.0702 4.79999 16.0002Z" fill="white"/>
</svg>
