<?xml version="1.0" encoding="UTF-8"?><svg id="_圖層_2" xmlns="http://www.w3.org/2000/svg" xmlns:xlink="http://www.w3.org/1999/xlink" viewBox="0 0 127.53 127.53"><defs><style>.cls-1,.cls-2{fill:#fff;}.cls-3{fill:gold;}.cls-4{fill:#231815;}.cls-5{filter:url(#drop-shadow-2);}.cls-2{filter:url(#drop-shadow-1);}.cls-6{fill:none;stroke:#231815;}</style><filter id="drop-shadow-1" filterUnits="userSpaceOnUse"><feOffset dx=".95" dy="-.95"/><feGaussianBlur result="blur" stdDeviation=".76"/><feFlood flood-color="#231815" flood-opacity=".75"/><feComposite in2="blur" operator="in"/><feComposite in="SourceGraphic"/></filter><filter id="drop-shadow-2" filterUnits="userSpaceOnUse"><feOffset dx=".92" dy="-.92"/><feGaussianBlur result="blur-2" stdDeviation=".74"/><feFlood flood-color="#231815" flood-opacity=".75"/><feComposite in2="blur-2" operator="in"/><feComposite in="SourceGraphic"/></filter></defs><g id="sphere"><g><rect class="cls-3" x=".5" y=".5" width="126.53" height="126.53"/><rect class="cls-1" x=".5" y="91.97" width="126.53" height="35.06"/><rect class="cls-6" x=".5" y=".5" width="126.53" height="126.53"/><polygon class="cls-2" points="121.98 14 114.94 14 114.94 6.96 103.84 6.96 103.84 14 96.8 14 96.8 25.1 103.84 25.1 103.84 32.14 114.94 32.14 114.94 25.1 121.98 25.1 121.98 14"/><g class="cls-5"><path class="cls-1" d="M25.43,9.42c-.2,3.52-2.21,11.71-16.59,11.71h-3.08v12.29H22.89v50.59h16.31V8.41h-13.71l-.06,1.01Z"/><path class="cls-1" d="M64.58,69.04c1.96-2.44,5.92-5.27,12.2-9.75l2.58-1.84c7.48-5.2,15.47-11.84,15.47-24.79,0-14.5-10.37-24.25-25.8-24.25-7.39,0-24.58,2.64-24.58,27.05v1.07h15.88l.02-1.05c.12-6.43,.94-12.71,9.29-12.71,6.1,0,8.88,4.86,8.88,9.37,0,7.62-4.69,11.1-17.22,20.38l-.5,.37c-16.1,11.95-16.67,21.53-17.17,29.98l-.07,1.14h51.36v-14.98h-30.35Z"/></g><g><path class="cls-4" d="M27.52,114.42c0,.08-.04,.11-.12,.11-.08,.08-.19,.12-.34,.12h-3.67v1.61h3.9v2.75h-3.9v3.9h-2.76v-3.9h-4.59v-2.75h4.59v-1.61h-3.9c-.15,0-.27-.04-.34-.12-.08,0-.11-.04-.11-.11v-11.94c0-.15,.04-.23,.11-.23,.08-.08,.19-.08,.34,0h3.9v-1.38h-4.36v-2.75h4.36v-2.3h2.76v2.3h3.9v2.75h-3.9v1.38h3.67c.15-.08,.27-.08,.34,0,.08,0,.12,.08,.12,.23v11.94Zm-6.89-7.35v-2.53h-1.61l.23,.23v2.3h1.38Zm0,5.28v-2.53h-1.38v2.3h-.23l.23,.23h1.38Zm4.13-5.28v-2.53h-1.38v2.53h1.38Zm0,2.75h-1.38v2.53h1.38v-2.53Zm18.83-9.18l-2.3,1.15-.46-.92h-4.13v1.15h4.59c.31,0,.57,.08,.81,.23,.15,.23,.27,.54,.34,.92v17.68c-.08,.92-.38,1.61-.92,2.07-.61,.46-1.38,.69-2.3,.69-.31-.08-.61-.15-.92-.23-.38-.15-.69-.23-.92-.23l-.46-3.45c.31,.23,.65,.38,1.03,.46,.31,.15,.65,.23,1.03,.23,.08-.15,.15-.31,.23-.46,.08-.23,.15-.38,.23-.46v-3.67h-2.76v6.89h-2.75v-6.89h-2.75v6.89h-2.99v-19.52c0-.38,.08-.69,.23-.92,.23-.15,.54-.23,.92-.23h4.59v-1.15h-5.51v-2.75h5.51v-2.07h2.75v2.07h2.53c-.15-.23-.31-.46-.46-.69-.15-.23-.31-.46-.46-.69l2.3-1.38c.54,.77,1.03,1.61,1.49,2.53,.53,.84,1.03,1.76,1.49,2.76Zm-9.64,6.89v-2.53h-2.75v2.53h2.75Zm0,5.51v-2.76h-2.75v2.76h2.75Zm5.51-5.51v-2.53h-2.76v2.53h2.76Zm0,5.51v-2.76h-2.76v2.76h2.76Z"/><path class="cls-4" d="M56.68,121.03h-4.4v-16.59c-1.61,1.5-3.51,2.62-5.69,3.34v-4c1.15-.38,2.4-1.09,3.75-2.14,1.35-1.05,2.27-2.27,2.77-3.67h3.57v23.07Z"/><path class="cls-4" d="M78.13,116.94v4.09h-15.44c.17-1.55,.67-3.01,1.51-4.4,.83-1.38,2.49-3.22,4.95-5.51,1.98-1.85,3.2-3.1,3.65-3.76,.61-.91,.91-1.81,.91-2.7,0-.98-.26-1.74-.79-2.26-.53-.53-1.26-.79-2.19-.79s-1.65,.28-2.19,.83c-.54,.55-.86,1.47-.94,2.76l-4.39-.44c.26-2.42,1.08-4.16,2.46-5.22,1.38-1.05,3.1-1.58,5.17-1.58,2.27,0,4.05,.61,5.34,1.83,1.3,1.22,1.94,2.74,1.94,4.56,0,1.03-.19,2.02-.56,2.95-.37,.93-.96,1.91-1.76,2.94-.53,.68-1.49,1.66-2.88,2.93-1.39,1.27-2.27,2.12-2.64,2.54-.37,.42-.67,.83-.9,1.22h8.74Z"/><path class="cls-4" d="M96.27,110.52l-2.76,.69-.23-1.38-2.07,.23v12.86h-2.76v-12.4l-3.9,.69c-.15-.54-.27-1.03-.35-1.49-.15-.54-.27-1.03-.34-1.49l2.07-.23c.31-.38,.65-.77,1.04-1.15,.3-.46,.65-.84,1.03-1.15-.77-.76-1.53-1.42-2.3-1.95-.76-.54-1.53-.96-2.29-1.26l1.38-2.75c.23,.08,.46,.23,.69,.46,.3,.15,.54,.31,.69,.46,.46-.92,.92-1.8,1.38-2.64,.46-.92,.92-1.8,1.38-2.64l2.53,1.38c-.54,.92-1.07,1.84-1.61,2.76-.54,.92-1.07,1.84-1.61,2.76,.23,.08,.46,.23,.69,.46,.23,.15,.46,.31,.69,.46,.31-.61,.61-1.26,.92-1.95,.31-.61,.61-1.26,.92-1.95l2.76,.92c-.31,1.07-.92,2.29-1.84,3.67-1,1.38-1.84,2.53-2.53,3.44l2.3-.23c-.15-.23-.23-.46-.23-.69-.08-.23-.15-.46-.23-.69l2.52-.92c.38,.92,.73,1.88,1.03,2.87,.31,.92,.65,1.88,1.03,2.87Zm-8.5,2.07c-.23,1.45-.5,2.95-.8,4.48-.23,1.46-.5,2.95-.8,4.48l-2.53-.69c.23-1.22,.5-2.68,.8-4.36,.3-1.68,.5-3.14,.57-4.36l2.75,.46Zm23.88,8.5l-2.3,2.07c-.84-.61-1.68-1.26-2.53-1.95s-1.61-1.42-2.3-2.18c-.92,.84-1.88,1.61-2.87,2.3-1,.61-2.11,1.22-3.33,1.84l-2.07-2.07c-.15,.23-.27,.46-.34,.69-.15,.23-.27,.46-.34,.69l-2.98-.69c.3-.61,.57-1.22,.8-1.84,.3-.69,.57-1.3,.8-1.84l-1.61,.23-1.15-5.97,2.76-.69,.69,4.59c.77-2.3,1.34-4.59,1.72-6.89,.38-2.3,.57-4.59,.57-6.89v-2.75h-2.98v-2.99h13.78c.23,0,.46,.12,.69,.35,.23,.23,.38,.5,.46,.8-.08,.46-.31,1.45-.69,2.99-.31,1.45-.54,2.53-.69,3.21h1.61l1.84,1.38c-.23,2.3-.73,4.36-1.49,6.2-.77,1.76-1.8,3.6-3.1,5.51,.77,.69,1.57,1.34,2.41,1.95,.84,.69,1.72,1.34,2.64,1.95Zm-8.96-4.36c-.84-1.15-1.49-2.37-1.95-3.67-.54-1.22-.96-2.53-1.26-3.9,0,1.38-.38,3.33-1.15,5.85-.69,2.45-1.3,4.4-1.84,5.86,1.15-.61,2.22-1.26,3.21-1.95,1.07-.69,2.07-1.42,2.98-2.18Zm2.98-16.76c-.08-.15-.15-.23-.23-.23-.08-.08-.15-.08-.23,0h-5.05l-.23,4.36h4.82l.92-4.13Zm2.3,7.12h-5.97c.23,1.22,.57,2.49,1.03,3.79,.46,1.3,1.03,2.56,1.72,3.79,.77-1.07,1.42-2.3,1.95-3.67,.54-1.38,.96-2.68,1.26-3.9Z"/></g></g></g></svg>