<svg width="148" height="102" viewBox="0 0 148 102" fill="none" xmlns="http://www.w3.org/2000/svg">
<path d="M67.2742 53.7173L70.3893 47.9713C70.442 47.9023 70.4786 47.8223 70.4962 47.7372C70.5138 47.6522 70.512 47.5643 70.491 47.48C70.4699 47.3957 70.4302 47.3173 70.3746 47.2505C70.3191 47.1837 70.2492 47.1303 70.1702 47.0943C70.0968 47.0481 70.0144 47.0182 69.9285 47.0065C69.8425 46.9949 69.7551 47.0017 69.672 47.0266C69.589 47.0515 69.5122 47.0939 69.4469 47.1509C69.3815 47.208 69.3292 47.2783 69.2932 47.3573L66.1353 53.1493C63.3546 51.9327 60.3523 51.3047 57.3172 51.3047C54.2821 51.3047 51.2799 51.9327 48.4993 53.1493L45.3402 47.3563C45.3043 47.2773 45.252 47.207 45.1866 47.1499C45.1213 47.0929 45.0445 47.0505 44.9615 47.0256C44.8784 47.0007 44.791 46.9939 44.705 47.0055C44.6191 47.0172 44.5367 47.0471 44.4632 47.0933C44.3841 47.1292 44.3141 47.1825 44.2585 47.2493C44.2028 47.3161 44.163 47.3945 44.1419 47.4789C44.1209 47.5632 44.1191 47.6512 44.1369 47.7363C44.1546 47.8214 44.1913 47.9013 44.2442 47.9703L47.3542 53.7173C44.2831 55.2489 41.6777 57.5743 39.8083 60.4522C37.959 63.2574 36.9819 66.5474 37.0003 69.9073H77.5842C77.6023 66.5475 76.6253 63.2575 74.7762 60.4522C72.9159 57.5827 70.327 55.2586 67.2742 53.7173ZM49.2652 62.0752C49.1094 62.2377 48.9218 62.3664 48.7142 62.4535C48.5066 62.5405 48.2833 62.584 48.0582 62.5813C47.8363 62.5854 47.6161 62.5424 47.412 62.4552C47.2079 62.368 47.0246 62.2385 46.8743 62.0752C46.5646 61.7501 46.392 61.3183 46.392 60.8693C46.392 60.4202 46.5646 59.9884 46.8743 59.6632C47.0254 59.5014 47.209 59.3732 47.413 59.2871C47.617 59.2009 47.8368 59.1587 48.0582 59.1632C48.3967 59.1619 48.7279 59.2613 49.0096 59.4488C49.2914 59.6363 49.511 59.9034 49.6404 60.2162C49.7699 60.5289 49.8033 60.873 49.7365 61.2048C49.6697 61.5366 49.5056 61.841 49.2652 62.0793V62.0752ZM67.7562 62.0752C67.6057 62.2383 67.4225 62.3677 67.2184 62.4549C67.0143 62.5422 66.7941 62.5852 66.5723 62.5813C66.1185 62.5813 65.6833 62.401 65.3624 62.0801C65.0415 61.7592 64.8613 61.324 64.8613 60.8702C64.8613 60.4165 65.0415 59.9813 65.3624 59.6604C65.6833 59.3395 66.1185 59.1593 66.5723 59.1593C66.7936 59.1548 67.0135 59.197 67.2175 59.2832C67.4215 59.3693 67.6051 59.4975 67.7562 59.6593C68.0658 59.9844 68.2385 60.4162 68.2385 60.8652C68.2385 61.3143 68.0658 61.7461 67.7562 62.0712V62.0752Z" fill="#76B900"/>
<path d="M144 63H90C89.4477 63 89 63.3025 89 63.6757V87.3243C89 87.6975 89.4477 88 90 88H144C144.552 88 145 87.6975 145 87.3243V63.6757C145 63.3025 144.552 63 144 63Z" stroke="#76B900" stroke-width="2"/>
<path fill-rule="evenodd" clip-rule="evenodd" d="M0.5 3C0.5 1.61929 1.61929 0.5 3 0.5H111C112.381 0.5 113.5 1.61929 113.5 3V62H111.5V3C111.5 2.72386 111.276 2.5 111 2.5H3C2.72386 2.5 2.5 2.72386 2.5 3V73C2.5 73.2761 2.72386 73.5 3 73.5H88V75.5H3C1.61929 75.5 0.5 74.3807 0.5 73V3Z" fill="#76B900"/>
<rect x="30" y="86" width="54" height="3" rx="1.5" fill="#76B900"/>
<rect x="58" y="74" width="14" height="3" rx="1.5" transform="rotate(90 58 74)" fill="#76B900"/>
<path d="M114.861 70.0512C115.177 70.0512 115.435 70.1422 115.634 70.3243C115.832 70.5064 115.932 70.7454 115.932 71.0413C115.932 71.3371 115.832 71.5761 115.634 71.7582C115.435 71.9289 115.177 72.0142 114.861 72.0142H112.107V80.9587C112.107 81.2546 111.995 81.505 111.773 81.7098C111.551 81.9033 111.276 82 110.948 82C110.621 82 110.352 81.9033 110.141 81.7098C109.931 81.505 109.825 81.2546 109.825 80.9587V72.0142H107.07C106.755 72.0142 106.497 71.9232 106.298 71.7411C106.099 71.559 106 71.3201 106 71.0242C106 70.7397 106.099 70.5064 106.298 70.3243C106.509 70.1422 106.766 70.0512 107.07 70.0512H114.861Z" fill="#76B900"/>
<path d="M126.912 70.0171C127.205 70.0171 127.456 70.1138 127.667 70.3073C127.889 70.5007 128 70.734 128 71.0071C128 71.155 127.965 71.3087 127.895 71.468L123.56 81.3343C123.455 81.5505 123.309 81.7155 123.122 81.8293C122.935 81.9431 122.736 82 122.525 82C122.326 81.9886 122.139 81.9317 121.964 81.8293C121.8 81.7155 121.671 81.5562 121.578 81.3514L117.243 71.4509C117.185 71.3371 117.156 71.1949 117.156 71.0242C117.156 70.7169 117.273 70.4723 117.507 70.2902C117.741 70.0967 117.98 70 118.226 70C118.425 70 118.612 70.0569 118.788 70.1707C118.963 70.2845 119.098 70.4495 119.191 70.6657L122.718 78.7397L125.947 70.6657C126.041 70.4609 126.175 70.3016 126.351 70.1878C126.526 70.074 126.713 70.0171 126.912 70.0171Z" fill="#76B900"/>
</svg>
