<svg width="24" height="24" viewBox="0 0 24 24" fill="none" xmlns="http://www.w3.org/2000/svg">
<path d="M7 9.33333H8.66667V11H10.3333V12.6667H8.66667V14.3333H7V12.6667H5.33333V11H7V9.33333ZM17.4167 9.33333C17.7482 9.33333 18.0661 9.46503 18.3005 9.69945C18.535 9.93387 18.6667 10.2518 18.6667 10.5833C18.6667 10.9149 18.535 11.2328 18.3005 11.4672C18.0661 11.7016 17.7482 11.8333 17.4167 11.8333C17.0851 11.8333 16.7672 11.7016 16.5328 11.4672C16.2984 11.2328 16.1667 10.9149 16.1667 10.5833C16.1667 10.2518 16.2984 9.93387 16.5328 9.69945C16.7672 9.46503 17.0851 9.33333 17.4167 9.33333ZM14.9167 11.8333C15.2482 11.8333 15.5661 11.965 15.8005 12.1995C16.035 12.4339 16.1667 12.7518 16.1667 13.0833C16.1667 13.4149 16.035 13.7328 15.8005 13.9672C15.5661 14.2016 15.2482 14.3333 14.9167 14.3333C14.5851 14.3333 14.2672 14.2016 14.0328 13.9672C13.7984 13.7328 13.6667 13.4149 13.6667 13.0833C13.6667 12.7518 13.7984 12.4339 14.0328 12.1995C14.2672 11.965 14.5851 11.8333 14.9167 11.8333ZM16.1667 6C17.7138 6 19.1975 6.61458 20.2915 7.70854C21.3854 8.80251 22 10.2862 22 11.8333C22 13.3804 21.3854 14.8642 20.2915 15.9581C19.1975 17.0521 17.7138 17.6667 16.1667 17.6667C14.5333 17.6667 13.0583 17 12 15.9167C11.4579 16.4724 10.8098 16.9136 10.0941 17.2142C9.3784 17.5148 8.60962 17.6687 7.83333 17.6667C6.28624 17.6667 4.80251 17.0521 3.70854 15.9581C2.61458 14.8642 2 13.3804 2 11.8333C2 10.2862 2.61458 8.80251 3.70854 7.70854C4.80251 6.61458 6.28624 6 7.83333 6H16.1667ZM7.83333 7.66667C6.72826 7.66667 5.66846 8.10565 4.88705 8.88706C4.10565 9.66846 3.66667 10.7283 3.66667 11.8333C3.66667 12.9384 4.10565 13.9982 4.88705 14.7796C5.66846 15.561 6.72826 16 7.83333 16C9.2 16 10.4083 15.3417 11.1667 14.3333H12.8333C13.5917 15.3417 14.8 16 16.1667 16C17.2717 16 18.3315 15.561 19.1129 14.7796C19.8943 13.9982 20.3333 12.9384 20.3333 11.8333C20.3333 10.7283 19.8943 9.66846 19.1129 8.88706C18.3315 8.10565 17.2717 7.66667 16.1667 7.66667H7.83333Z" fill="white"/>
</svg>
