<svg width="24" height="24" viewBox="0 0 24 24" fill="none" xmlns="http://www.w3.org/2000/svg">
<path d="M11.1001 11.0821C11.1001 10.8434 11.1949 10.6145 11.3637 10.4457C11.5325 10.277 11.7614 10.1821 12.0001 10.1821C12.2388 10.1821 12.4677 10.277 12.6365 10.4457C12.8053 10.6145 12.9001 10.8434 12.9001 11.0821V16.4821C12.9001 16.7208 12.8053 16.9497 12.6365 17.1185C12.4677 17.2873 12.2388 17.3821 12.0001 17.3821C11.7614 17.3821 11.5325 17.2873 11.3637 17.1185C11.1949 16.9497 11.1001 16.7208 11.1001 16.4821V11.0821Z" fill="white"/>
<path d="M12.0001 6.64575C11.7614 6.64575 11.5325 6.74057 11.3637 6.90936C11.1949 7.07814 11.1001 7.30706 11.1001 7.54575C11.1001 7.78445 11.1949 8.01337 11.3637 8.18215C11.5325 8.35093 11.7614 8.44575 12.0001 8.44575C12.2388 8.44575 12.4677 8.35093 12.6365 8.18215C12.8053 8.01337 12.9001 7.78445 12.9001 7.54575C12.9001 7.30706 12.8053 7.07814 12.6365 6.90936C12.4677 6.74057 12.2388 6.64575 12.0001 6.64575Z" fill="white"/>
<path d="M12 19.875C9.91142 19.875 7.90838 19.0453 6.43153 17.5685C4.95468 16.0916 4.125 14.0886 4.125 12C4.125 9.91142 4.95468 7.90838 6.43153 6.43153C7.90838 4.95468 9.91142 4.125 12 4.125C14.0886 4.125 16.0916 4.95468 17.5685 6.43153C19.0453 7.90838 19.875 9.91142 19.875 12C19.875 14.0886 19.0453 16.0916 17.5685 17.5685C16.0916 19.0453 14.0886 19.875 12 19.875ZM12 21C14.3869 21 16.6761 20.0518 18.364 18.364C20.0518 16.6761 21 14.3869 21 12C21 9.61305 20.0518 7.32387 18.364 5.63604C16.6761 3.94821 14.3869 3 12 3C9.61305 3 7.32387 3.94821 5.63604 5.63604C3.94821 7.32387 3 9.61305 3 12C3 14.3869 3.94821 16.6761 5.63604 18.364C7.32387 20.0518 9.61305 21 12 21Z" fill="white"/>
</svg>
