<svg width="24" height="24" viewBox="0 0 24 24" fill="none" xmlns="http://www.w3.org/2000/svg">
<path d="M16.02 5.19995H18C18.2122 5.19995 18.4157 5.28424 18.5657 5.43427C18.7157 5.58429 18.8 5.78778 18.8 5.99995V19.2C18.8 19.4121 18.7157 19.6156 18.5657 19.7656C18.4157 19.9157 18.2122 20 18 20H6.8C6.58783 20 6.38434 19.9157 6.23431 19.7656C6.08429 19.6156 6 19.4121 6 19.2V5.99995C6 5.78778 6.08429 5.58429 6.23431 5.43427C6.38434 5.28424 6.58783 5.19995 6.8 5.19995H9.6V6.39995H15.2V5.19995H16.02Z" stroke="white" stroke-width="1.2" stroke-linejoin="round"/>
<path d="M9.6001 4H15.2001V6.4H9.6001V4Z" stroke="white" stroke-width="1.2" stroke-linecap="round" stroke-linejoin="round"/>
<path d="M13.5999 10L10.3999 13.2004H14.4015L11.1999 16.4004" stroke="white" stroke-width="1.2" stroke-linecap="round" stroke-linejoin="round"/>
</svg>
