<svg width="24" height="24" viewBox="0 0 24 24" fill="none" xmlns="http://www.w3.org/2000/svg">
<path d="M12 19.875C9.91142 19.875 7.90838 19.0453 6.43153 17.5685C4.95468 16.0916 4.125 14.0886 4.125 12C4.125 9.91142 4.95468 7.90838 6.43153 6.43153C7.90838 4.95468 9.91142 4.125 12 4.125C14.0886 4.125 16.0916 4.95468 17.5685 6.43153C19.0453 7.90838 19.875 9.91142 19.875 12C19.875 14.0886 19.0453 16.0916 17.5685 17.5685C16.0916 19.0453 14.0886 19.875 12 19.875ZM12 21C14.3869 21 16.6761 20.0518 18.364 18.364C20.0518 16.6761 21 14.3869 21 12C21 9.61305 20.0518 7.32387 18.364 5.63604C16.6761 3.94821 14.3869 3 12 3C9.61305 3 7.32387 3.94821 5.63604 5.63604C3.94821 7.32387 3 9.61305 3 12C3 14.3869 3.94821 16.6761 5.63604 18.364C7.32387 20.0518 9.61305 21 12 21Z" fill="white"/>
<path d="M8.91186 9.50925C8.91032 9.54558 8.91623 9.58184 8.92922 9.61581C8.94221 9.64977 8.96202 9.68072 8.98741 9.70674C9.0128 9.73277 9.04326 9.75333 9.07689 9.76715C9.11052 9.78097 9.14663 9.78777 9.18298 9.78713H10.1111C10.2664 9.78713 10.3901 9.66 10.4104 9.50588C10.5116 8.76787 11.0179 8.23013 11.9201 8.23013C12.6919 8.23013 13.3984 8.616 13.3984 9.54412C13.3984 10.2585 12.9776 10.587 12.3127 11.0865C11.5556 11.6366 10.956 12.279 10.9987 13.3219L11.0021 13.566C11.0033 13.6398 11.0334 13.7102 11.0861 13.762C11.1387 13.8137 11.2095 13.8428 11.2834 13.8427H12.1957C12.2703 13.8427 12.3419 13.8131 12.3946 13.7604C12.4474 13.7076 12.477 13.6361 12.477 13.5615V13.4434C12.477 12.6356 12.7841 12.4005 13.6132 11.7716C14.2984 11.2508 15.0127 10.6725 15.0127 9.45863C15.0127 7.75875 13.5772 6.9375 12.0056 6.9375C10.5802 6.9375 9.01874 7.60125 8.91186 9.50925ZM10.6635 15.9926C10.6635 16.5922 11.1416 17.0355 11.7997 17.0355C12.4849 17.0355 12.9562 16.5922 12.9562 15.9926C12.9562 15.3716 12.4837 14.9351 11.7986 14.9351C11.1416 14.9351 10.6635 15.3716 10.6635 15.9926Z" fill="white"/>
</svg>
