<svg width="60" height="60" viewBox="0 0 60 60" fill="none" xmlns="http://www.w3.org/2000/svg">
<path d="M37 19.376C37 21.5851 38.7909 23.376 41 23.376H53C55.2091 23.376 57 25.1668 57 27.376V33.376C57 35.5851 55.2091 37.376 53 37.376H41C38.7909 37.376 37 39.1668 37 41.376V53.376C37 55.5851 35.2091 57.376 33 57.376H27C24.7909 57.376 23 55.5851 23 53.376V41.376C23 39.1668 21.2091 37.376 19 37.376H7C4.79086 37.376 3 35.5851 3 33.376V27.376C3 25.1668 4.79086 23.376 7 23.376H19C21.2091 23.376 23 21.5851 23 19.376V7.37598C23 5.16684 24.7909 3.37598 27 3.37598H33C35.2091 3.37598 37 5.16684 37 7.37598V19.376Z" fill="#76B900"/>
</svg>
