<svg width="90" height="90" viewBox="0 0 90 90" fill="none" xmlns="http://www.w3.org/2000/svg">
<path d="M17.2072 27.0384C14.4738 46.4763 29.206 62.7695 40.3347 64.3357C51.4634 65.9019 70.1261 54.2282 72.8542 34.8607C73.3677 31.2073 73.1566 27.4885 72.2329 23.9168C71.3093 20.345 69.6911 16.9901 67.4709 14.0437C65.2507 11.0972 62.4718 8.61696 59.2931 6.74446C56.1143 4.87196 52.5978 3.6439 48.9445 3.13039C45.2911 2.61689 41.5723 2.828 38.0005 3.75168C34.4288 4.67535 31.0739 6.2935 28.1274 8.51372C25.181 10.7339 22.7007 13.5128 20.8282 16.6916C18.9557 19.8703 17.7277 23.3868 17.2142 27.0402L17.2072 27.0384Z" stroke="#78B821" stroke-width="4" stroke-miterlimit="10"/>
<path d="M48.505 54.1492C54.2759 51.8641 60.2964 46.573 62.9666 39.127" stroke="#78B821" stroke-width="4" stroke-miterlimit="10" stroke-linecap="round"/>
<path d="M25.3652 87.1487C31.1361 84.8636 36.4939 80.1069 39.1641 72.6626" stroke="#78B821" stroke-width="4" stroke-miterlimit="10" stroke-linecap="round"/>
<path d="M43.1173 64.7246L44.7292 73.4451L33.6005 71.8807L37.5539 63.9424L43.1173 64.7246Z" stroke="#78B821" stroke-width="4" stroke-linecap="round" stroke-linejoin="round"/>
</svg>
