<?xml version="1.0" encoding="utf-8"?>
<!-- Generator: Adobe Illustrator 26.5.0, SVG Export Plug-In . SVG Version: 6.00 Build 0)  -->
<svg version="1.1" id="圖層_1" xmlns="http://www.w3.org/2000/svg" xmlns:xlink="http://www.w3.org/1999/xlink" x="0px" y="0px"
	 viewBox="0 0 576 512" style="enable-background:new 0 0 576 512;" xml:space="preserve">
<style type="text/css">
	.st0{fill:#FFFFFF;}
</style>
<path class="st0" d="M432,0c-79.5,0-144,64.5-144,144v48H64c-35.3,0-64,28.7-64,64v192c0,35.3,28.7,64,64,64h320
	c35.3,0,64-28.7,64-64V256c0-35.3-28.7-64-64-64h-32v-48c0-44.2,35.8-80,80-80s80,35.8,80,80v48c0,17.7,14.3,32,32,32s32-14.3,32-32
	v-48C576,64.5,511.5,0,432,0z M256.5,383.5c0,17.9-14.6,32.5-32.5,32.5h0c-17.9,0-32.5-14.6-32.5-32.5v-59
	c0-17.9,14.6-32.5,32.5-32.5h0c17.9,0,32.5,14.6,32.5,32.5V383.5z"/>
</svg>
