<?xml version="1.0" encoding="utf-8"?>
<!-- Generator: Adobe Illustrator 27.1.1, SVG Export Plug-In . SVG Version: 6.00 Build 0)  -->
<svg version="1.1" id="_圖層_2" xmlns="http://www.w3.org/2000/svg" xmlns:xlink="http://www.w3.org/1999/xlink" x="0px" y="0px"
	 viewBox="0 0 910 170.2" style="enable-background:new 0 0 910 170.2;" xml:space="preserve">
<style type="text/css">
	.st0{fill:#76B900;}
	.st1{fill:#1E1E1E;}
	.st2{fill:#FFFFFF;}
	.st3{fill:#D62C2E;}
	.st4{fill:#EC402E;}
	.st5{fill:#DE5398;}
	.st6{fill:#4A519F;}
	.st7{fill:#5E5CA5;}
	.st8{fill:#F58F31;}
	.st9{fill:#F06A2F;}
	.st10{fill:#064D59;}
	.st11{fill:#FCBA31;}
	.st12{fill:#0F897A;}
	.st13{fill:#FCD630;}
	.st14{fill:#59C0AB;}
	.st15{fill:#0CAA7E;}
	.st16{fill:#F79B31;}
	.st17{fill:#CF2875;}
</style>
<g id="PARTNER_LOGO_AREA">
	<g>
		<g id="NVIDIA_GeForce_NOW_Provided_by">
			<path class="st0" d="M201.1,0v170.2H0V0H201.1z M546.5,0v170.2h17.8V0H546.5z"/>
			<rect x="201.1" y="0" class="st1" width="345.4" height="170.2"/>
			<path id="NVIDIA_Logo" class="st1" d="M89,112.4V138h7.2v-25.6H89z M32.2,112.4V138h7.3v-19.5h5.7c1.9,0,3.2,0.5,4.1,1.4
				c1.1,1.2,1.6,3.2,1.6,6.8V138h7.1v-14.2c0-10.1-6.4-11.5-12.7-11.5L32.2,112.4 M100.7,112.4V138h11.7c6.2,0,8.3-1,10.5-3.4
				c1.6-1.6,2.6-5.2,2.6-9.1c0-3.6-0.8-6.8-2.3-8.8c-2.7-3.6-6.5-4.3-12.3-4.3H100.7L100.7,112.4z M107.8,118h3.1
				c4.5,0,7.4,2,7.4,7.3c0,5.3-2.9,7.3-7.4,7.3h-3.1V118z M78.6,112.4l-6,20.3l-5.8-20.3H59l8.2,25.6h10.4l8.3-25.6
				C86,112.4,78.6,112.4,78.6,112.4z M128.8,138h7.2v-25.6h-7.2V138z M149,112.5L139,138h7.1l1.6-4.5h11.9l1.5,4.5h7.7l-10.2-25.6
				L149,112.5L149,112.5z M153.7,117.1l4.4,12h-8.9C149.2,129.1,153.7,117.1,153.7,117.1z M79.5,52.5v-6.2c0.6,0,1.2-0.1,1.8-0.1
				c16.8-0.5,27.8,14.4,27.8,14.4S97.2,77.3,84.5,77.3c-1.8,0-3.5-0.3-5-0.8V57.8c6.5,0.8,7.9,3.7,11.8,10.2l8.8-7.4
				c0,0-6.4-8.4-17.2-8.4C81.7,52.3,80.6,52.4,79.5,52.5 M79.5,32.2v9.2c0.6,0,1.2-0.1,1.8-0.1c23.4-0.8,38.6,19.2,38.6,19.2
				s-17.5,21.3-35.7,21.3c-1.7,0-3.2-0.2-4.7-0.4V87c1.3,0.2,2.6,0.2,3.9,0.2c17,0,29.2-8.7,41.1-18.9c2,1.6,10,5.4,11.7,7.1
				c-11.3,9.4-37.6,17.1-52.5,17.1c-1.4,0-2.8-0.1-4.2-0.2v8h64.5v-68L79.5,32.2L79.5,32.2z M79.5,76.5v4.8
				c-15.7-2.8-20-19.1-20-19.1s7.5-8.3,20-9.7v5.3h0c-6.6-0.8-11.7,5.3-11.7,5.3S70.6,73.5,79.5,76.5 M51.6,61.5
				c0,0,9.3-13.7,27.9-15.1v-5C58.9,43,41.1,60.4,41.1,60.4s10.1,29.1,38.4,31.8V87C58.7,84.4,51.6,61.5,51.6,61.5z"/>
			<path class="st2" d="M252.5,78.6c-14.1,0-21.2-7.3-21.2-21.8v-2.5c0-4.6,0.8-8.6,2.4-11.9c1.6-3.3,4-5.8,7-7.6
				c3.1-1.8,6.7-2.6,11-2.6h0.6c4.3,0,7.9,0.9,10.8,2.8c3,1.8,5.1,4.5,6.4,7.9l-8.5,3c-1.2-3.7-4.1-5.5-8.8-5.5h-0.4
				c-3.6,0-6.4,1.2-8.4,3.5c-1.9,2.4-2.9,5.8-2.9,10.3v2.9c0,4.6,1,8,2.9,10.1c1.9,2.2,4.9,3.2,9,3.2h0.4c1.7,0,3.2-0.1,4.7-0.4
				c1.5-0.2,2.8-0.6,3.9-1.2v-8.2h-9.6l1.1-7.8h17.4v20.5c-2.2,1.7-4.7,3-7.7,3.8c-3,0.9-6.2,1.3-9.6,1.3H252.5L252.5,78.6z
				 M278.4,77.7V33.1H308V41h-20.3v10.2h16.5l-1.1,7.9h-15.4v10.6h20.7v7.9L278.4,77.7L278.4,77.7z M316.5,77.7V33.1h29.6V41h-20.3
				v11.4h16.4l-1.1,7.9h-15.3v17.4L316.5,77.7L316.5,77.7z M370.8,78.6c-4.3,0-8-0.9-11.1-2.7s-5.4-4.3-7.1-7.6
				c-1.6-3.3-2.5-7.1-2.5-11.6v-2.5c0-4.5,0.8-8.4,2.5-11.6c1.6-3.3,4-5.8,7.1-7.6c3.1-1.8,6.8-2.7,11.1-2.7h0.6
				c4.3,0,8,0.9,11.1,2.7s5.4,4.3,7.1,7.6c1.6,3.3,2.5,7.2,2.5,11.7v2.5c0,4.5-0.8,8.4-2.5,11.6s-4,5.8-7.1,7.6
				c-3.1,1.8-6.8,2.7-11.1,2.7H370.8z M370.8,70.4h0.5c3.5,0,6.2-1.1,8.3-3.4s3.1-5.6,3.1-10.2v-2.9c0-4.5-1-7.9-3.1-10.2
				s-4.8-3.4-8.3-3.4h-0.5c-3.5,0-6.2,1.1-8.3,3.4c-2.1,2.2-3.1,5.7-3.1,10.2v2.9c0,4.5,1,7.9,3.1,10.2S367.4,70.4,370.8,70.4z
				 M399,77.7V33.1h16.9c5.2,0,9.3,1.2,12.3,3.6c3,2.4,4.5,5.8,4.5,10.1V48c0,3-0.7,5.6-2.2,7.6c-1.5,2.1-3.5,3.7-6.1,4.7l9.7,17.3
				h-10.1l-8.8-15.9h-6.9v15.9H399L399,77.7z M408.3,53.7h7.3c2.2,0,4.1-0.4,5.6-1.3c1.5-0.8,2.2-2.3,2.2-4.3v-1.6
				c0-1.9-0.7-3.3-2.2-4.2c-1.5-0.9-3.4-1.3-5.6-1.3h-7.3C408.3,41.1,408.3,53.7,408.3,53.7z M459.2,78.6c-6.6,0-11.6-1.9-15.1-5.8
				s-5.2-9.2-5.2-16.2v-2.5c0-4.5,0.8-8.4,2.4-11.6c1.6-3.3,3.9-5.8,6.9-7.6c3-1.8,6.7-2.7,11-2.7h0.5c4.5,0,8.3,1,11.3,3
				c3,2,5.1,4.8,6.4,8.5l-8.7,3.1c-0.6-2.2-1.7-3.8-3.3-4.8s-3.5-1.5-5.8-1.5h-0.4c-3.5,0-6.2,1.1-8.1,3.4c-2,2.2-2.9,5.7-2.9,10.2
				v2.9c0,4.7,0.9,8.2,2.8,10.3c1.9,2.2,4.6,3.3,8.2,3.3h0.4c2.3,0,4.3-0.5,5.9-1.5c1.7-1,2.8-2.6,3.5-4.8l8.5,3.3
				c-1.3,3.5-3.4,6.3-6.5,8.2c-3.1,1.9-6.9,2.9-11.4,2.9L459.2,78.6L459.2,78.6z M484.3,77.7V33.1h29.6V41h-20.3v10.2h16.5l-1.1,7.9
				h-15.4v10.6h20.7v7.9L484.3,77.7L484.3,77.7z M233.3,138V93.5h8.3l20.2,29.1V93.5h8.9V138h-8.3l-20.2-29.1V138H233.3L233.3,138z
				 M299.1,138.9c-4.3,0-8-0.9-11.1-2.7s-5.4-4.3-7.1-7.6s-2.5-7.2-2.5-11.7v-2.6c0-4.5,0.8-8.4,2.5-11.7c1.6-3.3,4-5.8,7.1-7.6
				s6.8-2.7,11.1-2.7h0.6c4.3,0,8,0.9,11.1,2.7s5.4,4.3,7.1,7.6c1.6,3.3,2.5,7.2,2.5,11.7v2.6c0,4.5-0.8,8.4-2.5,11.7
				c-1.6,3.3-4,5.8-7.1,7.6c-3.1,1.8-6.8,2.7-11.1,2.7H299.1z M299.2,130.8h0.5c3.5,0,6.2-1.1,8.3-3.4c2.1-2.2,3.1-5.7,3.1-10.2
				v-2.9c0-4.5-1-7.9-3.1-10.2s-4.8-3.4-8.3-3.4h-0.5c-3.5,0-6.2,1.1-8.3,3.4c-2.1,2.2-3.1,5.7-3.1,10.2v2.9c0,4.5,1,7.9,3.1,10.2
				S295.7,130.8,299.2,130.8z M323.4,93.5h10.1l8.2,31.1l8.1-31.1h8.5l8.1,31.1l8.2-31.1h9.5L370.4,138h-8.7l-8-29.9l-8,29.9h-8.7
				L323.4,93.5L323.4,93.5z"/>
			<path class="st2" d="M604.1,52.2V18.6h12.7c2.6,0,4.8,0.4,6.7,1.3c1.9,0.9,3.4,2.1,4.4,3.7c1,1.6,1.6,3.6,1.6,5.8v0.9
				c0,3.5-1.2,6.2-3.5,8.1c-2.3,1.9-5.4,2.9-9.3,2.9h-5.7v10.8L604.1,52.2L604.1,52.2z M611.1,35.3h5.5c1.7,0,3.1-0.4,4.2-1.1
				c1.1-0.7,1.7-2,1.7-3.7v-1.2c0-1.6-0.6-2.8-1.7-3.6c-1.1-0.8-2.5-1.1-4.2-1.1h-5.5V35.3z M649.2,52.9c-3.3,0-6.1-0.7-8.4-2
				c-2.3-1.3-4.1-3.2-5.3-5.7c-1.2-2.5-1.8-5.4-1.8-8.8v-1.9c0-3.4,0.6-6.3,1.8-8.8c1.2-2.5,3-4.4,5.3-5.7s5.1-2,8.4-2h0.5
				c3.3,0,6.1,0.7,8.4,2c2.3,1.3,4.1,3.2,5.3,5.7c1.2,2.5,1.8,5.4,1.8,8.8v1.9c0,3.4-0.6,6.3-1.8,8.8c-1.2,2.5-3,4.4-5.3,5.7
				s-5.1,2-8.4,2H649.2z M649.3,46.8h0.4c2.6,0,4.7-0.8,6.3-2.5c1.5-1.7,2.3-4.3,2.3-7.7v-2.2c0-3.4-0.8-6-2.3-7.7s-3.6-2.5-6.3-2.5
				h-0.4c-2.6,0-4.7,0.9-6.3,2.5c-1.5,1.7-2.3,4.3-2.3,7.7v2.2c0,3.4,0.8,6,2.3,7.7C644.6,45.9,646.7,46.8,649.3,46.8z M667.1,18.6
				h7.6l6.2,23.5l6.1-23.5h6.4l6.1,23.5l6.2-23.5h7.2l-10.3,33.6H696l-6-22.6l-6,22.6h-6.6L667.1,18.6L667.1,18.6z M717.3,52.2V18.6
				h22.3v5.9h-15.3v7.7h12.4l-0.8,6h-11.6v8h15.6v6L717.3,52.2L717.3,52.2z M745.7,52.2V18.6h12.7c3.9,0,7,0.9,9.3,2.7
				c2.3,1.8,3.4,4.4,3.4,7.6v0.9c0,2.3-0.5,4.2-1.7,5.8c-1.1,1.6-2.7,2.8-4.6,3.5l7.3,13.1h-7.6l-6.6-12h-5.2v12L745.7,52.2
				L745.7,52.2z M752.7,34.2h5.5c1.7,0,3.1-0.3,4.2-1s1.7-1.7,1.7-3.2v-1.2c0-1.4-0.6-2.5-1.7-3.1c-1.1-0.7-2.5-1-4.2-1h-5.5V34.2
				L752.7,34.2z M776.6,52.2V18.6H799v5.9h-15.3v7.7h12.4l-0.8,6h-11.6v8h15.6v6L776.6,52.2L776.6,52.2z M805,52.2V18.6h13.4
				c3.4,0,6.2,0.7,8.6,2s4.1,3.1,5.3,5.5s1.8,5.1,1.8,8.4v1.9c0,4.9-1.3,8.8-4,11.6s-6.6,4.2-11.6,4.2C818.4,52.2,805,52.2,805,52.2
				z M812,46.2h6.2c2.8,0,5-0.8,6.5-2.4c1.5-1.6,2.3-4,2.3-7.3v-2.2c0-3.2-0.8-5.6-2.3-7.2s-3.7-2.5-6.5-2.5H812
				C812,24.7,812,46.2,812,46.2z M852.6,52.2V18.6h13.7c3.7,0,6.6,0.8,8.7,2.5s3.2,3.9,3.2,6.8v0.8c0,1.3-0.3,2.4-1,3.4
				c-0.7,1-1.6,1.8-2.8,2.5c1.7,0.7,2.9,1.6,3.8,2.8c0.9,1.2,1.3,2.7,1.3,4.4v0.8c0,3-1,5.3-3.2,7c-2.1,1.7-5,2.5-8.8,2.5
				L852.6,52.2L852.6,52.2z M859.6,32.3h6.5c3.4,0,5.1-1.2,5.1-3.5V28c0-1.1-0.4-1.9-1.3-2.5c-0.9-0.6-2.1-0.9-3.8-0.9h-6.5V32.3z
				 M859.6,46.3h7.9c3.4,0,5.1-1.2,5.1-3.5v-0.9c0-1.2-0.4-2-1.3-2.7s-2.1-1-3.8-1h-7.9C859.6,38.2,859.6,46.3,859.6,46.3z
				 M891.5,52.2V39.1L880,18.6h8l7.2,13.8l7.2-13.8h7.7l-11.5,20.5v13.2C898.5,52.2,891.5,52.2,891.5,52.2z"/>
		</g>
		<g>
			<polygon class="st3" points="661.7,138.4 638.3,124.8 638.3,151.8 			"/>
			<polygon class="st4" points="614.9,138.4 614.9,138.4 638.3,151.8 638.3,124.8 			"/>
			<polygon class="st5" points="673.2,124.8 668.6,107.4 661.7,111.2 			"/>
			<polygon class="st6" points="661.7,138.4 655.7,155 668.6,142.1 			"/>
			<polygon class="st7" points="668.6,142.1 673.2,124.8 661.7,138.4 			"/>
			<polygon class="st8" points="638.3,97.8 614.9,111.2 638.3,124.8 			"/>
			<polygon class="st4" points="661.7,138.4 661.7,111.2 638.3,124.8 			"/>
			<polygon class="st9" points="614.9,111.2 614.9,138.4 638.3,124.8 			"/>
			<polygon class="st10" points="638.3,159.7 655.7,155 638.3,151.8 			"/>
			<polygon class="st11" points="661.7,111.2 668.6,107.4 655.7,94.5 			"/>
			<polygon class="st9" points="661.7,111.2 661.7,111.2 638.3,97.8 638.3,124.8 			"/>
			<polygon class="st11" points="608,107.4 603.4,124.8 614.9,111.2 			"/>
			<polygon class="st12" points="638.3,151.8 620.7,155 638.3,159.7 			"/>
			<polygon class="st13" points="614.9,111.2 620.7,94.5 608,107.4 			"/>
			<polygon class="st13" points="638.3,89.8 620.7,94.5 638.3,97.8 			"/>
			<polygon class="st11" points="603.4,124.8 608,142.1 614.9,138.4 			"/>
			<polygon class="st14" points="614.9,138.4 608,142.1 620.7,155 			"/>
			<polygon class="st11" points="655.7,94.5 638.3,89.8 638.3,97.8 			"/>
			<polygon class="st7" points="638.3,151.8 655.7,155 661.7,138.4 			"/>
			<polygon class="st15" points="614.9,138.4 620.7,155 638.3,151.8 			"/>
			<polygon class="st16" points="661.7,111.2 655.7,94.5 638.3,97.8 			"/>
			<polygon class="st17" points="661.7,111.2 661.7,138.4 673.2,124.8 			"/>
			<polygon class="st11" points="638.3,97.8 620.7,94.5 614.9,111.2 			"/>
			<polygon class="st16" points="614.9,138.4 614.9,111.2 603.4,124.8 			"/>
			<polygon class="st2" points="711.4,114.6 711.4,118.2 705.9,118.2 705.9,135.8 701.8,135.8 701.8,118.2 696.3,118.2 696.3,114.6 
							"/>
			<path class="st2" d="M726.7,135.8h-3.8v-1.2c-1.2,1-2.6,1.5-4.1,1.5c-2.2,0-4.3-1-5.5-2.4c-1.2-1.4-1.9-3.1-1.9-5.2
				c0-4.3,3.3-7.6,7.2-7.6c1.7,0,3.1,0.5,4.3,1.5v-1.2h3.8V135.8z M722.7,126.3c-0.9-1-2.1-1.9-3.6-1.9c-2.2,0-3.8,1.9-3.8,4
				c0,2.2,1.7,4,3.8,4c1.5,0,2.8-0.7,3.6-1.9V126.3z"/>
			<path class="st2" d="M733.2,113.4c1.4,0,2.6,1,2.6,2.6c0,1.4-1.2,2.6-2.6,2.6c-1.4,0-2.6-1-2.6-2.6
				C730.7,114.6,731.7,113.4,733.2,113.4 M735.1,135.8h-4v-14.6h4V135.8z"/>
			<polygon class="st2" points="746.5,135.8 743.9,135.8 737.7,121.1 741.7,121.1 745.3,129.7 748.9,121.1 751.6,121.1 755.3,129.7 
				758.9,121.1 762.8,121.1 756.6,135.8 753.9,135.8 750.3,127.3 			"/>
			<path class="st2" d="M779,135.8h-3.8v-1.2c-1.2,1-2.6,1.5-4.1,1.5c-2.2,0-4.3-1-5.5-2.4c-1.2-1.4-1.9-3.1-1.9-5.2
				c0-4.3,3.3-7.6,7.2-7.6c1.7,0,3.1,0.5,4.3,1.5v-1.2h3.8V135.8z M775,126.3c-0.9-1-2.1-1.9-3.6-1.9c-2.2,0-3.8,1.9-3.8,4
				c0,2.2,1.7,4,3.8,4c1.5,0,2.8-0.7,3.6-1.9V126.3z"/>
			<path class="st2" d="M783.5,135.8v-14.6h3.8v1.2c1-0.9,2.6-1.5,4.1-1.5c2.1,0,3.8,0.9,5,2.4c1,1.2,1.5,2.6,1.5,5.2v7.4h-4V128
				c0-1.4-0.3-2.2-0.9-2.8c-0.5-0.5-1.4-0.9-2.2-0.9c-1.7,0-3.1,1-3.6,1.9v9.5C787.3,135.8,783.5,135.8,783.5,135.8z"/>
			<polygon class="st2" points="821,127.3 828.7,114.6 831.6,114.6 831.6,135.8 827.5,135.8 827.5,124.1 822.4,132.3 819.6,132.3 
				814.4,124.1 814.4,135.8 810.5,135.8 810.5,114.6 813.2,114.6 			"/>
			<path class="st2" d="M842.8,120.8c4.5,0,7.7,3.4,7.7,7.6c0,4.3-3.3,7.6-7.7,7.6c-4.5,0-7.7-3.4-7.7-7.6
				C835.1,124.2,838.4,120.8,842.8,120.8 M842.8,132.5c2.2,0,3.8-1.7,3.8-4c0-2.2-1.5-4-3.8-4c-2.2,0-3.8,1.9-3.8,4
				C839,130.6,840.6,132.5,842.8,132.5"/>
			<path class="st2" d="M853.8,135.8v-21.3h4v7.7c1.2-0.9,2.6-1.4,4.1-1.4c4,0,7.2,3.3,7.2,7.6c0,2.1-0.7,3.8-1.9,5.2
				c-1.4,1.5-3.3,2.4-5.5,2.4c-1.5,0-2.9-0.5-4.1-1.5v1.2h-3.8V135.8z M857.8,130.6c0.7,1,2.1,1.9,3.6,1.9c2.2,0,3.8-1.7,3.8-4
				c0-2.1-1.5-4-3.8-4c-1.5,0-2.8,0.7-3.6,1.9V130.6z"/>
			<path class="st2" d="M874.5,113.4c1.4,0,2.6,1,2.6,2.6c0,1.4-1.2,2.6-2.6,2.6c-1.4,0-2.6-1-2.6-2.6
				C871.9,114.6,872.9,113.4,874.5,113.4 M876.4,135.8h-4v-14.6h4V135.8z"/>
			<rect x="880.8" y="114.4" class="st2" width="4" height="21.3"/>
			<path class="st2" d="M901.8,133.4c-1.4,1.7-3.8,2.6-6,2.6c-4.3,0-7.7-3.1-7.7-7.6c0-4.1,2.8-7.6,7.1-7.6c4,0,6.9,3.4,6.9,7.4
				c0,0.3,0,0.9-0.2,1h-10.1c0.2,2.1,1.9,3.4,4,3.4c1.7,0,2.9-0.9,3.6-1.7L901.8,133.4z M898.2,126.7c-0.2-1.4-1.4-2.6-2.9-2.6
				c-1.5,0-2.9,1.2-3.1,2.6H898.2z"/>
		</g>
	</g>
</g>
</svg>
