<?xml version="1.0" encoding="utf-8"?>
<!-- Generator: Adobe Illustrator 27.1.1, SVG Export Plug-In . SVG Version: 6.00 Build 0)  -->
<svg version="1.1" id="圖層_1" xmlns="http://www.w3.org/2000/svg" xmlns:xlink="http://www.w3.org/1999/xlink" x="0px" y="0px"
	 viewBox="0 0 239.8 56" style="enable-background:new 0 0 239.8 56;" xml:space="preserve">
<style type="text/css">
	.st0{fill:#D62C2E;}
	.st1{fill:#EC402E;}
	.st2{fill:#DE5398;}
	.st3{fill:#4A519F;}
	.st4{fill:#5E5CA5;}
	.st5{fill:#F58F31;}
	.st6{fill:#F06A2F;}
	.st7{fill:#064D59;}
	.st8{fill:#FCBA31;}
	.st9{fill:#0F897A;}
	.st10{fill:#FCD630;}
	.st11{fill:#59C0AB;}
	.st12{fill:#0CAA7E;}
	.st13{fill:#F79B31;}
	.st14{fill:#CF2875;}
	.st15{fill:#FFFFFF;}
</style>
<g>
	<polygon class="st0" points="46.8,38.9 28,28 28,49.7 	"/>
	<polygon class="st1" points="9.3,38.9 9.3,38.9 28,49.7 28,28 	"/>
	<polygon class="st2" points="56.1,28 52.3,14.1 46.8,17.1 	"/>
	<polygon class="st3" points="46.8,38.9 42,52.3 52.3,42 	"/>
	<polygon class="st4" points="52.3,42 56.1,28 46.8,38.9 	"/>
	<polygon class="st5" points="28,6.4 9.3,17.1 28,28 	"/>
	<polygon class="st1" points="46.8,38.9 46.8,17.1 28,28 	"/>
	<polygon class="st6" points="9.3,17.1 9.3,38.9 28,28 	"/>
	<polygon class="st7" points="28,56.1 42,52.3 28,49.7 	"/>
	<polygon class="st8" points="46.8,17.1 52.3,14.1 42,3.7 	"/>
	<polygon class="st6" points="46.8,17.1 46.8,17.1 28,6.4 28,28 	"/>
	<polygon class="st8" points="3.7,14.1 0,28 9.3,17.1 	"/>
	<polygon class="st9" points="28,49.7 13.9,52.3 28,56.1 	"/>
	<polygon class="st10" points="9.3,17.1 13.9,3.7 3.7,14.1 	"/>
	<polygon class="st10" points="28,0 13.9,3.7 28,6.4 	"/>
	<polygon class="st8" points="0,28 3.7,42 9.3,38.9 	"/>
	<polygon class="st11" points="9.3,38.9 3.7,42 13.9,52.3 	"/>
	<polygon class="st8" points="42,3.7 28,0 28,6.4 	"/>
	<polygon class="st4" points="28,49.7 42,52.3 46.8,38.9 	"/>
	<polygon class="st12" points="9.3,38.9 13.9,52.3 28,49.7 	"/>
	<polygon class="st13" points="46.8,17.1 42,3.7 28,6.4 	"/>
	<polygon class="st14" points="46.8,17.1 46.8,38.9 56.1,28 	"/>
	<polygon class="st8" points="28,6.4 13.9,3.7 9.3,17.1 	"/>
	<polygon class="st13" points="9.3,38.9 9.3,17.1 0,28 	"/>
	<polygon class="st15" points="86.7,19.9 86.7,22.8 82.3,22.8 82.3,36.9 79,36.9 79,22.8 74.6,22.8 74.6,19.9 	"/>
	<path class="st15" d="M99,36.9h-3v-1c-1,0.8-2.1,1.2-3.3,1.2c-1.8,0-3.5-0.8-4.4-1.9c-1-1.1-1.5-2.5-1.5-4.1c0-3.5,2.6-6.1,5.8-6.1
		c1.4,0,2.5,0.4,3.5,1.2v-1h3V36.9z M95.9,29.3c-0.7-0.8-1.7-1.5-2.9-1.5c-1.8,0-3,1.5-3,3.2c0,1.8,1.4,3.2,3,3.2
		c1.2,0,2.2-0.6,2.9-1.5V29.3z"/>
	<path class="st15" d="M104.3,18.9c1.1,0,2.1,0.8,2.1,2.1c0,1.1-1,2.1-2.1,2.1s-2.1-0.8-2.1-2.1C102.2,19.9,103,18.9,104.3,18.9
		 M105.8,36.9h-3.2V25.1h3.2V36.9z"/>
	<polygon class="st15" points="114.9,36.9 112.8,36.9 107.9,25.1 111,25.1 113.9,32 116.8,25.1 119.1,25.1 122,32 124.9,25.1 
		128,25.1 123.1,36.9 120.9,36.9 118,30.1 	"/>
	<path class="st15" d="M141,36.9h-3v-1c-1,0.8-2.1,1.2-3.3,1.2c-1.8,0-3.5-0.8-4.4-1.9s-1.5-2.5-1.5-4.1c0-3.5,2.6-6.1,5.8-6.1
		c1.4,0,2.5,0.4,3.5,1.2v-1h3V36.9z M137.8,29.3c-0.7-0.8-1.7-1.5-2.9-1.5c-1.8,0-3,1.5-3,3.2c0,1.8,1.4,3.2,3,3.2
		c1.2,0,2.2-0.6,2.9-1.5V29.3z"/>
	<path class="st15" d="M144.6,36.9V25.1h3v1c0.8-0.7,2.1-1.2,3.3-1.2c1.7,0,3,0.7,4,1.9c0.8,1,1.2,2.1,1.2,4.1v5.9H153v-6.2
		c0-1.1-0.3-1.8-0.7-2.2c-0.4-0.4-1.1-0.7-1.8-0.7c-1.4,0-2.5,0.8-2.9,1.5v7.6C147.6,36.9,144.6,36.9,144.6,36.9z"/>
	<polygon class="st15" points="174.7,30.1 180.9,19.9 183.3,19.9 183.3,36.9 180,36.9 180,27.5 175.8,34.1 173.6,34.1 169.5,27.5 
		169.5,36.9 166.3,36.9 166.3,19.9 168.5,19.9 	"/>
	<path class="st15" d="M192.3,24.9c3.6,0,6.2,2.8,6.2,6.1c0,3.5-2.6,6.1-6.2,6.1s-6.2-2.8-6.2-6.1S188.7,24.9,192.3,24.9
		 M192.3,34.3c1.8,0,3-1.4,3-3.2s-1.2-3.2-3-3.2s-3,1.5-3,3.2C189.2,32.7,190.5,34.3,192.3,34.3"/>
	<path class="st15" d="M201.1,36.9V19.8h3.2V26c1-0.7,2.1-1.1,3.3-1.1c3.2,0,5.8,2.6,5.8,6.1c0,1.7-0.6,3-1.5,4.1
		c-1.1,1.2-2.6,1.9-4.4,1.9c-1.2,0-2.3-0.4-3.3-1.2v1h-3V36.9z M204.3,32.7c0.6,0.8,1.7,1.5,2.9,1.5c1.8,0,3-1.4,3-3.2
		c0-1.7-1.2-3.2-3-3.2c-1.2,0-2.2,0.6-2.9,1.5V32.7z"/>
	<path class="st15" d="M217.7,18.9c1.1,0,2.1,0.8,2.1,2.1c0,1.1-1,2.1-2.1,2.1s-2.1-0.8-2.1-2.1C215.6,19.9,216.4,18.9,217.7,18.9
		 M219.2,36.9H216V25.1h3.2V36.9z"/>
	<rect x="222.8" y="19.8" class="st15" width="3.2" height="17.1"/>
	<path class="st15" d="M239.6,34.9c-1.1,1.4-3,2.1-4.8,2.1c-3.5,0-6.2-2.5-6.2-6.1c0-3.3,2.2-6.1,5.7-6.1c3.2,0,5.5,2.8,5.5,5.9
		c0,0.3,0,0.7-0.1,0.8h-8.1c0.1,1.7,1.5,2.8,3.2,2.8c1.4,0,2.3-0.7,2.9-1.4L239.6,34.9z M236.7,29.6c-0.1-1.1-1.1-2.1-2.3-2.1
		s-2.3,1-2.5,2.1H236.7z"/>
</g>
</svg>
