<?xml version="1.0" encoding="UTF-8"?><svg id="_圖層_2" xmlns="http://www.w3.org/2000/svg" viewBox="0 0 564.31 170.21"><defs><style>.cls-1{fill:#fff;}.cls-2{fill:#1e1e1e;}.cls-3{fill:#76b900;}</style></defs><g id="PARTNER_LOGO_AREA"><g><path class="cls-3" d="M201.09,0V170.21H0V0H201.09Zm345.41,0V170.21h17.82V0h-17.82Z"/><path id="NVIDIA_Logo" class="cls-2" d="M89.03,112.44v25.58h7.23v-25.58h-7.23Zm-56.83-.04v25.62h7.29v-19.45h5.65c1.87,0,3.2,.47,4.1,1.43,1.14,1.22,1.61,3.18,1.61,6.77v11.25h7.06s0-14.15,0-14.15c0-10.1-6.44-11.46-12.74-11.46h-12.97m68.47,.04v25.58h11.72c6.24,0,8.28-1.04,10.48-3.37,1.56-1.63,2.56-5.22,2.56-9.14,0-3.6-.85-6.8-2.34-8.8-2.68-3.57-6.53-4.27-12.29-4.27h-10.14Zm7.17,5.57h3.11c4.51,0,7.42,2.02,7.42,7.27s-2.91,7.28-7.42,7.28h-3.11v-14.55Zm-29.22-5.57l-6.03,20.27-5.78-20.27h-7.8s8.25,25.58,8.25,25.58h10.41l8.32-25.58h-7.37Zm50.18,25.58h7.23v-25.58h-7.23s0,25.58,0,25.58Zm20.25-25.57l-10.09,25.56h7.12l1.6-4.52h11.94l1.51,4.52h7.73l-10.17-25.56h-9.65Zm4.69,4.67l4.38,11.98h-8.89l4.51-11.98ZM79.48,52.52v-6.15c.6-.04,1.2-.07,1.81-.09,16.81-.53,27.84,14.44,27.84,14.44,0,0-11.91,16.54-24.68,16.54-1.84,0-3.49-.3-4.97-.79v-18.64c6.54,.79,7.86,3.68,11.79,10.24l8.75-7.38s-6.39-8.38-17.15-8.38c-1.17,0-2.29,.08-3.39,.2m0-20.3v9.18c.6-.05,1.21-.09,1.81-.11,23.37-.79,38.6,19.17,38.6,19.17,0,0-17.49,21.27-35.71,21.27-1.67,0-3.23-.15-4.7-.41v5.67c1.26,.16,2.56,.25,3.92,.25,16.96,0,29.22-8.66,41.1-18.91,1.97,1.58,10.03,5.41,11.69,7.09-11.29,9.45-37.6,17.07-52.52,17.07-1.44,0-2.82-.09-4.18-.22v7.97h64.45V32.22H79.48Zm0,44.25v4.84c-15.68-2.8-20.04-19.1-20.04-19.1,0,0,7.53-8.34,20.04-9.7v5.32s-.02,0-.02,0c-6.56-.79-11.69,5.34-11.69,5.34,0,0,2.87,10.32,11.72,13.29m-27.86-14.96s9.3-13.72,27.86-15.13v-4.98c-20.56,1.65-38.36,19.06-38.36,19.06,0,0,10.08,29.15,38.36,31.82v-5.29c-20.75-2.61-27.86-25.48-27.86-25.48Z"/><path class="cls-1" d="M252.5,78.57c-14.13,0-21.2-7.26-21.2-21.77v-2.48c0-4.63,.82-8.58,2.45-11.87,1.63-3.29,3.98-5.81,7.03-7.58,3.06-1.76,6.73-2.64,11.01-2.64h.57c4.29,0,7.9,.92,10.85,2.77,2.95,1.85,5.08,4.49,6.4,7.93l-8.53,2.99c-1.19-3.69-4.12-5.54-8.79-5.54h-.45c-3.65,0-6.44,1.18-8.37,3.53-1.93,2.36-2.9,5.78-2.9,10.28v2.87c0,4.58,.96,7.96,2.87,10.12,1.91,2.16,4.9,3.25,8.98,3.25h.38c1.66,0,3.22-.13,4.71-.38,1.48-.25,2.78-.64,3.88-1.15v-8.21h-9.55l1.08-7.77h17.38v20.5c-2.16,1.7-4.73,2.98-7.7,3.85-2.97,.87-6.18,1.3-9.61,1.3h-.51Zm25.91-.89V33.11s29.6,0,29.6,0v7.89h-20.31v10.25h16.49l-1.08,7.89h-15.41v10.63h20.69v7.89h-29.99Zm38.13,0V33.11s29.6,0,29.6,0v7.89h-20.31v11.4h16.36l-1.08,7.89h-15.28v17.38s-9.29,0-9.29,0Zm54.24,.89c-4.33,0-8.03-.89-11.11-2.67-3.08-1.78-5.43-4.31-7.07-7.58-1.64-3.27-2.45-7.15-2.45-11.65v-2.55c0-4.5,.82-8.38,2.45-11.65,1.63-3.27,3.99-5.79,7.07-7.58,3.08-1.78,6.78-2.67,11.11-2.67h.64c4.33,0,8.03,.89,11.11,2.67,3.08,1.78,5.43,4.31,7.07,7.58,1.63,3.27,2.45,7.15,2.45,11.65v2.55c0,4.5-.82,8.38-2.45,11.65-1.63,3.27-3.99,5.79-7.07,7.58-3.08,1.78-6.78,2.67-11.11,2.67h-.64Zm.06-8.15h.51c3.48,0,6.25-1.12,8.31-3.37,2.06-2.25,3.09-5.64,3.09-10.19v-2.93c0-4.54-1.03-7.94-3.09-10.19-2.06-2.25-4.83-3.37-8.31-3.37h-.51c-3.48,0-6.25,1.13-8.31,3.37-2.06,2.25-3.09,5.65-3.09,10.19v2.93c0,4.54,1.03,7.94,3.09,10.19,2.06,2.25,4.83,3.37,8.31,3.37Zm28.2,7.26V33.11s16.87,0,16.87,0c5.18,0,9.28,1.21,12.32,3.63,3.03,2.42,4.55,5.77,4.55,10.06v1.21c0,3.01-.73,5.56-2.2,7.64-1.46,2.08-3.51,3.65-6.14,4.71l9.74,17.32h-10.12l-8.79-15.92h-6.94v15.92s-9.29,0-9.29,0Zm9.29-23.94h7.32c2.25,0,4.12-.42,5.6-1.27,1.49-.85,2.23-2.27,2.23-4.27v-1.59c0-1.91-.74-3.3-2.23-4.17-1.49-.87-3.35-1.31-5.6-1.31h-7.32v12.61Zm50.87,24.83c-6.62,0-11.65-1.93-15.09-5.79-3.44-3.86-5.16-9.25-5.16-16.17v-2.48c0-4.5,.78-8.38,2.36-11.65,1.57-3.27,3.86-5.79,6.88-7.58,3.01-1.78,6.68-2.67,11.01-2.67h.51c4.54,0,8.32,1,11.33,2.99,3.01,2,5.13,4.82,6.37,8.47l-8.66,3.06c-.59-2.21-1.69-3.82-3.28-4.84-1.59-1.02-3.51-1.53-5.76-1.53h-.38c-3.48,0-6.2,1.13-8.15,3.37-1.95,2.25-2.93,5.65-2.93,10.19v2.87c0,4.71,.94,8.16,2.83,10.35,1.89,2.19,4.64,3.28,8.24,3.28h.38c2.29,0,4.27-.5,5.92-1.5,1.66-1,2.82-2.6,3.5-4.81l8.47,3.31c-1.27,3.52-3.44,6.26-6.49,8.21-3.06,1.95-6.85,2.93-11.4,2.93h-.51Zm25.08-.89V33.11s29.6,0,29.6,0v7.89h-20.31v10.25h16.49l-1.08,7.89h-15.41v10.63h20.69v7.89s-29.98,0-29.98,0Zm-251.02,60.35v-44.57h8.28l20.18,29.1v-29.1h8.85v44.57h-8.28l-20.18-29.1v29.1h-8.85Zm65.89,.89c-4.33,0-8.03-.89-11.11-2.67s-5.43-4.31-7.07-7.58c-1.64-3.27-2.45-7.15-2.45-11.65v-2.55c0-4.5,.82-8.38,2.45-11.65,1.63-3.27,3.99-5.79,7.07-7.58s6.78-2.67,11.11-2.67h.64c4.33,0,8.03,.89,11.11,2.67,3.08,1.78,5.43,4.31,7.07,7.58,1.63,3.27,2.45,7.15,2.45,11.65v2.55c0,4.5-.82,8.38-2.45,11.65-1.64,3.27-3.99,5.79-7.07,7.58-3.08,1.78-6.78,2.67-11.11,2.67h-.64Zm.06-8.15h.51c3.48,0,6.25-1.13,8.31-3.37,2.06-2.25,3.09-5.65,3.09-10.19v-2.93c0-4.54-1.03-7.94-3.09-10.19-2.06-2.25-4.83-3.37-8.31-3.37h-.51c-3.48,0-6.25,1.13-8.31,3.37-2.06,2.25-3.09,5.65-3.09,10.19v2.93c0,4.54,1.03,7.94,3.09,10.19,2.06,2.25,4.83,3.37,8.31,3.37Zm24.19-37.31h10.06l8.21,31.13,8.09-31.13h8.53l8.09,31.13,8.21-31.13h9.55l-13.69,44.57h-8.72l-7.96-29.92-7.96,29.92h-8.72l-13.69-44.57Z"/></g></g></svg>