<svg width="20" height="20" viewBox="0 0 20 20" fill="none" xmlns="http://www.w3.org/2000/svg">
<path d="M19.1264 16.0313C18.5331 15.5024 18.0136 14.896 17.582 14.2285C17.1108 13.3072 16.8284 12.301 16.7514 11.269V8.22948C16.7554 6.60857 16.1675 5.04196 15.0979 3.824C14.0284 2.60603 12.5509 1.82055 10.9431 1.61513V0.82141C10.9431 0.603558 10.8565 0.39463 10.7025 0.240585C10.5484 0.0865412 10.3395 0 10.1216 0C9.90379 0 9.69487 0.0865412 9.54082 0.240585C9.38678 0.39463 9.30024 0.603558 9.30024 0.82141V1.62744C7.7068 1.84767 6.24716 2.6379 5.19167 3.85177C4.13618 5.06564 3.55636 6.6209 3.5596 8.22948V11.269C3.48254 12.301 3.20013 13.3072 2.72896 14.2285C2.30495 14.8945 1.79384 15.5008 1.2092 16.0313C1.14357 16.089 1.09097 16.16 1.05489 16.2395C1.01882 16.3191 1.00011 16.4054 1 16.4928V17.3296C1 17.4928 1.06482 17.6493 1.18021 17.7647C1.2956 17.8801 1.4521 17.9449 1.61529 17.9449H18.7203C18.8835 17.9449 19.04 17.8801 19.1554 17.7647C19.2708 17.6493 19.3356 17.4928 19.3356 17.3296V16.4928C19.3355 16.4054 19.3168 16.3191 19.2807 16.2395C19.2446 16.16 19.192 16.089 19.1264 16.0313ZM2.2798 16.7143C2.85227 16.1613 3.35631 15.5416 3.7811 14.8684C4.37462 13.7557 4.72091 12.5279 4.79633 11.269V8.22948C4.77193 7.50838 4.89288 6.78975 5.15199 6.11637C5.4111 5.443 5.80307 4.82865 6.30455 4.30991C6.80603 3.79117 7.40677 3.37865 8.071 3.09691C8.73523 2.81518 9.44936 2.66999 10.1709 2.66999C10.8924 2.66999 11.6065 2.81518 12.2707 3.09691C12.935 3.37865 13.5357 3.79117 14.0372 4.30991C14.5387 4.82865 14.9306 5.443 15.1897 6.11637C15.4489 6.78975 15.5698 7.50838 15.5454 8.22948V11.269C15.6208 12.5279 15.9671 13.7557 16.5606 14.8684C16.9854 15.5416 17.4895 16.1613 18.0619 16.7143H2.2798Z" fill="white"/>
<path d="M10.1993 19.9998C10.5869 19.9909 10.9588 19.8451 11.2493 19.5884C11.5398 19.3317 11.7302 18.9805 11.7867 18.5969H8.55029C8.60842 18.9909 8.80768 19.3503 9.11101 19.6084C9.41433 19.8665 9.80107 20.0055 10.1993 19.9998Z" fill="white"/>
<path d="M18 6C18 7.38071 16.8807 8.5 15.5 8.5C14.1193 8.5 13 7.38071 13 6C13 4.61929 14.1193 3.5 15.5 3.5C16.8807 3.5 18 4.61929 18 6Z" fill="#B72020"/>
</svg>
