<svg width="19" height="20" viewBox="0 0 19 20" fill="none" xmlns="http://www.w3.org/2000/svg">
<path d="M18.1264 16.0313C17.5331 15.5024 17.0136 14.896 16.582 14.2285C16.1108 13.3072 15.8284 12.301 15.7514 11.269V8.22948C15.7554 6.60857 15.1675 5.04196 14.0979 3.824C13.0284 2.60603 11.5509 1.82055 9.94306 1.61513V0.82141C9.94306 0.603558 9.85651 0.39463 9.70247 0.240585C9.54843 0.0865412 9.3395 0 9.12165 0C8.90379 0 8.69487 0.0865412 8.54082 0.240585C8.38678 0.39463 8.30024 0.603558 8.30024 0.82141V1.62744C6.7068 1.84767 5.24716 2.6379 4.19167 3.85177C3.13618 5.06564 2.55636 6.6209 2.5596 8.22948V11.269C2.48254 12.301 2.20013 13.3072 1.72896 14.2285C1.30495 14.8945 0.793841 15.5008 0.209198 16.0313C0.143566 16.089 0.090965 16.16 0.0548944 16.2395C0.0188238 16.3191 0.000110626 16.4054 0 16.4928V17.3296C0 17.4928 0.0648248 17.6493 0.180214 17.7647C0.295603 17.8801 0.452104 17.9449 0.615288 17.9449H17.7203C17.8835 17.9449 18.04 17.8801 18.1554 17.7647C18.2708 17.6493 18.3356 17.4928 18.3356 17.3296V16.4928C18.3355 16.4054 18.3168 16.3191 18.2807 16.2395C18.2446 16.16 18.192 16.089 18.1264 16.0313ZM1.2798 16.7143C1.85227 16.1613 2.35631 15.5416 2.7811 14.8684C3.37462 13.7557 3.72091 12.5279 3.79633 11.269V8.22948C3.77193 7.50838 3.89288 6.78975 4.15199 6.11637C4.4111 5.443 4.80307 4.82865 5.30455 4.30991C5.80603 3.79117 6.40677 3.37865 7.071 3.09691C7.73523 2.81518 8.44936 2.66999 9.17087 2.66999C9.89238 2.66999 10.6065 2.81518 11.2707 3.09691C11.935 3.37865 12.5357 3.79117 13.0372 4.30991C13.5387 4.82865 13.9306 5.443 14.1897 6.11637C14.4489 6.78975 14.5698 7.50838 14.5454 8.22948V11.269C14.6208 12.5279 14.9671 13.7557 15.5606 14.8684C15.9854 15.5416 16.4895 16.1613 17.0619 16.7143H1.2798Z" fill="white"/>
<path d="M9.19927 19.9998C9.58686 19.9909 9.9588 19.8451 10.2493 19.5884C10.5398 19.3317 10.7302 18.9805 10.7867 18.5969H7.55029C7.60842 18.9909 7.80768 19.3503 8.11101 19.6084C8.41433 19.8665 8.80107 20.0055 9.19927 19.9998V19.9998Z" fill="white"/>
</svg>
