<?xml version="1.0" encoding="utf-8"?>
<!-- Generator: Adobe Illustrator 23.1.0, SVG Export Plug-In . SVG Version: 6.00 Build 0)  -->
<svg version="1.1" id="圖層_1" xmlns="http://www.w3.org/2000/svg" xmlns:xlink="http://www.w3.org/1999/xlink" x="0px" y="0px"
	 viewBox="0 0 191.8 41" style="enable-background:new 0 0 191.8 41;" xml:space="preserve">
<style type="text/css">
	.st0{fill:#D62C2E;}
	.st1{fill:#EC402E;}
	.st2{fill:#DE5398;}
	.st3{fill:#4A519F;}
	.st4{fill:#5E5CA5;}
	.st5{fill:#F58F31;}
	.st6{fill:#F06A2F;}
	.st7{fill:#064D59;}
	.st8{fill:#FCBA31;}
	.st9{fill:#0F897A;}
	.st10{fill:#FCD630;}
	.st11{fill:#59C0AB;}
	.st12{fill:#0CAA7E;}
	.st13{fill:#F79B31;}
	.st14{fill:#CF2875;}
	.st15{fill:#FFFFFF;}
</style>
<polygon class="st0" points="33.9,28.4 20.3,20.5 20.3,36.2 "/>
<polygon class="st1" points="6.7,28.4 6.7,28.4 20.3,36.2 20.3,20.5 "/>
<polygon class="st2" points="40.6,20.5 37.9,10.4 33.9,12.6 "/>
<polygon class="st3" points="33.9,28.4 30.4,38.1 37.9,30.6 "/>
<polygon class="st4" points="37.9,30.6 40.6,20.5 33.9,28.4 "/>
<polygon class="st5" points="20.3,4.8 6.7,12.6 20.3,20.5 "/>
<polygon class="st1" points="33.9,28.4 33.9,12.6 20.3,20.5 "/>
<polygon class="st6" points="6.7,12.6 6.7,28.4 20.3,20.5 "/>
<polygon class="st7" points="20.3,40.8 30.4,38.1 20.3,36.2 "/>
<polygon class="st8" points="33.9,12.6 37.9,10.4 30.4,2.9 "/>
<polygon class="st6" points="33.9,12.6 33.9,12.6 20.3,4.8 20.3,20.5 "/>
<polygon class="st8" points="2.7,10.4 0,20.5 6.7,12.6 "/>
<polygon class="st9" points="20.3,36.2 10.1,38.1 20.3,40.8 "/>
<polygon class="st10" points="6.7,12.6 10.1,2.9 2.7,10.4 "/>
<polygon class="st10" points="20.3,0.2 10.1,2.9 20.3,4.8 "/>
<polygon class="st8" points="0,20.5 2.7,30.6 6.7,28.4 "/>
<polygon class="st11" points="6.7,28.4 2.7,30.6 10.1,38.1 "/>
<polygon class="st8" points="30.4,2.9 20.3,0.2 20.3,4.8 "/>
<polygon class="st4" points="20.3,36.2 30.4,38.1 33.9,28.4 "/>
<polygon class="st12" points="6.7,28.4 10.1,38.1 20.3,36.2 "/>
<polygon class="st13" points="33.9,12.6 30.4,2.9 20.3,4.8 "/>
<polygon class="st14" points="33.9,12.6 33.9,28.4 40.6,20.5 "/>
<polygon class="st8" points="20.3,4.8 10.1,2.9 6.7,12.6 "/>
<polygon class="st13" points="6.7,28.4 6.7,12.6 0,20.5 "/>
<polygon class="st15" points="62.8,14.6 62.8,16.7 59.6,16.7 59.6,26.9 57.2,26.9 57.2,16.7 54,16.7 54,14.6 "/>
<path class="st15" d="M71.7,26.9h-2.2v-0.7c-0.7,0.6-1.5,0.9-2.4,0.9c-1.3,0-2.5-0.6-3.2-1.4c-0.7-0.8-1.1-1.8-1.1-3
	c0-2.5,1.9-4.4,4.2-4.4c1,0,1.8,0.3,2.5,0.9v-0.7h2.2V26.9z M69.4,21.4c-0.5-0.6-1.2-1.1-2.1-1.1c-1.3,0-2.2,1.1-2.2,2.3
	c0,1.3,1,2.3,2.2,2.3c0.9,0,1.6-0.4,2.1-1.1V21.4z"/>
<path class="st15" d="M75.5,13.9c0.8,0,1.5,0.6,1.5,1.5c0,0.8-0.7,1.5-1.5,1.5c-0.8,0-1.5-0.6-1.5-1.5C74,14.6,74.6,13.9,75.5,13.9
	 M76.6,26.9h-2.3v-8.5h2.3V26.9z"/>
<polygon class="st15" points="83.2,26.9 81.7,26.9 78.1,18.4 80.4,18.4 82.5,23.4 84.6,18.4 86.2,18.4 88.3,23.4 90.4,18.4 
	92.7,18.4 89.1,26.9 87.5,26.9 85.4,22 "/>
<path class="st15" d="M102.1,26.9h-2.2v-0.7c-0.7,0.6-1.5,0.9-2.4,0.9c-1.3,0-2.5-0.6-3.2-1.4c-0.7-0.8-1.1-1.8-1.1-3
	c0-2.5,1.9-4.4,4.2-4.4c1,0,1.8,0.3,2.5,0.9v-0.7h2.2V26.9z M99.8,21.4c-0.5-0.6-1.2-1.1-2.1-1.1c-1.3,0-2.2,1.1-2.2,2.3
	c0,1.3,1,2.3,2.2,2.3c0.9,0,1.6-0.4,2.1-1.1V21.4z"/>
<path class="st15" d="M104.7,26.9v-8.5h2.2v0.7c0.6-0.5,1.5-0.9,2.4-0.9c1.2,0,2.2,0.5,2.9,1.4c0.6,0.7,0.9,1.5,0.9,3v4.3h-2.3v-4.5
	c0-0.8-0.2-1.3-0.5-1.6c-0.3-0.3-0.8-0.5-1.3-0.5c-1,0-1.8,0.6-2.1,1.1v5.5H104.7z"/>
<polygon class="st15" points="126.5,22 131,14.6 132.7,14.6 132.7,26.9 130.3,26.9 130.3,20.1 127.3,24.9 125.7,24.9 122.7,20.1 
	122.7,26.9 120.4,26.9 120.4,14.6 122,14.6 "/>
<path class="st15" d="M139.2,18.2c2.6,0,4.5,2,4.5,4.4c0,2.5-1.9,4.4-4.5,4.4c-2.6,0-4.5-2-4.5-4.4
	C134.7,20.2,136.6,18.2,139.2,18.2 M139.2,25c1.3,0,2.2-1,2.2-2.3c0-1.3-0.9-2.3-2.2-2.3c-1.3,0-2.2,1.1-2.2,2.3
	C137,23.9,137.9,25,139.2,25"/>
<path class="st15" d="M145.6,26.9V14.5h2.3V19c0.7-0.5,1.5-0.8,2.4-0.8c2.3,0,4.2,1.9,4.2,4.4c0,1.2-0.4,2.2-1.1,3
	c-0.8,0.9-1.9,1.4-3.2,1.4c-0.9,0-1.7-0.3-2.4-0.9v0.7H145.6z M147.9,23.9c0.4,0.6,1.2,1.1,2.1,1.1c1.3,0,2.2-1,2.2-2.3
	c0-1.2-0.9-2.3-2.2-2.3c-0.9,0-1.6,0.4-2.1,1.1V23.9z"/>
<path class="st15" d="M157.6,13.9c0.8,0,1.5,0.6,1.5,1.5c0,0.8-0.7,1.5-1.5,1.5c-0.8,0-1.5-0.6-1.5-1.5
	C156.1,14.6,156.7,13.9,157.6,13.9 M158.7,26.9h-2.3v-8.5h2.3V26.9z"/>
<rect x="161.3" y="14.5" class="st15" width="2.3" height="12.4"/>
<path class="st15" d="M173.5,25.5c-0.8,1-2.2,1.5-3.5,1.5c-2.5,0-4.5-1.8-4.5-4.4c0-2.4,1.6-4.4,4.1-4.4c2.3,0,4,2,4,4.3
	c0,0.2,0,0.5-0.1,0.6h-5.9c0.1,1.2,1.1,2,2.3,2c1,0,1.7-0.5,2.1-1L173.5,25.5z M171.4,21.6c-0.1-0.8-0.8-1.5-1.7-1.5
	c-0.9,0-1.7,0.7-1.8,1.5H171.4z"/>
</svg>
