<?xml version="1.0" encoding="UTF-8"?>
<svg id="_圖層_2" data-name="圖層 2" xmlns="http://www.w3.org/2000/svg" xmlns:xlink="http://www.w3.org/1999/xlink" viewBox="0 0 180.48 35.33">
  <defs>
    <style>
      .cls-1 {
        fill: url(#linear-gradient);
      }
    </style>
    <linearGradient id="linear-gradient" x1="72.57" y1="17.67" x2="107.9" y2="17.67" gradientTransform="translate(107.9 -72.57) rotate(90)" gradientUnits="userSpaceOnUse">
      <stop offset="0" stop-color="#ffdc6e"/>
      <stop offset=".02" stop-color="#f0ca60"/>
      <stop offset=".08" stop-color="#d3a845"/>
      <stop offset=".13" stop-color="#be9032"/>
      <stop offset=".18" stop-color="#b18127"/>
      <stop offset=".22" stop-color="#ad7c23"/>
      <stop offset=".28" stop-color="#c19539"/>
      <stop offset=".38" stop-color="#dbb455"/>
      <stop offset=".46" stop-color="#ebc865"/>
      <stop offset=".51" stop-color="#f1cf6c"/>
      <stop offset=".58" stop-color="#e6c261"/>
      <stop offset=".7" stop-color="#cca244"/>
      <stop offset=".82" stop-color="#ad7c23"/>
      <stop offset=".86" stop-color="#af7f25"/>
      <stop offset=".9" stop-color="#b8892d"/>
      <stop offset=".93" stop-color="#c79a3b"/>
      <stop offset=".96" stop-color="#dcb34e"/>
      <stop offset=".99" stop-color="#f6d266"/>
      <stop offset="1" stop-color="#ffdc6e"/>
    </linearGradient>
  </defs>
  <g id="_分離模式" data-name="分離模式">
    <path class="cls-1" d="M180.48,16.19h-15.29L133.04,0c-31.07,8.38-63.19,13.78-94.5,16.19H1.48c-.82,0-1.48.66-1.48,1.48s.66,1.48,1.48,1.48h37.36c31.22,2.43,63.23,7.83,94.21,16.18l32.1-16.18h15.34c-.06-1.21-.13-1.22,0-2.95ZM138.96,17.67c0,4.9-3.98,8.88-8.88,8.88s-8.88-3.98-8.88-8.88,3.98-8.88,8.88-8.88,8.88,3.98,8.88,8.88Z"/>
  </g>
</svg>