<?xml version="1.0" encoding="UTF-8"?>
<svg id="_圖層_2" data-name="圖層 2" xmlns="http://www.w3.org/2000/svg" xmlns:xlink="http://www.w3.org/1999/xlink" viewBox="0 0 831.67 27.46">
  <defs>
    <style>
      .cls-1 {
        fill: url(#linear-gradient);
      }
    </style>
    <linearGradient id="linear-gradient" x1="0" y1="13.73" x2="831.67" y2="13.73" gradientUnits="userSpaceOnUse">
      <stop offset="0" stop-color="#ffdc6e"/>
      <stop offset=".02" stop-color="#f0ca60"/>
      <stop offset=".08" stop-color="#d3a845"/>
      <stop offset=".13" stop-color="#be9032"/>
      <stop offset=".18" stop-color="#b18127"/>
      <stop offset=".22" stop-color="#ad7c23"/>
      <stop offset=".28" stop-color="#c19539"/>
      <stop offset=".38" stop-color="#dbb455"/>
      <stop offset=".46" stop-color="#ebc865"/>
      <stop offset=".51" stop-color="#f1cf6c"/>
      <stop offset=".58" stop-color="#e6c261"/>
      <stop offset=".7" stop-color="#cca244"/>
      <stop offset=".82" stop-color="#ad7c23"/>
      <stop offset=".86" stop-color="#af7f25"/>
      <stop offset=".9" stop-color="#b8892d"/>
      <stop offset=".93" stop-color="#c79a3b"/>
      <stop offset=".96" stop-color="#dcb34e"/>
      <stop offset=".99" stop-color="#f6d266"/>
      <stop offset="1" stop-color="#ffdc6e"/>
    </linearGradient>
  </defs>
  <g id="Layer_2" data-name="Layer 2">
    <path class="cls-1" d="M822.71,4.76c-3.97,0-7.29,2.59-8.47,6.16h-292.53L476.63,0l-51.94,12.58c-.57-4.4-4.29-7.82-8.85-7.82s-8.28,3.42-8.85,7.82L355.05,0l-45.08,10.92H17.44c-1.18-3.57-4.51-6.16-8.47-6.16C4.01,4.76,0,8.78,0,13.73s4.01,8.97,8.97,8.97c3.96,0,7.29-2.59,8.47-6.16h292.54l45.07,10.92,51.94-12.58c.57,4.4,4.29,7.82,8.85,7.82s8.28-3.42,8.85-7.82l51.94,12.58,45.07-10.92h292.54c1.18,3.57,4.51,6.16,8.47,6.16,4.95,0,8.97-4.01,8.97-8.97s-4.01-8.97-8.97-8.97Z"/>
  </g>
</svg>